<?xml version="1.0" encoding="UTF-8" standalone="no"?>
<!DOCTYPE svg PUBLIC "-//W3C//DTD SVG 1.1//EN"
 "http://www.w3.org/Graphics/SVG/1.1/DTD/svg11.dtd">
<!-- Generated by graphviz version 2.40.1 (0)
 -->
<!-- Title: d Pages: 1 -->
<svg width="360pt" height="580pt"
 viewBox="0.00 0.00 359.50 580.00" xmlns="http://www.w3.org/2000/svg" xmlns:xlink="http://www.w3.org/1999/xlink">
<g id="graph0" class="graph" transform="scale(1 1) rotate(0) translate(4 576)">
<title>d</title>
<polygon fill="#ffffff" stroke="transparent" points="-4,4 -4,-576 355.5,-576 355.5,4 -4,4"/>
<!-- n0 -->
<g id="node1" class="node">
<title>n0</title>
<polygon fill="none" stroke="#000000" points="210,-572 133,-572 133,-534 210,-534 210,-572"/>
<text text-anchor="start" x="166.5" y="-556.8" font-family="Helvetica,sans-Serif" font-size="14.00" fill="#000000">0</text>
<text text-anchor="start" x="141" y="-541.8" font-family="Helvetica,sans-Serif" font-size="14.00" fill="#000000">S&#39; → &#160;• S</text>
</g>
<!-- n1 -->
<g id="node2" class="node">
<title>n1</title>
<polygon fill="none" stroke="#000000" points="143,-483 66,-483 66,-445 143,-445 143,-483"/>
<text text-anchor="start" x="99.5" y="-467.8" font-family="Helvetica,sans-Serif" font-size="14.00" fill="#000000">1</text>
<text text-anchor="start" x="74" y="-452.8" font-family="Helvetica,sans-Serif" font-size="14.00" fill="#000000">S&#39; → S • </text>
</g>
<!-- n0&#45;&gt;n1 -->
<g id="edge1" class="edge">
<title>n0&#45;&gt;n1</title>
<path fill="none" stroke="#000000" d="M156.962,-533.6883C147.6554,-521.3258 135.4376,-505.0962 125.1343,-491.4098"/>
<polygon fill="#000000" stroke="#000000" points="127.8203,-489.1582 119.0096,-483.274 122.2278,-493.3683 127.8203,-489.1582"/>
<text text-anchor="middle" x="147.5" y="-504.8" font-family="Helvetica,sans-Serif" font-size="14.00" fill="#000000">S</text>
</g>
<!-- n2 -->
<g id="node3" class="node">
<title>n2</title>
<polygon fill="none" stroke="#000000" points="292.5,-483 206.5,-483 206.5,-445 292.5,-445 292.5,-483"/>
<text text-anchor="start" x="244.5" y="-467.8" font-family="Helvetica,sans-Serif" font-size="14.00" fill="#000000">2</text>
<text text-anchor="start" x="214.5" y="-452.8" font-family="Helvetica,sans-Serif" font-size="14.00" fill="#000000">S → &#160;• x S</text>
</g>
<!-- n0&#45;&gt;n2 -->
<g id="edge2" class="edge">
<title>n0&#45;&gt;n2</title>
<path fill="none" stroke="#000000" d="M188.4248,-533.6883C199.3616,-521.2092 213.7518,-504.7896 225.8168,-491.0231"/>
<polygon fill="#000000" stroke="#000000" points="228.6493,-493.1014 232.6082,-483.274 223.3849,-488.4877 228.6493,-493.1014"/>
<text text-anchor="start" x="215.5" y="-504.8" font-family="Helvetica,sans-Serif" font-size="14.00" fill="#000000">λ</text>
</g>
<!-- n3 -->
<g id="node4" class="node">
<title>n3</title>
<polygon fill="none" stroke="#000000" points="202.5,-305 128.5,-305 128.5,-267 202.5,-267 202.5,-305"/>
<text text-anchor="start" x="160.5" y="-289.8" font-family="Helvetica,sans-Serif" font-size="14.00" fill="#000000">3</text>
<text text-anchor="start" x="136.5" y="-274.8" font-family="Helvetica,sans-Serif" font-size="14.00" fill="#000000">S → &#160;• A</text>
</g>
<!-- n0&#45;&gt;n3 -->
<g id="edge3" class="edge">
<title>n0&#45;&gt;n3</title>
<path fill="none" stroke="#000000" d="M171.0685,-533.798C170.0306,-487.6135 167.3896,-370.0871 166.1549,-315.1427"/>
<polygon fill="#000000" stroke="#000000" points="169.6515,-314.9468 165.9276,-305.028 162.6532,-315.1041 169.6515,-314.9468"/>
<text text-anchor="start" x="169.5" y="-415.8" font-family="Helvetica,sans-Serif" font-size="14.00" fill="#000000">λ</text>
</g>
<!-- n10 -->
<g id="node11" class="node">
<title>n10</title>
<polygon fill="none" stroke="#000000" points="291,-394 210,-394 210,-356 291,-356 291,-394"/>
<text text-anchor="start" x="241" y="-378.8" font-family="Helvetica,sans-Serif" font-size="14.00" fill="#000000">10</text>
<text text-anchor="start" x="218" y="-363.8" font-family="Helvetica,sans-Serif" font-size="14.00" fill="#000000">S → x • S</text>
</g>
<!-- n2&#45;&gt;n10 -->
<g id="edge4" class="edge">
<title>n2&#45;&gt;n10</title>
<path fill="none" stroke="#000000" d="M231.7609,-444.8307C225.0434,-435.2561 219.8078,-423.3234 223.5,-412 224.5354,-408.8247 225.9578,-405.6953 227.6123,-402.6824"/>
<polygon fill="#000000" stroke="#000000" points="230.6844,-404.3746 233.1176,-394.063 224.7851,-400.6067 230.6844,-404.3746"/>
<text text-anchor="middle" x="228" y="-415.8" font-family="Helvetica,sans-Serif" font-size="14.00" fill="#000000">x</text>
</g>
<!-- n4 -->
<g id="node5" class="node">
<title>n4</title>
<polygon fill="none" stroke="#000000" points="314.5,-216 240.5,-216 240.5,-178 314.5,-178 314.5,-216"/>
<text text-anchor="start" x="272.5" y="-200.8" font-family="Helvetica,sans-Serif" font-size="14.00" fill="#000000">4</text>
<text text-anchor="start" x="248.5" y="-185.8" font-family="Helvetica,sans-Serif" font-size="14.00" fill="#000000">S → A • </text>
</g>
<!-- n3&#45;&gt;n4 -->
<g id="edge5" class="edge">
<title>n3&#45;&gt;n4</title>
<path fill="none" stroke="#000000" d="M201.3392,-266.8199C210.2001,-261.4896 219.4531,-255.3952 227.5,-249 237.0551,-241.4062 246.5811,-232.0584 254.7155,-223.3925"/>
<polygon fill="#000000" stroke="#000000" points="257.2999,-225.7528 261.4714,-216.0138 252.137,-221.0257 257.2999,-225.7528"/>
<text text-anchor="middle" x="249.5" y="-237.8" font-family="Helvetica,sans-Serif" font-size="14.00" fill="#000000">A</text>
</g>
<!-- n5 -->
<g id="node6" class="node">
<title>n5</title>
<polygon fill="none" stroke="#000000" points="73,-216 0,-216 0,-178 73,-178 73,-216"/>
<text text-anchor="start" x="31.5" y="-200.8" font-family="Helvetica,sans-Serif" font-size="14.00" fill="#000000">5</text>
<text text-anchor="start" x="8" y="-185.8" font-family="Helvetica,sans-Serif" font-size="14.00" fill="#000000">A → &#160;• y</text>
</g>
<!-- n3&#45;&gt;n5 -->
<g id="edge6" class="edge">
<title>n3&#45;&gt;n5</title>
<path fill="none" stroke="#000000" d="M137.8263,-266.9073C118.6965,-253.7092 93.0673,-236.027 72.3714,-221.7485"/>
<polygon fill="#000000" stroke="#000000" points="74.3467,-218.8591 64.128,-216.0612 70.3715,-224.6209 74.3467,-218.8591"/>
<text text-anchor="start" x="109.5" y="-237.8" font-family="Helvetica,sans-Serif" font-size="14.00" fill="#000000">λ</text>
</g>
<!-- n6 -->
<g id="node7" class="node">
<title>n6</title>
<polygon fill="none" stroke="#000000" points="177.5,-216 91.5,-216 91.5,-178 177.5,-178 177.5,-216"/>
<text text-anchor="start" x="129.5" y="-200.8" font-family="Helvetica,sans-Serif" font-size="14.00" fill="#000000">6</text>
<text text-anchor="start" x="99.5" y="-185.8" font-family="Helvetica,sans-Serif" font-size="14.00" fill="#000000">A → &#160;• z S</text>
</g>
<!-- n3&#45;&gt;n6 -->
<g id="edge7" class="edge">
<title>n3&#45;&gt;n6</title>
<path fill="none" stroke="#000000" d="M158.7735,-266.6883C154.6299,-254.7924 149.2391,-239.3156 144.5906,-225.9697"/>
<polygon fill="#000000" stroke="#000000" points="147.808,-224.5662 141.2134,-216.274 141.1976,-226.8688 147.808,-224.5662"/>
<text text-anchor="start" x="152.5" y="-237.8" font-family="Helvetica,sans-Serif" font-size="14.00" fill="#000000">λ</text>
</g>
<!-- n9 -->
<g id="node10" class="node">
<title>n9</title>
<polygon fill="none" stroke="#000000" points="73,-127 0,-127 0,-89 73,-89 73,-127"/>
<text text-anchor="start" x="31.5" y="-111.8" font-family="Helvetica,sans-Serif" font-size="14.00" fill="#000000">9</text>
<text text-anchor="start" x="8" y="-96.8" font-family="Helvetica,sans-Serif" font-size="14.00" fill="#000000">A → y • </text>
</g>
<!-- n5&#45;&gt;n9 -->
<g id="edge8" class="edge">
<title>n5&#45;&gt;n9</title>
<path fill="none" stroke="#000000" d="M36.5,-177.6883C36.5,-165.909 36.5,-150.6187 36.5,-137.3628"/>
<polygon fill="#000000" stroke="#000000" points="40.0001,-137.274 36.5,-127.274 33.0001,-137.274 40.0001,-137.274"/>
<text text-anchor="middle" x="41" y="-148.8" font-family="Helvetica,sans-Serif" font-size="14.00" fill="#000000">y</text>
</g>
<!-- n7 -->
<g id="node8" class="node">
<title>n7</title>
<polygon fill="none" stroke="#000000" points="254,-127 173,-127 173,-89 254,-89 254,-127"/>
<text text-anchor="start" x="208.5" y="-111.8" font-family="Helvetica,sans-Serif" font-size="14.00" fill="#000000">7</text>
<text text-anchor="start" x="181" y="-96.8" font-family="Helvetica,sans-Serif" font-size="14.00" fill="#000000">A → z • S</text>
</g>
<!-- n6&#45;&gt;n7 -->
<g id="edge9" class="edge">
<title>n6&#45;&gt;n7</title>
<path fill="none" stroke="#000000" d="M151.6418,-177.6883C162.7188,-165.2092 177.2935,-148.7896 189.5132,-135.0231"/>
<polygon fill="#000000" stroke="#000000" points="192.3707,-137.0762 196.3916,-127.274 187.1356,-132.4293 192.3707,-137.0762"/>
<text text-anchor="middle" x="183.5" y="-148.8" font-family="Helvetica,sans-Serif" font-size="14.00" fill="#000000">z</text>
</g>
<!-- n7&#45;&gt;n2 -->
<g id="edge11" class="edge">
<title>n7&#45;&gt;n2</title>
<path fill="none" stroke="#000000" d="M254.3164,-117.7942C292.1094,-129.5838 342.5,-153.4659 342.5,-197 342.5,-375 342.5,-375 342.5,-375 342.5,-402.6439 320.7868,-424.3524 298.3438,-439.4072"/>
<polygon fill="#000000" stroke="#000000" points="296.3257,-436.5424 289.7503,-444.8499 300.0711,-442.4561 296.3257,-436.5424"/>
<text text-anchor="start" x="342.5" y="-282.3" font-family="Helvetica,sans-Serif" font-size="14.00" fill="#000000">λ</text>
</g>
<!-- n7&#45;&gt;n3 -->
<g id="edge12" class="edge">
<title>n7&#45;&gt;n3</title>
<path fill="none" stroke="#000000" d="M208.9877,-127.1889C203.831,-148.8374 195.0024,-185.0642 186.5,-216 182.796,-229.4768 178.3914,-244.3164 174.5749,-256.8507"/>
<polygon fill="#000000" stroke="#000000" points="171.1228,-256.1701 171.5357,-266.7569 177.8149,-258.2233 171.1228,-256.1701"/>
<text text-anchor="start" x="196.5" y="-193.3" font-family="Helvetica,sans-Serif" font-size="14.00" fill="#000000">λ</text>
</g>
<!-- n8 -->
<g id="node9" class="node">
<title>n8</title>
<polygon fill="none" stroke="#000000" points="256.5,-38 170.5,-38 170.5,0 256.5,0 256.5,-38"/>
<text text-anchor="start" x="208.5" y="-22.8" font-family="Helvetica,sans-Serif" font-size="14.00" fill="#000000">8</text>
<text text-anchor="start" x="178.5" y="-7.8" font-family="Helvetica,sans-Serif" font-size="14.00" fill="#000000">A → z S • </text>
</g>
<!-- n7&#45;&gt;n8 -->
<g id="edge10" class="edge">
<title>n7&#45;&gt;n8</title>
<path fill="none" stroke="#000000" d="M213.5,-88.6883C213.5,-76.909 213.5,-61.6187 213.5,-48.3628"/>
<polygon fill="#000000" stroke="#000000" points="217.0001,-48.274 213.5,-38.274 210.0001,-48.274 217.0001,-48.274"/>
<text text-anchor="middle" x="218.5" y="-59.8" font-family="Helvetica,sans-Serif" font-size="14.00" fill="#000000">S</text>
</g>
<!-- n10&#45;&gt;n2 -->
<g id="edge14" class="edge">
<title>n10&#45;&gt;n2</title>
<path fill="none" stroke="#000000" d="M250.2834,-394.274C250.1512,-406.0458 249.9794,-421.3346 249.8304,-434.5947"/>
<polygon fill="#000000" stroke="#000000" points="246.3297,-434.6496 249.717,-444.6883 253.3292,-434.7283 246.3297,-434.6496"/>
<text text-anchor="start" x="250.5" y="-415.8" font-family="Helvetica,sans-Serif" font-size="14.00" fill="#000000">λ</text>
</g>
<!-- n10&#45;&gt;n3 -->
<g id="edge15" class="edge">
<title>n10&#45;&gt;n3</title>
<path fill="none" stroke="#000000" d="M232.0563,-355.6883C220.0266,-343.0926 204.1629,-326.4824 190.9406,-312.6378"/>
<polygon fill="#000000" stroke="#000000" points="193.3456,-310.0884 183.9077,-305.274 188.2834,-314.9231 193.3456,-310.0884"/>
<text text-anchor="start" x="213.5" y="-326.8" font-family="Helvetica,sans-Serif" font-size="14.00" fill="#000000">λ</text>
</g>
<!-- n11 -->
<g id="node12" class="node">
<title>n11</title>
<polygon fill="none" stroke="#000000" points="306.5,-305 220.5,-305 220.5,-267 306.5,-267 306.5,-305"/>
<text text-anchor="start" x="254" y="-289.8" font-family="Helvetica,sans-Serif" font-size="14.00" fill="#000000">11</text>
<text text-anchor="start" x="228.5" y="-274.8" font-family="Helvetica,sans-Serif" font-size="14.00" fill="#000000">S → x S • </text>
</g>
<!-- n10&#45;&gt;n11 -->
<g id="edge13" class="edge">
<title>n10&#45;&gt;n11</title>
<path fill="none" stroke="#000000" d="M253.3208,-355.6883C255.0414,-343.909 257.2748,-328.6187 259.211,-315.3628"/>
<polygon fill="#000000" stroke="#000000" points="262.7025,-315.6749 260.6847,-305.274 255.776,-314.6631 262.7025,-315.6749"/>
<text text-anchor="middle" x="262.5" y="-326.8" font-family="Helvetica,sans-Serif" font-size="14.00" fill="#000000">S</text>
</g>
</g>
</svg>
