<?xml version="1.0" encoding="UTF-8" standalone="no"?>
<!DOCTYPE svg PUBLIC "-//W3C//DTD SVG 1.1//EN"
 "http://www.w3.org/Graphics/SVG/1.1/DTD/svg11.dtd">
<!-- Generated by graphviz version 2.40.1 (0)
 -->
<!-- Title: d Pages: 1 -->
<svg width="403pt" height="402pt"
 viewBox="0.00 0.00 403.00 402.00" xmlns="http://www.w3.org/2000/svg" xmlns:xlink="http://www.w3.org/1999/xlink">
<g id="graph0" class="graph" transform="scale(1 1) rotate(0) translate(4 398)">
<title>d</title>
<polygon fill="#ffffff" stroke="transparent" points="-4,4 -4,-398 399,-398 399,4 -4,4"/>
<!-- n0 -->
<g id="node1" class="node">
<title>n0</title>
<polygon fill="none" stroke="#000000" points="227.5,-394 150.5,-394 150.5,-356 227.5,-356 227.5,-394"/>
<text text-anchor="start" x="184" y="-378.8" font-family="Helvetica,sans-Serif" font-size="14.00" fill="#000000">0</text>
<text text-anchor="start" x="158.5" y="-363.8" font-family="Helvetica,sans-Serif" font-size="14.00" fill="#000000">S&#39; → &#160;• S</text>
</g>
<!-- n1 -->
<g id="node2" class="node">
<title>n1</title>
<polygon fill="none" stroke="#000000" points="96.5,-305 19.5,-305 19.5,-267 96.5,-267 96.5,-305"/>
<text text-anchor="start" x="53" y="-289.8" font-family="Helvetica,sans-Serif" font-size="14.00" fill="#000000">1</text>
<text text-anchor="start" x="27.5" y="-274.8" font-family="Helvetica,sans-Serif" font-size="14.00" fill="#000000">S&#39; → S • </text>
</g>
<!-- n0&#45;&gt;n1 -->
<g id="edge1" class="edge">
<title>n0&#45;&gt;n1</title>
<path fill="none" stroke="#000000" d="M160.8972,-355.9073C141.4708,-342.7092 115.4443,-325.027 94.4276,-310.7485"/>
<polygon fill="#000000" stroke="#000000" points="96.2948,-307.7858 86.0563,-305.0612 92.361,-313.5759 96.2948,-307.7858"/>
<text text-anchor="middle" x="136" y="-326.8" font-family="Helvetica,sans-Serif" font-size="14.00" fill="#000000">S</text>
</g>
<!-- n2 -->
<g id="node3" class="node">
<title>n2</title>
<polygon fill="none" stroke="#000000" points="263.5,-305 114.5,-305 114.5,-267 263.5,-267 263.5,-305"/>
<text text-anchor="start" x="184" y="-289.8" font-family="Helvetica,sans-Serif" font-size="14.00" fill="#000000">2</text>
<text text-anchor="start" x="122.5" y="-274.8" font-family="Helvetica,sans-Serif" font-size="14.00" fill="#000000">S → &#160;• stmt SEMI S</text>
</g>
<!-- n0&#45;&gt;n2 -->
<g id="edge2" class="edge">
<title>n0&#45;&gt;n2</title>
<path fill="none" stroke="#000000" d="M189,-355.6883C189,-343.909 189,-328.6187 189,-315.3628"/>
<polygon fill="#000000" stroke="#000000" points="192.5001,-315.274 189,-305.274 185.5001,-315.274 192.5001,-315.274"/>
<text text-anchor="start" x="189" y="-326.8" font-family="Helvetica,sans-Serif" font-size="14.00" fill="#000000">λ</text>
</g>
<!-- n3 -->
<g id="node4" class="node">
<title>n3</title>
<polygon fill="none" stroke="#000000" points="395,-38 331,-38 331,0 395,0 395,-38"/>
<text text-anchor="start" x="358" y="-22.8" font-family="Helvetica,sans-Serif" font-size="14.00" fill="#000000">3</text>
<text text-anchor="start" x="339" y="-7.8" font-family="Helvetica,sans-Serif" font-size="14.00" fill="#000000">S → &#160;• </text>
</g>
<!-- n0&#45;&gt;n3 -->
<g id="edge3" class="edge">
<title>n0&#45;&gt;n3</title>
<path fill="none" stroke="#000000" d="M227.6162,-372.0687C278.8781,-365.832 363,-346.3966 363,-286 363,-286 363,-286 363,-108 363,-88.0387 363,-65.5592 363,-48.1863"/>
<polygon fill="#000000" stroke="#000000" points="366.5001,-48.0973 363,-38.0973 359.5001,-48.0974 366.5001,-48.0973"/>
<text text-anchor="start" x="363" y="-193.3" font-family="Helvetica,sans-Serif" font-size="14.00" fill="#000000">λ</text>
</g>
<!-- n4 -->
<g id="node5" class="node">
<title>n4</title>
<polygon fill="none" stroke="#000000" points="327,-216 183,-216 183,-178 327,-178 327,-216"/>
<text text-anchor="start" x="250" y="-200.8" font-family="Helvetica,sans-Serif" font-size="14.00" fill="#000000">4</text>
<text text-anchor="start" x="191" y="-185.8" font-family="Helvetica,sans-Serif" font-size="14.00" fill="#000000">S → stmt • SEMI S</text>
</g>
<!-- n2&#45;&gt;n4 -->
<g id="edge4" class="edge">
<title>n2&#45;&gt;n4</title>
<path fill="none" stroke="#000000" d="M203.321,-266.6883C212.4887,-254.3258 224.5242,-238.0962 234.6737,-224.4098"/>
<polygon fill="#000000" stroke="#000000" points="237.5616,-226.3912 240.7069,-216.274 231.939,-222.2216 237.5616,-226.3912"/>
<text text-anchor="middle" x="241.5" y="-237.8" font-family="Helvetica,sans-Serif" font-size="14.00" fill="#000000">stmt</text>
</g>
<!-- n5 -->
<g id="node6" class="node">
<title>n5</title>
<polygon fill="none" stroke="#000000" points="120,-216 0,-216 0,-178 120,-178 120,-216"/>
<text text-anchor="start" x="55" y="-200.8" font-family="Helvetica,sans-Serif" font-size="14.00" fill="#000000">5</text>
<text text-anchor="start" x="8" y="-185.8" font-family="Helvetica,sans-Serif" font-size="14.00" fill="#000000">stmt → &#160;• NUM</text>
</g>
<!-- n2&#45;&gt;n5 -->
<g id="edge5" class="edge">
<title>n2&#45;&gt;n5</title>
<path fill="none" stroke="#000000" d="M159.8053,-266.9888C151.1358,-261.2685 141.6472,-254.9338 133,-249 120.5078,-240.4277 106.9581,-230.8539 94.9624,-222.2805"/>
<polygon fill="#000000" stroke="#000000" points="96.7064,-219.2244 86.5396,-216.2432 92.6283,-224.9138 96.7064,-219.2244"/>
<text text-anchor="start" x="133" y="-237.8" font-family="Helvetica,sans-Serif" font-size="14.00" fill="#000000">λ</text>
</g>
<!-- n7 -->
<g id="node8" class="node">
<title>n7</title>
<polygon fill="none" stroke="#000000" points="315,-127 171,-127 171,-89 315,-89 315,-127"/>
<text text-anchor="start" x="238" y="-111.8" font-family="Helvetica,sans-Serif" font-size="14.00" fill="#000000">7</text>
<text text-anchor="start" x="179" y="-96.8" font-family="Helvetica,sans-Serif" font-size="14.00" fill="#000000">S → stmt SEMI • S</text>
</g>
<!-- n4&#45;&gt;n7 -->
<g id="edge6" class="edge">
<title>n4&#45;&gt;n7</title>
<path fill="none" stroke="#000000" d="M252.3962,-177.6883C250.808,-165.909 248.7463,-150.6187 246.959,-137.3628"/>
<polygon fill="#000000" stroke="#000000" points="250.4037,-136.7166 245.5987,-127.274 243.4664,-137.652 250.4037,-136.7166"/>
<text text-anchor="middle" x="266.5" y="-148.8" font-family="Helvetica,sans-Serif" font-size="14.00" fill="#000000">SEMI</text>
</g>
<!-- n6 -->
<g id="node7" class="node">
<title>n6</title>
<polygon fill="none" stroke="#000000" points="120,-127 0,-127 0,-89 120,-89 120,-127"/>
<text text-anchor="start" x="55" y="-111.8" font-family="Helvetica,sans-Serif" font-size="14.00" fill="#000000">6</text>
<text text-anchor="start" x="8" y="-96.8" font-family="Helvetica,sans-Serif" font-size="14.00" fill="#000000">stmt → NUM • </text>
</g>
<!-- n5&#45;&gt;n6 -->
<g id="edge7" class="edge">
<title>n5&#45;&gt;n6</title>
<path fill="none" stroke="#000000" d="M60,-177.6883C60,-165.909 60,-150.6187 60,-137.3628"/>
<polygon fill="#000000" stroke="#000000" points="63.5001,-137.274 60,-127.274 56.5001,-137.274 63.5001,-137.274"/>
<text text-anchor="middle" x="77" y="-148.8" font-family="Helvetica,sans-Serif" font-size="14.00" fill="#000000">NUM</text>
</g>
<!-- n7&#45;&gt;n2 -->
<g id="edge9" class="edge">
<title>n7&#45;&gt;n2</title>
<path fill="none" stroke="#000000" d="M211.1177,-127.0485C193.9903,-139.2314 174.4903,-156.7314 165,-178 153.546,-203.6693 163.0305,-235.2839 173.2572,-257.658"/>
<polygon fill="#000000" stroke="#000000" points="170.2518,-259.4803 177.7807,-266.9347 176.5437,-256.4123 170.2518,-259.4803"/>
<text text-anchor="start" x="165" y="-193.3" font-family="Helvetica,sans-Serif" font-size="14.00" fill="#000000">λ</text>
</g>
<!-- n7&#45;&gt;n3 -->
<g id="edge10" class="edge">
<title>n7&#45;&gt;n3</title>
<path fill="none" stroke="#000000" d="M268.743,-88.9073C286.38,-75.8265 309.9559,-58.341 329.1168,-44.1301"/>
<polygon fill="#000000" stroke="#000000" points="331.3525,-46.8295 337.2996,-38.0612 327.1825,-41.2071 331.3525,-46.8295"/>
<text text-anchor="start" x="310" y="-59.8" font-family="Helvetica,sans-Serif" font-size="14.00" fill="#000000">λ</text>
</g>
<!-- n8 -->
<g id="node9" class="node">
<title>n8</title>
<polygon fill="none" stroke="#000000" points="312.5,-38 163.5,-38 163.5,0 312.5,0 312.5,-38"/>
<text text-anchor="start" x="233" y="-22.8" font-family="Helvetica,sans-Serif" font-size="14.00" fill="#000000">8</text>
<text text-anchor="start" x="171.5" y="-7.8" font-family="Helvetica,sans-Serif" font-size="14.00" fill="#000000">S → stmt SEMI S • </text>
</g>
<!-- n7&#45;&gt;n8 -->
<g id="edge8" class="edge">
<title>n7&#45;&gt;n8</title>
<path fill="none" stroke="#000000" d="M241.9151,-88.6883C241.2533,-76.909 240.3943,-61.6187 239.6496,-48.3628"/>
<polygon fill="#000000" stroke="#000000" points="243.1383,-48.0619 239.0828,-38.274 236.1493,-48.4546 243.1383,-48.0619"/>
<text text-anchor="middle" x="245" y="-59.8" font-family="Helvetica,sans-Serif" font-size="14.00" fill="#000000">S</text>
</g>
</g>
</svg>
