<?xml version="1.0" encoding="UTF-8" standalone="no"?>
<!DOCTYPE svg PUBLIC "-//W3C//DTD SVG 1.1//EN"
 "http://www.w3.org/Graphics/SVG/1.1/DTD/svg11.dtd">
<!-- Generated by graphviz version 2.40.1 (0)
 -->
<!-- Title: d Pages: 1 -->
<svg width="420pt" height="491pt"
 viewBox="0.00 0.00 419.50 491.00" xmlns="http://www.w3.org/2000/svg" xmlns:xlink="http://www.w3.org/1999/xlink">
<g id="graph0" class="graph" transform="scale(1 1) rotate(0) translate(4 487)">
<title>d</title>
<polygon fill="#ffffff" stroke="transparent" points="-4,4 -4,-487 415.5,-487 415.5,4 -4,4"/>
<!-- n0 -->
<g id="node1" class="node">
<title>n0</title>
<polygon fill="none" stroke="#000000" points="147,-483 34,-483 34,-445 147,-445 147,-483"/>
<text text-anchor="start" x="85.5" y="-467.8" font-family="Helvetica,sans-Serif" font-size="14.00" fill="#000000">0</text>
<text text-anchor="start" x="42" y="-452.8" font-family="Helvetica,sans-Serif" font-size="14.00" fill="#000000">S&#39; → &#160;• assign</text>
</g>
<!-- n1 -->
<g id="node2" class="node">
<title>n1</title>
<polygon fill="none" stroke="#000000" points="113,-394 0,-394 0,-356 113,-356 113,-394"/>
<text text-anchor="start" x="51.5" y="-378.8" font-family="Helvetica,sans-Serif" font-size="14.00" fill="#000000">1</text>
<text text-anchor="start" x="8" y="-363.8" font-family="Helvetica,sans-Serif" font-size="14.00" fill="#000000">S&#39; → assign • </text>
</g>
<!-- n0&#45;&gt;n1 -->
<g id="edge1" class="edge">
<title>n0&#45;&gt;n1</title>
<path fill="none" stroke="#000000" d="M83.1225,-444.6883C78.578,-432.7924 72.6655,-417.3156 67.5671,-403.9697"/>
<polygon fill="#000000" stroke="#000000" points="70.7014,-402.3665 63.8631,-394.274 64.1623,-404.8646 70.7014,-402.3665"/>
<text text-anchor="middle" x="99.5" y="-415.8" font-family="Helvetica,sans-Serif" font-size="14.00" fill="#000000">assign</text>
</g>
<!-- n2 -->
<g id="node3" class="node">
<title>n2</title>
<polygon fill="none" stroke="#000000" points="301.5,-394 131.5,-394 131.5,-356 301.5,-356 301.5,-394"/>
<text text-anchor="start" x="211.5" y="-378.8" font-family="Helvetica,sans-Serif" font-size="14.00" fill="#000000">2</text>
<text text-anchor="start" x="139.5" y="-363.8" font-family="Helvetica,sans-Serif" font-size="14.00" fill="#000000">assign → &#160;• ID = expr</text>
</g>
<!-- n0&#45;&gt;n2 -->
<g id="edge2" class="edge">
<title>n0&#45;&gt;n2</title>
<path fill="none" stroke="#000000" d="M117.5302,-444.9073C136.132,-431.7679 161.0259,-414.1841 181.193,-399.9391"/>
<polygon fill="#000000" stroke="#000000" points="183.3659,-402.6893 189.5145,-394.0612 179.3273,-396.9718 183.3659,-402.6893"/>
<text text-anchor="start" x="161.5" y="-415.8" font-family="Helvetica,sans-Serif" font-size="14.00" fill="#000000">λ</text>
</g>
<!-- n3 -->
<g id="node4" class="node">
<title>n3</title>
<polygon fill="none" stroke="#000000" points="299,-305 134,-305 134,-267 299,-267 299,-305"/>
<text text-anchor="start" x="211.5" y="-289.8" font-family="Helvetica,sans-Serif" font-size="14.00" fill="#000000">3</text>
<text text-anchor="start" x="142" y="-274.8" font-family="Helvetica,sans-Serif" font-size="14.00" fill="#000000">assign → ID • = expr</text>
</g>
<!-- n2&#45;&gt;n3 -->
<g id="edge3" class="edge">
<title>n2&#45;&gt;n3</title>
<path fill="none" stroke="#000000" d="M216.5,-355.6883C216.5,-343.909 216.5,-328.6187 216.5,-315.3628"/>
<polygon fill="#000000" stroke="#000000" points="220.0001,-315.274 216.5,-305.274 213.0001,-315.274 220.0001,-315.274"/>
<text text-anchor="middle" x="224.5" y="-326.8" font-family="Helvetica,sans-Serif" font-size="14.00" fill="#000000">ID</text>
</g>
<!-- n4 -->
<g id="node5" class="node">
<title>n4</title>
<polygon fill="none" stroke="#000000" points="299,-216 134,-216 134,-178 299,-178 299,-216"/>
<text text-anchor="start" x="211.5" y="-200.8" font-family="Helvetica,sans-Serif" font-size="14.00" fill="#000000">4</text>
<text text-anchor="start" x="142" y="-185.8" font-family="Helvetica,sans-Serif" font-size="14.00" fill="#000000">assign → ID = • expr</text>
</g>
<!-- n3&#45;&gt;n4 -->
<g id="edge4" class="edge">
<title>n3&#45;&gt;n4</title>
<path fill="none" stroke="#000000" d="M216.5,-266.6883C216.5,-254.909 216.5,-239.6187 216.5,-226.3628"/>
<polygon fill="#000000" stroke="#000000" points="220.0001,-226.274 216.5,-216.274 213.0001,-226.274 220.0001,-226.274"/>
<text text-anchor="middle" x="223" y="-237.8" font-family="Helvetica,sans-Serif" font-size="14.00" fill="#000000">=</text>
</g>
<!-- n5 -->
<g id="node6" class="node">
<title>n5</title>
<polygon fill="none" stroke="#000000" points="273.5,-127 103.5,-127 103.5,-89 273.5,-89 273.5,-127"/>
<text text-anchor="start" x="183.5" y="-111.8" font-family="Helvetica,sans-Serif" font-size="14.00" fill="#000000">5</text>
<text text-anchor="start" x="111.5" y="-96.8" font-family="Helvetica,sans-Serif" font-size="14.00" fill="#000000">assign → ID = expr • </text>
</g>
<!-- n4&#45;&gt;n5 -->
<g id="edge5" class="edge">
<title>n4&#45;&gt;n5</title>
<path fill="none" stroke="#000000" d="M210.4244,-177.6883C206.6819,-165.7924 201.8128,-150.3156 197.6141,-136.9697"/>
<polygon fill="#000000" stroke="#000000" points="200.9035,-135.7627 194.5637,-127.274 194.2262,-137.8634 200.9035,-135.7627"/>
<text text-anchor="middle" x="221" y="-148.8" font-family="Helvetica,sans-Serif" font-size="14.00" fill="#000000">expr</text>
</g>
<!-- n6 -->
<g id="node7" class="node">
<title>n6</title>
<polygon fill="none" stroke="#000000" points="411.5,-127 291.5,-127 291.5,-89 411.5,-89 411.5,-127"/>
<text text-anchor="start" x="346.5" y="-111.8" font-family="Helvetica,sans-Serif" font-size="14.00" fill="#000000">6</text>
<text text-anchor="start" x="299.5" y="-96.8" font-family="Helvetica,sans-Serif" font-size="14.00" fill="#000000">expr → &#160;• NUM</text>
</g>
<!-- n4&#45;&gt;n6 -->
<g id="edge6" class="edge">
<title>n4&#45;&gt;n6</title>
<path fill="none" stroke="#000000" d="M245.4609,-177.9073C265.4804,-164.7092 292.3017,-147.027 313.9602,-132.7485"/>
<polygon fill="#000000" stroke="#000000" points="316.1645,-135.4874 322.587,-127.0612 312.3116,-129.6432 316.1645,-135.4874"/>
<text text-anchor="start" x="291.5" y="-148.8" font-family="Helvetica,sans-Serif" font-size="14.00" fill="#000000">λ</text>
</g>
<!-- n7 -->
<g id="node8" class="node">
<title>n7</title>
<polygon fill="none" stroke="#000000" points="411.5,-38 291.5,-38 291.5,0 411.5,0 411.5,-38"/>
<text text-anchor="start" x="346.5" y="-22.8" font-family="Helvetica,sans-Serif" font-size="14.00" fill="#000000">7</text>
<text text-anchor="start" x="299.5" y="-7.8" font-family="Helvetica,sans-Serif" font-size="14.00" fill="#000000">expr → NUM • </text>
</g>
<!-- n6&#45;&gt;n7 -->
<g id="edge7" class="edge">
<title>n6&#45;&gt;n7</title>
<path fill="none" stroke="#000000" d="M351.5,-88.6883C351.5,-76.909 351.5,-61.6187 351.5,-48.3628"/>
<polygon fill="#000000" stroke="#000000" points="355.0001,-48.274 351.5,-38.274 348.0001,-48.274 355.0001,-48.274"/>
<text text-anchor="middle" x="368.5" y="-59.8" font-family="Helvetica,sans-Serif" font-size="14.00" fill="#000000">NUM</text>
</g>
</g>
</svg>
