<?xml version="1.0" encoding="UTF-8" standalone="no"?>
<!DOCTYPE svg PUBLIC "-//W3C//DTD SVG 1.1//EN"
 "http://www.w3.org/Graphics/SVG/1.1/DTD/svg11.dtd">
<!-- Generated by graphviz version 2.40.1 (0)
 -->
<!-- Title: d Pages: 1 -->
<svg width="424pt" height="343pt"
 viewBox="0.00 0.00 423.50 343.00" xmlns="http://www.w3.org/2000/svg" xmlns:xlink="http://www.w3.org/1999/xlink">
<g id="graph0" class="graph" transform="scale(1 1) rotate(0) translate(4 339)">
<title>d</title>
<polygon fill="#ffffff" stroke="transparent" points="-4,4 -4,-339 419.5,-339 419.5,4 -4,4"/>
<!-- n0 -->
<g id="node1" class="node">
<title>n0</title>
<polygon fill="none" stroke="#000000" points="227.5,-335 33.5,-335 33.5,-282 227.5,-282 227.5,-335"/>
<text text-anchor="start" x="125.5" y="-319.8" font-family="Helvetica,sans-Serif" font-size="14.00" fill="#000000">0</text>
<text text-anchor="start" x="70" y="-304.8" font-family="Helvetica,sans-Serif" font-size="14.00" fill="#000000">S&#39; → &#160;• assign [0]</text>
<text text-anchor="start" x="41.5" y="-289.8" font-family="Helvetica,sans-Serif" font-size="14.00" fill="#000000">assign → &#160;• ID = expr [2]</text>
</g>
<!-- n1 -->
<g id="node2" class="node">
<title>n1</title>
<polygon fill="none" stroke="#000000" points="137,-231 0,-231 0,-193 137,-193 137,-231"/>
<text text-anchor="start" x="63.5" y="-215.8" font-family="Helvetica,sans-Serif" font-size="14.00" fill="#000000">1</text>
<text text-anchor="start" x="8" y="-200.8" font-family="Helvetica,sans-Serif" font-size="14.00" fill="#000000">S&#39; → assign • &#160;[1]</text>
</g>
<!-- n0&#45;&gt;n1 -->
<g id="edge1" class="edge">
<title>n0&#45;&gt;n1</title>
<path fill="none" stroke="#000000" d="M113.3941,-281.8755C105.0068,-268.8211 94.9087,-253.1038 86.4154,-239.8845"/>
<polygon fill="#000000" stroke="#000000" points="89.1827,-237.7164 80.8326,-231.1951 83.2934,-241.5002 89.1827,-237.7164"/>
<text text-anchor="middle" x="124.5" y="-252.8" font-family="Helvetica,sans-Serif" font-size="14.00" fill="#000000">assign</text>
</g>
<!-- n2 -->
<g id="node3" class="node">
<title>n2</title>
<polygon fill="none" stroke="#000000" points="344,-231 155,-231 155,-193 344,-193 344,-231"/>
<text text-anchor="start" x="244.5" y="-215.8" font-family="Helvetica,sans-Serif" font-size="14.00" fill="#000000">2</text>
<text text-anchor="start" x="163" y="-200.8" font-family="Helvetica,sans-Serif" font-size="14.00" fill="#000000">assign → ID • = expr [3]</text>
</g>
<!-- n0&#45;&gt;n2 -->
<g id="edge2" class="edge">
<title>n0&#45;&gt;n2</title>
<path fill="none" stroke="#000000" d="M163.3323,-281.8755C180.3592,-268.068 201.0597,-251.2814 217.9034,-237.6224"/>
<polygon fill="#000000" stroke="#000000" points="220.2667,-240.2122 225.8293,-231.1951 215.8577,-234.7752 220.2667,-240.2122"/>
<text text-anchor="middle" x="208.5" y="-252.8" font-family="Helvetica,sans-Serif" font-size="14.00" fill="#000000">ID</text>
</g>
<!-- n3 -->
<g id="node4" class="node">
<title>n3</title>
<polygon fill="none" stroke="#000000" points="344,-142 155,-142 155,-89 344,-89 344,-142"/>
<text text-anchor="start" x="244.5" y="-126.8" font-family="Helvetica,sans-Serif" font-size="14.00" fill="#000000">3</text>
<text text-anchor="start" x="163" y="-111.8" font-family="Helvetica,sans-Serif" font-size="14.00" fill="#000000">assign → ID = • expr [4]</text>
<text text-anchor="start" x="185.5" y="-96.8" font-family="Helvetica,sans-Serif" font-size="14.00" fill="#000000">expr → &#160;• NUM [6]</text>
</g>
<!-- n2&#45;&gt;n3 -->
<g id="edge3" class="edge">
<title>n2&#45;&gt;n3</title>
<path fill="none" stroke="#000000" d="M249.5,-192.9347C249.5,-181.3793 249.5,-166.2466 249.5,-152.4272"/>
<polygon fill="#000000" stroke="#000000" points="253.0001,-152.1964 249.5,-142.1965 246.0001,-152.1965 253.0001,-152.1964"/>
<text text-anchor="middle" x="256" y="-163.8" font-family="Helvetica,sans-Serif" font-size="14.00" fill="#000000">=</text>
</g>
<!-- n4 -->
<g id="node5" class="node">
<title>n4</title>
<polygon fill="none" stroke="#000000" points="253.5,-38 59.5,-38 59.5,0 253.5,0 253.5,-38"/>
<text text-anchor="start" x="151.5" y="-22.8" font-family="Helvetica,sans-Serif" font-size="14.00" fill="#000000">4</text>
<text text-anchor="start" x="67.5" y="-7.8" font-family="Helvetica,sans-Serif" font-size="14.00" fill="#000000">assign → ID = expr • &#160;[5]</text>
</g>
<!-- n3&#45;&gt;n4 -->
<g id="edge4" class="edge">
<title>n3&#45;&gt;n4</title>
<path fill="none" stroke="#000000" d="M223.8412,-88.8755C210.8973,-75.4446 195.237,-59.1949 182.2768,-45.7469"/>
<polygon fill="#000000" stroke="#000000" points="184.4584,-42.9668 174.9989,-38.1951 179.4181,-47.8243 184.4584,-42.9668"/>
<text text-anchor="middle" x="222" y="-59.8" font-family="Helvetica,sans-Serif" font-size="14.00" fill="#000000">expr</text>
</g>
<!-- n5 -->
<g id="node6" class="node">
<title>n5</title>
<polygon fill="none" stroke="#000000" points="415.5,-38 271.5,-38 271.5,0 415.5,0 415.5,-38"/>
<text text-anchor="start" x="338.5" y="-22.8" font-family="Helvetica,sans-Serif" font-size="14.00" fill="#000000">5</text>
<text text-anchor="start" x="279.5" y="-7.8" font-family="Helvetica,sans-Serif" font-size="14.00" fill="#000000">expr → NUM • &#160;[7]</text>
</g>
<!-- n3&#45;&gt;n5 -->
<g id="edge5" class="edge">
<title>n3&#45;&gt;n5</title>
<path fill="none" stroke="#000000" d="M275.4347,-88.8755C288.64,-75.319 304.6426,-58.8909 317.8126,-45.3705"/>
<polygon fill="#000000" stroke="#000000" points="320.3316,-47.8006 324.8022,-38.1951 315.3173,-42.9162 320.3316,-47.8006"/>
<text text-anchor="middle" x="321.5" y="-59.8" font-family="Helvetica,sans-Serif" font-size="14.00" fill="#000000">NUM</text>
</g>
</g>
</svg>
