<?xml version="1.0" encoding="UTF-8" standalone="no"?>
<!DOCTYPE svg PUBLIC "-//W3C//DTD SVG 1.1//EN"
 "http://www.w3.org/Graphics/SVG/1.1/DTD/svg11.dtd">
<!-- Generated by graphviz version 2.40.1 (0)
 -->
<!-- Title: d Pages: 1 -->
<svg width="715pt" height="671pt"
 viewBox="0.00 0.00 715.00 671.00" xmlns="http://www.w3.org/2000/svg" xmlns:xlink="http://www.w3.org/1999/xlink">
<g id="graph0" class="graph" transform="scale(1 1) rotate(0) translate(4 667)">
<title>d</title>
<polygon fill="#ffffff" stroke="transparent" points="-4,4 -4,-667 711,-667 711,4 -4,4"/>
<!-- n0 -->
<g id="node1" class="node">
<title>n0</title>
<polygon fill="none" stroke="#000000" points="648.5,-663 442.5,-663 442.5,-565 648.5,-565 648.5,-663"/>
<text text-anchor="start" x="540.5" y="-647.8" font-family="Helvetica,sans-Serif" font-size="14.00" fill="#000000">0</text>
<text text-anchor="start" x="491.5" y="-632.8" font-family="Helvetica,sans-Serif" font-size="14.00" fill="#000000">S&#39; → &#160;• expr [0]</text>
<text text-anchor="start" x="450.5" y="-617.8" font-family="Helvetica,sans-Serif" font-size="14.00" fill="#000000">expr → &#160;• expr + factor [2]</text>
<text text-anchor="start" x="477" y="-602.8" font-family="Helvetica,sans-Serif" font-size="14.00" fill="#000000">expr → &#160;• factor [3]</text>
<text text-anchor="start" x="467" y="-587.8" font-family="Helvetica,sans-Serif" font-size="14.00" fill="#000000">factor → &#160;• ( expr ) [6]</text>
<text text-anchor="start" x="485" y="-572.8" font-family="Helvetica,sans-Serif" font-size="14.00" fill="#000000">factor → &#160;• ID [5]</text>
</g>
<!-- n1 -->
<g id="node2" class="node">
<title>n1</title>
<polygon fill="none" stroke="#000000" points="439,-514 228,-514 228,-461 439,-461 439,-514"/>
<text text-anchor="start" x="328.5" y="-498.8" font-family="Helvetica,sans-Serif" font-size="14.00" fill="#000000">1</text>
<text text-anchor="start" x="279.5" y="-483.8" font-family="Helvetica,sans-Serif" font-size="14.00" fill="#000000">S&#39; → expr • &#160;[1]</text>
<text text-anchor="start" x="236" y="-468.8" font-family="Helvetica,sans-Serif" font-size="14.00" fill="#000000">expr → expr • + factor [11]</text>
</g>
<!-- n0&#45;&gt;n1 -->
<g id="edge1" class="edge">
<title>n0&#45;&gt;n1</title>
<path fill="none" stroke="#000000" d="M452.1693,-564.8665C441.7379,-558.9927 431.3347,-552.9617 421.5,-547 407.6574,-538.6088 392.9621,-528.977 379.6261,-519.9419"/>
<polygon fill="#000000" stroke="#000000" points="381.314,-516.8564 371.0814,-514.1097 377.3677,-522.6381 381.314,-516.8564"/>
<text text-anchor="middle" x="438" y="-535.8" font-family="Helvetica,sans-Serif" font-size="14.00" fill="#000000">expr</text>
</g>
<!-- n2 -->
<g id="node3" class="node">
<title>n2</title>
<polygon fill="none" stroke="#000000" points="707,-134.5 554,-134.5 554,-96.5 707,-96.5 707,-134.5"/>
<text text-anchor="start" x="625.5" y="-119.3" font-family="Helvetica,sans-Serif" font-size="14.00" fill="#000000">2</text>
<text text-anchor="start" x="562" y="-104.3" font-family="Helvetica,sans-Serif" font-size="14.00" fill="#000000">expr → factor • &#160;[4]</text>
</g>
<!-- n0&#45;&gt;n2 -->
<g id="edge2" class="edge">
<title>n0&#45;&gt;n2</title>
<path fill="none" stroke="#000000" d="M607.9173,-564.7503C627.6864,-543.5775 644.5,-516.9217 644.5,-487.5 644.5,-487.5 644.5,-487.5 644.5,-242 644.5,-208.5523 639.605,-170.4303 635.6038,-144.8566"/>
<polygon fill="#000000" stroke="#000000" points="639.0151,-144.0265 633.9607,-134.715 632.1052,-145.1461 639.0151,-144.0265"/>
<text text-anchor="middle" x="666" y="-372.3" font-family="Helvetica,sans-Serif" font-size="14.00" fill="#000000">factor</text>
</g>
<!-- n3 -->
<g id="node4" class="node">
<title>n3</title>
<polygon fill="none" stroke="#000000" points="521.5,-134.5 375.5,-134.5 375.5,-96.5 521.5,-96.5 521.5,-134.5"/>
<text text-anchor="start" x="443.5" y="-119.3" font-family="Helvetica,sans-Serif" font-size="14.00" fill="#000000">3</text>
<text text-anchor="start" x="383.5" y="-104.3" font-family="Helvetica,sans-Serif" font-size="14.00" fill="#000000">factor → ID • &#160;[10]</text>
</g>
<!-- n0&#45;&gt;n3 -->
<g id="edge3" class="edge">
<title>n0&#45;&gt;n3</title>
<path fill="none" stroke="#000000" d="M572.9761,-564.7665C583.2613,-541.9696 592.5,-514.0915 592.5,-487.5 592.5,-487.5 592.5,-487.5 592.5,-242 592.5,-205.0282 602.4603,-188.157 578.5,-160 574.2661,-155.0245 549.851,-146.1586 523.3017,-137.643"/>
<polygon fill="#000000" stroke="#000000" points="524.0472,-134.208 513.4573,-134.5294 521.9363,-140.8821 524.0472,-134.208"/>
<text text-anchor="middle" x="600.5" y="-372.3" font-family="Helvetica,sans-Serif" font-size="14.00" fill="#000000">ID</text>
</g>
<!-- n4 -->
<g id="node5" class="node">
<title>n4</title>
<polygon fill="none" stroke="#000000" points="540.5,-291 334.5,-291 334.5,-193 540.5,-193 540.5,-291"/>
<text text-anchor="start" x="432.5" y="-275.8" font-family="Helvetica,sans-Serif" font-size="14.00" fill="#000000">4</text>
<text text-anchor="start" x="342.5" y="-260.8" font-family="Helvetica,sans-Serif" font-size="14.00" fill="#000000">expr → &#160;• expr + factor [2]</text>
<text text-anchor="start" x="369" y="-245.8" font-family="Helvetica,sans-Serif" font-size="14.00" fill="#000000">expr → &#160;• factor [3]</text>
<text text-anchor="start" x="359" y="-230.8" font-family="Helvetica,sans-Serif" font-size="14.00" fill="#000000">factor → &#160;• ( expr ) [6]</text>
<text text-anchor="start" x="377" y="-215.8" font-family="Helvetica,sans-Serif" font-size="14.00" fill="#000000">factor → &#160;• ID [5]</text>
<text text-anchor="start" x="361.5" y="-200.8" font-family="Helvetica,sans-Serif" font-size="14.00" fill="#000000">factor → ( • expr ) [7]</text>
</g>
<!-- n0&#45;&gt;n4 -->
<g id="edge4" class="edge">
<title>n0&#45;&gt;n4</title>
<path fill="none" stroke="#000000" d="M531.2698,-564.985C511.5211,-496.9616 475.848,-374.0875 454.6531,-301.083"/>
<polygon fill="#000000" stroke="#000000" points="457.9111,-299.7512 451.7617,-291.1236 451.1886,-301.7029 457.9111,-299.7512"/>
<text text-anchor="middle" x="497.5" y="-431.8" font-family="Helvetica,sans-Serif" font-size="14.00" fill="#000000">(</text>
</g>
<!-- n7 -->
<g id="node8" class="node">
<title>n7</title>
<polygon fill="none" stroke="#000000" points="406,-410 195,-410 195,-342 406,-342 406,-410"/>
<text text-anchor="start" x="295.5" y="-394.8" font-family="Helvetica,sans-Serif" font-size="14.00" fill="#000000">7</text>
<text text-anchor="start" x="203" y="-379.8" font-family="Helvetica,sans-Serif" font-size="14.00" fill="#000000">expr → expr + • factor [12]</text>
<text text-anchor="start" x="222" y="-364.8" font-family="Helvetica,sans-Serif" font-size="14.00" fill="#000000">factor → &#160;• ( expr ) [6]</text>
<text text-anchor="start" x="240" y="-349.8" font-family="Helvetica,sans-Serif" font-size="14.00" fill="#000000">factor → &#160;• ID [5]</text>
</g>
<!-- n1&#45;&gt;n7 -->
<g id="edge5" class="edge">
<title>n1&#45;&gt;n7</title>
<path fill="none" stroke="#000000" d="M325.5957,-460.793C321.9746,-448.558 317.5871,-433.7338 313.5,-419.9244"/>
<polygon fill="#000000" stroke="#000000" points="316.7865,-418.6954 310.5923,-410.0999 310.0743,-420.682 316.7865,-418.6954"/>
<text text-anchor="middle" x="326" y="-431.8" font-family="Helvetica,sans-Serif" font-size="14.00" fill="#000000">+</text>
</g>
<!-- n4&#45;&gt;n2 -->
<g id="edge7" class="edge">
<title>n4&#45;&gt;n2</title>
<path fill="none" stroke="#000000" d="M512.3951,-192.9107C540.0181,-174.8055 570.1307,-155.0685 593.0362,-140.0553"/>
<polygon fill="#000000" stroke="#000000" points="594.997,-142.955 601.4419,-134.5458 591.1597,-137.1005 594.997,-142.955"/>
<text text-anchor="middle" x="584" y="-163.8" font-family="Helvetica,sans-Serif" font-size="14.00" fill="#000000">factor</text>
</g>
<!-- n4&#45;&gt;n3 -->
<g id="edge8" class="edge">
<title>n4&#45;&gt;n3</title>
<path fill="none" stroke="#000000" d="M441.7844,-192.7296C443.1881,-176.5873 444.7029,-159.1662 445.938,-144.9628"/>
<polygon fill="#000000" stroke="#000000" points="449.4419,-145.0686 446.8215,-134.803 442.4683,-144.4621 449.4419,-145.0686"/>
<text text-anchor="middle" x="452.5" y="-163.8" font-family="Helvetica,sans-Serif" font-size="14.00" fill="#000000">ID</text>
</g>
<!-- n4&#45;&gt;n4 -->
<g id="edge9" class="edge">
<title>n4&#45;&gt;n4</title>
<path fill="none" stroke="#000000" d="M540.7716,-253.4962C551.5763,-251.252 558.5,-247.4199 558.5,-242 558.5,-238.4432 555.5182,-235.5702 550.4146,-233.381"/>
<polygon fill="#000000" stroke="#000000" points="551.3549,-230.0092 540.7716,-230.5038 549.3534,-236.717 551.3549,-230.0092"/>
<text text-anchor="middle" x="561.5" y="-238.3" font-family="Helvetica,sans-Serif" font-size="14.00" fill="#000000">(</text>
</g>
<!-- n5 -->
<g id="node6" class="node">
<title>n5</title>
<polygon fill="none" stroke="#000000" points="357,-142 146,-142 146,-89 357,-89 357,-142"/>
<text text-anchor="start" x="246.5" y="-126.8" font-family="Helvetica,sans-Serif" font-size="14.00" fill="#000000">5</text>
<text text-anchor="start" x="154" y="-111.8" font-family="Helvetica,sans-Serif" font-size="14.00" fill="#000000">expr → expr • + factor [11]</text>
<text text-anchor="start" x="175.5" y="-96.8" font-family="Helvetica,sans-Serif" font-size="14.00" fill="#000000">factor → ( expr • ) [8]</text>
</g>
<!-- n4&#45;&gt;n5 -->
<g id="edge6" class="edge">
<title>n4&#45;&gt;n5</title>
<path fill="none" stroke="#000000" d="M365.3213,-192.9107C343.0728,-177.7794 319.1485,-161.5083 299.0034,-147.8074"/>
<polygon fill="#000000" stroke="#000000" points="300.8542,-144.8334 290.617,-142.1038 296.9176,-150.6216 300.8542,-144.8334"/>
<text text-anchor="middle" x="355" y="-163.8" font-family="Helvetica,sans-Serif" font-size="14.00" fill="#000000">expr</text>
</g>
<!-- n6 -->
<g id="node7" class="node">
<title>n6</title>
<polygon fill="none" stroke="#000000" points="338,-38 165,-38 165,0 338,0 338,-38"/>
<text text-anchor="start" x="246.5" y="-22.8" font-family="Helvetica,sans-Serif" font-size="14.00" fill="#000000">6</text>
<text text-anchor="start" x="173" y="-7.8" font-family="Helvetica,sans-Serif" font-size="14.00" fill="#000000">factor → ( expr ) • &#160;[9]</text>
</g>
<!-- n5&#45;&gt;n6 -->
<g id="edge10" class="edge">
<title>n5&#45;&gt;n6</title>
<path fill="none" stroke="#000000" d="M251.5,-88.8755C251.5,-76.3232 251.5,-61.3089 251.5,-48.4206"/>
<polygon fill="#000000" stroke="#000000" points="255.0001,-48.1951 251.5,-38.1951 248.0001,-48.1951 255.0001,-48.1951"/>
<text text-anchor="middle" x="254.5" y="-59.8" font-family="Helvetica,sans-Serif" font-size="14.00" fill="#000000">)</text>
</g>
<!-- n5&#45;&gt;n7 -->
<g id="edge11" class="edge">
<title>n5&#45;&gt;n7</title>
<path fill="none" stroke="#000000" d="M251.0757,-142.0639C251.0957,-176.7896 253.111,-239.2791 265.5,-291 268.8206,-304.8625 274.0847,-319.3991 279.5321,-332.4519"/>
<polygon fill="#000000" stroke="#000000" points="276.3309,-333.8676 283.5057,-341.6632 282.7583,-331.0948 276.3309,-333.8676"/>
<text text-anchor="middle" x="272" y="-238.3" font-family="Helvetica,sans-Serif" font-size="14.00" fill="#000000">+</text>
</g>
<!-- n7&#45;&gt;n3 -->
<g id="edge13" class="edge">
<title>n7&#45;&gt;n3</title>
<path fill="none" stroke="#000000" d="M297.9902,-341.9421C294.7782,-288.0921 292.0391,-186.652 314.5,-160 315.1223,-159.2616 347.6222,-148.4606 380.4553,-137.6859"/>
<polygon fill="#000000" stroke="#000000" points="381.7454,-140.9464 390.1578,-134.5056 379.565,-134.2946 381.7454,-140.9464"/>
<text text-anchor="middle" x="309.5" y="-238.3" font-family="Helvetica,sans-Serif" font-size="14.00" fill="#000000">ID</text>
</g>
<!-- n7&#45;&gt;n4 -->
<g id="edge14" class="edge">
<title>n7&#45;&gt;n4</title>
<path fill="none" stroke="#000000" d="M335.4254,-341.8394C348.9829,-328.5788 364.8717,-313.0379 380.0218,-298.2196"/>
<polygon fill="#000000" stroke="#000000" points="382.6847,-300.5108 387.3863,-291.0163 377.79,-295.5066 382.6847,-300.5108"/>
<text text-anchor="middle" x="371.5" y="-312.8" font-family="Helvetica,sans-Serif" font-size="14.00" fill="#000000">(</text>
</g>
<!-- n8 -->
<g id="node9" class="node">
<title>n8</title>
<polygon fill="none" stroke="#000000" points="215,-261 0,-261 0,-223 215,-223 215,-261"/>
<text text-anchor="start" x="102.5" y="-245.8" font-family="Helvetica,sans-Serif" font-size="14.00" fill="#000000">8</text>
<text text-anchor="start" x="8" y="-230.8" font-family="Helvetica,sans-Serif" font-size="14.00" fill="#000000">expr → expr + factor • &#160;[13]</text>
</g>
<!-- n7&#45;&gt;n8 -->
<g id="edge12" class="edge">
<title>n7&#45;&gt;n8</title>
<path fill="none" stroke="#000000" d="M223.9337,-341.8924C213.7593,-336.3728 203.6824,-330.3625 194.5,-324 171.4203,-308.0081 148.4384,-286.0191 131.8958,-268.8371"/>
<polygon fill="#000000" stroke="#000000" points="134.1905,-266.1702 124.7711,-261.3198 129.1098,-270.9855 134.1905,-266.1702"/>
<text text-anchor="middle" x="216" y="-312.8" font-family="Helvetica,sans-Serif" font-size="14.00" fill="#000000">factor</text>
</g>
</g>
</svg>
