<?xml version="1.0" encoding="UTF-8" standalone="no"?>
<!DOCTYPE svg PUBLIC "-//W3C//DTD SVG 1.1//EN"
 "http://www.w3.org/Graphics/SVG/1.1/DTD/svg11.dtd">
<!-- Generated by graphviz version 2.40.1 (0)
 -->
<!-- Title: d Pages: 1 -->
<svg width="280pt" height="402pt"
 viewBox="0.00 0.00 279.50 402.00" xmlns="http://www.w3.org/2000/svg" xmlns:xlink="http://www.w3.org/1999/xlink">
<g id="graph0" class="graph" transform="scale(1 1) rotate(0) translate(4 398)">
<title>d</title>
<polygon fill="#ffffff" stroke="transparent" points="-4,4 -4,-398 275.5,-398 275.5,4 -4,4"/>
<!-- n0 -->
<g id="node1" class="node">
<title>n0</title>
<polygon fill="none" stroke="#000000" points="192,-394 115,-394 115,-356 192,-356 192,-394"/>
<text text-anchor="start" x="148.5" y="-378.8" font-family="Helvetica,sans-Serif" font-size="14.00" fill="#000000">0</text>
<text text-anchor="start" x="123" y="-363.8" font-family="Helvetica,sans-Serif" font-size="14.00" fill="#000000">S&#39; → &#160;• S</text>
</g>
<!-- n1 -->
<g id="node2" class="node">
<title>n1</title>
<polygon fill="none" stroke="#000000" points="77,-305 0,-305 0,-267 77,-267 77,-305"/>
<text text-anchor="start" x="33.5" y="-289.8" font-family="Helvetica,sans-Serif" font-size="14.00" fill="#000000">1</text>
<text text-anchor="start" x="8" y="-274.8" font-family="Helvetica,sans-Serif" font-size="14.00" fill="#000000">S&#39; → S • </text>
</g>
<!-- n0&#45;&gt;n1 -->
<g id="edge1" class="edge">
<title>n0&#45;&gt;n1</title>
<path fill="none" stroke="#000000" d="M128.8296,-355.9073C112.0033,-342.8852 89.5364,-325.4977 71.2187,-311.3214"/>
<polygon fill="#000000" stroke="#000000" points="73.18,-308.4136 63.1296,-305.0612 68.8958,-313.9495 73.18,-308.4136"/>
<text text-anchor="middle" x="108.5" y="-326.8" font-family="Helvetica,sans-Serif" font-size="14.00" fill="#000000">S</text>
</g>
<!-- n2 -->
<g id="node3" class="node">
<title>n2</title>
<polygon fill="none" stroke="#000000" points="211.5,-305 95.5,-305 95.5,-267 211.5,-267 211.5,-305"/>
<text text-anchor="start" x="148.5" y="-289.8" font-family="Helvetica,sans-Serif" font-size="14.00" fill="#000000">2</text>
<text text-anchor="start" x="103.5" y="-274.8" font-family="Helvetica,sans-Serif" font-size="14.00" fill="#000000">S → &#160;• LP S RP</text>
</g>
<!-- n0&#45;&gt;n2 -->
<g id="edge2" class="edge">
<title>n0&#45;&gt;n2</title>
<path fill="none" stroke="#000000" d="M153.5,-355.6883C153.5,-343.909 153.5,-328.6187 153.5,-315.3628"/>
<polygon fill="#000000" stroke="#000000" points="157.0001,-315.274 153.5,-305.274 150.0001,-315.274 157.0001,-315.274"/>
<text text-anchor="start" x="153.5" y="-326.8" font-family="Helvetica,sans-Serif" font-size="14.00" fill="#000000">λ</text>
</g>
<!-- n3 -->
<g id="node4" class="node">
<title>n3</title>
<polygon fill="none" stroke="#000000" points="271.5,-127 207.5,-127 207.5,-89 271.5,-89 271.5,-127"/>
<text text-anchor="start" x="234.5" y="-111.8" font-family="Helvetica,sans-Serif" font-size="14.00" fill="#000000">3</text>
<text text-anchor="start" x="215.5" y="-96.8" font-family="Helvetica,sans-Serif" font-size="14.00" fill="#000000">S → &#160;• </text>
</g>
<!-- n0&#45;&gt;n3 -->
<g id="edge3" class="edge">
<title>n0&#45;&gt;n3</title>
<path fill="none" stroke="#000000" d="M178.9172,-355.8479C193.7226,-343.1657 211.2467,-325.1857 220.5,-305 245.7479,-249.923 245.2287,-177.2542 242.4605,-137.3592"/>
<polygon fill="#000000" stroke="#000000" points="245.9386,-136.9439 241.6605,-127.2512 238.9605,-137.4962 245.9386,-136.9439"/>
<text text-anchor="start" x="239.5" y="-237.8" font-family="Helvetica,sans-Serif" font-size="14.00" fill="#000000">λ</text>
</g>
<!-- n4 -->
<g id="node5" class="node">
<title>n4</title>
<polygon fill="none" stroke="#000000" points="204.5,-216 92.5,-216 92.5,-178 204.5,-178 204.5,-216"/>
<text text-anchor="start" x="143.5" y="-200.8" font-family="Helvetica,sans-Serif" font-size="14.00" fill="#000000">4</text>
<text text-anchor="start" x="100.5" y="-185.8" font-family="Helvetica,sans-Serif" font-size="14.00" fill="#000000">S → LP • S RP</text>
</g>
<!-- n2&#45;&gt;n4 -->
<g id="edge4" class="edge">
<title>n2&#45;&gt;n4</title>
<path fill="none" stroke="#000000" d="M152.4151,-266.6883C151.7533,-254.909 150.8943,-239.6187 150.1496,-226.3628"/>
<polygon fill="#000000" stroke="#000000" points="153.6383,-226.0619 149.5828,-216.274 146.6493,-226.4546 153.6383,-226.0619"/>
<text text-anchor="middle" x="159" y="-237.8" font-family="Helvetica,sans-Serif" font-size="14.00" fill="#000000">LP</text>
</g>
<!-- n4&#45;&gt;n2 -->
<g id="edge6" class="edge">
<title>n4&#45;&gt;n2</title>
<path fill="none" stroke="#000000" d="M140.585,-216.2535C137.5327,-226.0532 135.2559,-238.1567 137.5,-249 138.0851,-251.827 138.897,-254.7036 139.8475,-257.5404"/>
<polygon fill="#000000" stroke="#000000" points="136.6008,-258.8485 143.4846,-266.9022 143.1256,-256.3135 136.6008,-258.8485"/>
<text text-anchor="start" x="137.5" y="-237.8" font-family="Helvetica,sans-Serif" font-size="14.00" fill="#000000">λ</text>
</g>
<!-- n4&#45;&gt;n3 -->
<g id="edge7" class="edge">
<title>n4&#45;&gt;n3</title>
<path fill="none" stroke="#000000" d="M168.2456,-177.6883C181.1244,-165.0926 198.1079,-148.4824 212.2636,-134.6378"/>
<polygon fill="#000000" stroke="#000000" points="215.0909,-136.7683 219.7929,-127.274 210.1964,-131.7639 215.0909,-136.7683"/>
<text text-anchor="start" x="198.5" y="-148.8" font-family="Helvetica,sans-Serif" font-size="14.00" fill="#000000">λ</text>
</g>
<!-- n5 -->
<g id="node6" class="node">
<title>n5</title>
<polygon fill="none" stroke="#000000" points="189.5,-127 77.5,-127 77.5,-89 189.5,-89 189.5,-127"/>
<text text-anchor="start" x="128.5" y="-111.8" font-family="Helvetica,sans-Serif" font-size="14.00" fill="#000000">5</text>
<text text-anchor="start" x="85.5" y="-96.8" font-family="Helvetica,sans-Serif" font-size="14.00" fill="#000000">S → LP S • RP</text>
</g>
<!-- n4&#45;&gt;n5 -->
<g id="edge5" class="edge">
<title>n4&#45;&gt;n5</title>
<path fill="none" stroke="#000000" d="M145.2452,-177.6883C143.2599,-165.909 140.6829,-150.6187 138.4488,-137.3628"/>
<polygon fill="#000000" stroke="#000000" points="141.8618,-136.5532 136.7484,-127.274 134.9591,-137.7166 141.8618,-136.5532"/>
<text text-anchor="middle" x="146.5" y="-148.8" font-family="Helvetica,sans-Serif" font-size="14.00" fill="#000000">S</text>
</g>
<!-- n6 -->
<g id="node7" class="node">
<title>n6</title>
<polygon fill="none" stroke="#000000" points="191.5,-38 75.5,-38 75.5,0 191.5,0 191.5,-38"/>
<text text-anchor="start" x="128.5" y="-22.8" font-family="Helvetica,sans-Serif" font-size="14.00" fill="#000000">6</text>
<text text-anchor="start" x="83.5" y="-7.8" font-family="Helvetica,sans-Serif" font-size="14.00" fill="#000000">S → LP S RP • </text>
</g>
<!-- n5&#45;&gt;n6 -->
<g id="edge8" class="edge">
<title>n5&#45;&gt;n6</title>
<path fill="none" stroke="#000000" d="M133.5,-88.6883C133.5,-76.909 133.5,-61.6187 133.5,-48.3628"/>
<polygon fill="#000000" stroke="#000000" points="137.0001,-48.274 133.5,-38.274 130.0001,-48.274 137.0001,-48.274"/>
<text text-anchor="middle" x="143" y="-59.8" font-family="Helvetica,sans-Serif" font-size="14.00" fill="#000000">RP</text>
</g>
</g>
</svg>
