<?xml version="1.0" encoding="UTF-8" standalone="no"?>
<!DOCTYPE svg PUBLIC "-//W3C//DTD SVG 1.1//EN"
 "http://www.w3.org/Graphics/SVG/1.1/DTD/svg11.dtd">
<!-- Generated by graphviz version 2.40.1 (0)
 -->
<!-- Title: d Pages: 1 -->
<svg width="306pt" height="373pt"
 viewBox="0.00 0.00 306.00 373.00" xmlns="http://www.w3.org/2000/svg" xmlns:xlink="http://www.w3.org/1999/xlink">
<g id="graph0" class="graph" transform="scale(1 1) rotate(0) translate(4 369)">
<title>d</title>
<polygon fill="#ffffff" stroke="transparent" points="-4,4 -4,-369 302,-369 302,4 -4,4"/>
<!-- n0 -->
<g id="node1" class="node">
<title>n0</title>
<polygon fill="none" stroke="#000000" points="140,-365 0,-365 0,-297 140,-297 140,-365"/>
<text text-anchor="start" x="65" y="-349.8" font-family="Helvetica,sans-Serif" font-size="14.00" fill="#000000">0</text>
<text text-anchor="start" x="34" y="-334.8" font-family="Helvetica,sans-Serif" font-size="14.00" fill="#000000">S → &#160;• &#160;[3]</text>
<text text-anchor="start" x="8" y="-319.8" font-family="Helvetica,sans-Serif" font-size="14.00" fill="#000000">S → &#160;• LP S RP [2]</text>
<text text-anchor="start" x="27.5" y="-304.8" font-family="Helvetica,sans-Serif" font-size="14.00" fill="#000000">S&#39; → &#160;• S [0]</text>
</g>
<!-- n1 -->
<g id="node2" class="node">
<title>n1</title>
<polygon fill="none" stroke="#000000" points="104.5,-231 3.5,-231 3.5,-193 104.5,-193 104.5,-231"/>
<text text-anchor="start" x="49" y="-215.8" font-family="Helvetica,sans-Serif" font-size="14.00" fill="#000000">1</text>
<text text-anchor="start" x="11.5" y="-200.8" font-family="Helvetica,sans-Serif" font-size="14.00" fill="#000000">S&#39; → S • &#160;[1]</text>
</g>
<!-- n0&#45;&gt;n1 -->
<g id="edge1" class="edge">
<title>n0&#45;&gt;n1</title>
<path fill="none" stroke="#000000" d="M65.415,-296.8994C63.0668,-279.4342 60.2352,-258.3746 57.9798,-241.5996"/>
<polygon fill="#000000" stroke="#000000" points="61.3931,-240.7199 56.5917,-231.2755 54.4555,-241.6527 61.3931,-240.7199"/>
<text text-anchor="middle" x="68" y="-267.8" font-family="Helvetica,sans-Serif" font-size="14.00" fill="#000000">S</text>
</g>
<!-- n2 -->
<g id="node3" class="node">
<title>n2</title>
<polygon fill="none" stroke="#000000" points="263,-246 123,-246 123,-178 263,-178 263,-246"/>
<text text-anchor="start" x="188" y="-230.8" font-family="Helvetica,sans-Serif" font-size="14.00" fill="#000000">2</text>
<text text-anchor="start" x="157" y="-215.8" font-family="Helvetica,sans-Serif" font-size="14.00" fill="#000000">S → &#160;• &#160;[3]</text>
<text text-anchor="start" x="131" y="-200.8" font-family="Helvetica,sans-Serif" font-size="14.00" fill="#000000">S → &#160;• LP S RP [2]</text>
<text text-anchor="start" x="133" y="-185.8" font-family="Helvetica,sans-Serif" font-size="14.00" fill="#000000">S → LP • S RP [4]</text>
</g>
<!-- n0&#45;&gt;n2 -->
<g id="edge2" class="edge">
<title>n0&#45;&gt;n2</title>
<path fill="none" stroke="#000000" d="M105.2469,-296.8994C119.2716,-283.3307 135.5387,-267.5926 150.2295,-253.3796"/>
<polygon fill="#000000" stroke="#000000" points="152.9946,-255.5743 157.748,-246.1056 148.1274,-250.5434 152.9946,-255.5743"/>
<text text-anchor="middle" x="146.5" y="-267.8" font-family="Helvetica,sans-Serif" font-size="14.00" fill="#000000">LP</text>
</g>
<!-- n2&#45;&gt;n2 -->
<g id="edge4" class="edge">
<title>n2&#45;&gt;n2</title>
<path fill="none" stroke="#000000" d="M263.0708,-221.9165C273.749,-220.4032 281,-217.0977 281,-212 281,-208.7343 278.0242,-206.2041 273.0779,-204.4094"/>
<polygon fill="#000000" stroke="#000000" points="273.6036,-200.9384 263.0708,-202.0835 272.0188,-207.7566 273.6036,-200.9384"/>
<text text-anchor="middle" x="289.5" y="-208.3" font-family="Helvetica,sans-Serif" font-size="14.00" fill="#000000">LP</text>
</g>
<!-- n3 -->
<g id="node4" class="node">
<title>n3</title>
<polygon fill="none" stroke="#000000" points="261,-127 125,-127 125,-89 261,-89 261,-127"/>
<text text-anchor="start" x="188" y="-111.8" font-family="Helvetica,sans-Serif" font-size="14.00" fill="#000000">3</text>
<text text-anchor="start" x="133" y="-96.8" font-family="Helvetica,sans-Serif" font-size="14.00" fill="#000000">S → LP S • RP [5]</text>
</g>
<!-- n2&#45;&gt;n3 -->
<g id="edge3" class="edge">
<title>n2&#45;&gt;n3</title>
<path fill="none" stroke="#000000" d="M193,-177.9465C193,-164.8027 193,-149.9152 193,-137.2636"/>
<polygon fill="#000000" stroke="#000000" points="196.5001,-137.2495 193,-127.2495 189.5001,-137.2495 196.5001,-137.2495"/>
<text text-anchor="middle" x="198" y="-148.8" font-family="Helvetica,sans-Serif" font-size="14.00" fill="#000000">S</text>
</g>
<!-- n4 -->
<g id="node5" class="node">
<title>n4</title>
<polygon fill="none" stroke="#000000" points="263,-38 123,-38 123,0 263,0 263,-38"/>
<text text-anchor="start" x="188" y="-22.8" font-family="Helvetica,sans-Serif" font-size="14.00" fill="#000000">4</text>
<text text-anchor="start" x="131" y="-7.8" font-family="Helvetica,sans-Serif" font-size="14.00" fill="#000000">S → LP S RP • &#160;[6]</text>
</g>
<!-- n3&#45;&gt;n4 -->
<g id="edge5" class="edge">
<title>n3&#45;&gt;n4</title>
<path fill="none" stroke="#000000" d="M193,-88.6883C193,-76.909 193,-61.6187 193,-48.3628"/>
<polygon fill="#000000" stroke="#000000" points="196.5001,-48.274 193,-38.274 189.5001,-48.274 196.5001,-48.274"/>
<text text-anchor="middle" x="202.5" y="-59.8" font-family="Helvetica,sans-Serif" font-size="14.00" fill="#000000">RP</text>
</g>
</g>
</svg>
