<?xml version="1.0" encoding="UTF-8" standalone="no"?>
<!DOCTYPE svg PUBLIC "-//W3C//DTD SVG 1.1//EN"
 "http://www.w3.org/Graphics/SVG/1.1/DTD/svg11.dtd">
<!-- Generated by graphviz version 2.40.1 (0)
 -->
<!-- Title: d Pages: 1 -->
<svg width="310pt" height="388pt"
 viewBox="0.00 0.00 309.50 388.00" xmlns="http://www.w3.org/2000/svg" xmlns:xlink="http://www.w3.org/1999/xlink">
<g id="graph0" class="graph" transform="scale(1 1) rotate(0) translate(4 384)">
<title>d</title>
<polygon fill="#ffffff" stroke="transparent" points="-4,4 -4,-384 305.5,-384 305.5,4 -4,4"/>
<!-- n0 -->
<g id="node1" class="node">
<title>n0</title>
<polygon fill="none" stroke="#000000" points="140,-380 0,-380 0,-312 140,-312 140,-380"/>
<text text-anchor="start" x="65" y="-364.8" font-family="Helvetica,sans-Serif" font-size="14.00" fill="#000000">0</text>
<text text-anchor="start" x="14.5" y="-349.8" font-family="Helvetica,sans-Serif" font-size="14.00" fill="#000000">S → &#160;• LP RP [3]</text>
<text text-anchor="start" x="8" y="-334.8" font-family="Helvetica,sans-Serif" font-size="14.00" fill="#000000">S → &#160;• LP S RP [2]</text>
<text text-anchor="start" x="27.5" y="-319.8" font-family="Helvetica,sans-Serif" font-size="14.00" fill="#000000">S&#39; → &#160;• S [0]</text>
</g>
<!-- n1 -->
<g id="node2" class="node">
<title>n1</title>
<polygon fill="none" stroke="#000000" points="104.5,-238.5 3.5,-238.5 3.5,-200.5 104.5,-200.5 104.5,-238.5"/>
<text text-anchor="start" x="49" y="-223.3" font-family="Helvetica,sans-Serif" font-size="14.00" fill="#000000">1</text>
<text text-anchor="start" x="11.5" y="-208.3" font-family="Helvetica,sans-Serif" font-size="14.00" fill="#000000">S&#39; → S • &#160;[1]</text>
</g>
<!-- n0&#45;&gt;n1 -->
<g id="edge1" class="edge">
<title>n0&#45;&gt;n1</title>
<path fill="none" stroke="#000000" d="M65.6702,-311.7673C63.1829,-292.1026 60.0914,-267.6603 57.7153,-248.874"/>
<polygon fill="#000000" stroke="#000000" points="61.1704,-248.2976 56.4431,-238.8159 54.2257,-249.176 61.1704,-248.2976"/>
<text text-anchor="middle" x="68" y="-282.8" font-family="Helvetica,sans-Serif" font-size="14.00" fill="#000000">S</text>
</g>
<!-- n2 -->
<g id="node3" class="node">
<title>n2</title>
<polygon fill="none" stroke="#000000" points="263,-261 123,-261 123,-178 263,-178 263,-261"/>
<text text-anchor="start" x="188" y="-245.8" font-family="Helvetica,sans-Serif" font-size="14.00" fill="#000000">2</text>
<text text-anchor="start" x="137.5" y="-230.8" font-family="Helvetica,sans-Serif" font-size="14.00" fill="#000000">S → &#160;• LP RP [3]</text>
<text text-anchor="start" x="131" y="-215.8" font-family="Helvetica,sans-Serif" font-size="14.00" fill="#000000">S → &#160;• LP S RP [2]</text>
<text text-anchor="start" x="140" y="-200.8" font-family="Helvetica,sans-Serif" font-size="14.00" fill="#000000">S → LP • RP [4]</text>
<text text-anchor="start" x="133" y="-185.8" font-family="Helvetica,sans-Serif" font-size="14.00" fill="#000000">S → LP • S RP [6]</text>
</g>
<!-- n0&#45;&gt;n2 -->
<g id="edge2" class="edge">
<title>n0&#45;&gt;n2</title>
<path fill="none" stroke="#000000" d="M103.2856,-311.7673C116.1297,-298.5576 131.0701,-283.1921 145.0315,-268.8334"/>
<polygon fill="#000000" stroke="#000000" points="147.7651,-271.0427 152.227,-261.4332 142.7464,-266.1629 147.7651,-271.0427"/>
<text text-anchor="middle" x="140.5" y="-282.8" font-family="Helvetica,sans-Serif" font-size="14.00" fill="#000000">LP</text>
</g>
<!-- n2&#45;&gt;n2 -->
<g id="edge4" class="edge">
<title>n2&#45;&gt;n2</title>
<path fill="none" stroke="#000000" d="M263.0708,-230.7843C273.749,-229.0622 281,-225.3008 281,-219.5 281,-215.7839 278.0242,-212.9047 273.0779,-210.8625"/>
<polygon fill="#000000" stroke="#000000" points="273.6334,-207.3891 263.0708,-208.2157 271.8434,-214.1564 273.6334,-207.3891"/>
<text text-anchor="middle" x="289.5" y="-215.8" font-family="Helvetica,sans-Serif" font-size="14.00" fill="#000000">LP</text>
</g>
<!-- n3 -->
<g id="node4" class="node">
<title>n3</title>
<polygon fill="none" stroke="#000000" points="156,-127 20,-127 20,-89 156,-89 156,-127"/>
<text text-anchor="start" x="83" y="-111.8" font-family="Helvetica,sans-Serif" font-size="14.00" fill="#000000">3</text>
<text text-anchor="start" x="28" y="-96.8" font-family="Helvetica,sans-Serif" font-size="14.00" fill="#000000">S → LP S • RP [7]</text>
</g>
<!-- n2&#45;&gt;n3 -->
<g id="edge3" class="edge">
<title>n2&#45;&gt;n3</title>
<path fill="none" stroke="#000000" d="M153.9019,-177.9815C140.157,-163.3858 125.0987,-147.3953 112.8501,-134.3885"/>
<polygon fill="#000000" stroke="#000000" points="115.3979,-131.9887 105.9942,-127.1081 110.3019,-136.7877 115.3979,-131.9887"/>
<text text-anchor="middle" x="140" y="-148.8" font-family="Helvetica,sans-Serif" font-size="14.00" fill="#000000">S</text>
</g>
<!-- n4 -->
<g id="node5" class="node">
<title>n4</title>
<polygon fill="none" stroke="#000000" points="301.5,-127 174.5,-127 174.5,-89 301.5,-89 301.5,-127"/>
<text text-anchor="start" x="233" y="-111.8" font-family="Helvetica,sans-Serif" font-size="14.00" fill="#000000">4</text>
<text text-anchor="start" x="182.5" y="-96.8" font-family="Helvetica,sans-Serif" font-size="14.00" fill="#000000">S → LP RP • &#160;[5]</text>
</g>
<!-- n2&#45;&gt;n4 -->
<g id="edge5" class="edge">
<title>n2&#45;&gt;n4</title>
<path fill="none" stroke="#000000" d="M209.7563,-177.9815C215.3167,-164.2042 221.3786,-149.1842 226.4558,-136.6039"/>
<polygon fill="#000000" stroke="#000000" points="229.7912,-137.6913 230.2882,-127.1081 223.2999,-135.0714 229.7912,-137.6913"/>
<text text-anchor="middle" x="231.5" y="-148.8" font-family="Helvetica,sans-Serif" font-size="14.00" fill="#000000">RP</text>
</g>
<!-- n5 -->
<g id="node6" class="node">
<title>n5</title>
<polygon fill="none" stroke="#000000" points="158,-38 18,-38 18,0 158,0 158,-38"/>
<text text-anchor="start" x="83" y="-22.8" font-family="Helvetica,sans-Serif" font-size="14.00" fill="#000000">5</text>
<text text-anchor="start" x="26" y="-7.8" font-family="Helvetica,sans-Serif" font-size="14.00" fill="#000000">S → LP S RP • &#160;[8]</text>
</g>
<!-- n3&#45;&gt;n5 -->
<g id="edge6" class="edge">
<title>n3&#45;&gt;n5</title>
<path fill="none" stroke="#000000" d="M88,-88.6883C88,-76.909 88,-61.6187 88,-48.3628"/>
<polygon fill="#000000" stroke="#000000" points="91.5001,-48.274 88,-38.274 84.5001,-48.274 91.5001,-48.274"/>
<text text-anchor="middle" x="97.5" y="-59.8" font-family="Helvetica,sans-Serif" font-size="14.00" fill="#000000">RP</text>
</g>
</g>
</svg>
