<?xml version="1.0" encoding="UTF-8" standalone="no"?>
<!DOCTYPE svg PUBLIC "-//W3C//DTD SVG 1.1//EN"
 "http://www.w3.org/Graphics/SVG/1.1/DTD/svg11.dtd">
<!-- Generated by graphviz version 2.40.1 (0)
 -->
<!-- Title: d Pages: 1 -->
<svg width="299pt" height="491pt"
 viewBox="0.00 0.00 299.00 491.00" xmlns="http://www.w3.org/2000/svg" xmlns:xlink="http://www.w3.org/1999/xlink">
<g id="graph0" class="graph" transform="scale(1 1) rotate(0) translate(4 487)">
<title>d</title>
<polygon fill="#ffffff" stroke="transparent" points="-4,4 -4,-487 295,-487 295,4 -4,4"/>
<!-- n0 -->
<g id="node1" class="node">
<title>n0</title>
<polygon fill="none" stroke="#000000" points="192,-483 115,-483 115,-445 192,-445 192,-483"/>
<text text-anchor="start" x="148.5" y="-467.8" font-family="Helvetica,sans-Serif" font-size="14.00" fill="#000000">0</text>
<text text-anchor="start" x="123" y="-452.8" font-family="Helvetica,sans-Serif" font-size="14.00" fill="#000000">S&#39; → &#160;• S</text>
</g>
<!-- n1 -->
<g id="node2" class="node">
<title>n1</title>
<polygon fill="none" stroke="#000000" points="77,-394 0,-394 0,-356 77,-356 77,-394"/>
<text text-anchor="start" x="33.5" y="-378.8" font-family="Helvetica,sans-Serif" font-size="14.00" fill="#000000">1</text>
<text text-anchor="start" x="8" y="-363.8" font-family="Helvetica,sans-Serif" font-size="14.00" fill="#000000">S&#39; → S • </text>
</g>
<!-- n0&#45;&gt;n1 -->
<g id="edge1" class="edge">
<title>n0&#45;&gt;n1</title>
<path fill="none" stroke="#000000" d="M128.8296,-444.9073C112.0033,-431.8852 89.5364,-414.4977 71.2187,-400.3214"/>
<polygon fill="#000000" stroke="#000000" points="73.18,-397.4136 63.1296,-394.0612 68.8958,-402.9495 73.18,-397.4136"/>
<text text-anchor="middle" x="108.5" y="-415.8" font-family="Helvetica,sans-Serif" font-size="14.00" fill="#000000">S</text>
</g>
<!-- n2 -->
<g id="node3" class="node">
<title>n2</title>
<polygon fill="none" stroke="#000000" points="211.5,-394 95.5,-394 95.5,-356 211.5,-356 211.5,-394"/>
<text text-anchor="start" x="148.5" y="-378.8" font-family="Helvetica,sans-Serif" font-size="14.00" fill="#000000">2</text>
<text text-anchor="start" x="103.5" y="-363.8" font-family="Helvetica,sans-Serif" font-size="14.00" fill="#000000">S → &#160;• LP S RP</text>
</g>
<!-- n0&#45;&gt;n2 -->
<g id="edge2" class="edge">
<title>n0&#45;&gt;n2</title>
<path fill="none" stroke="#000000" d="M153.5,-444.6883C153.5,-432.909 153.5,-417.6187 153.5,-404.3628"/>
<polygon fill="#000000" stroke="#000000" points="157.0001,-404.274 153.5,-394.274 150.0001,-404.274 157.0001,-404.274"/>
<text text-anchor="start" x="153.5" y="-415.8" font-family="Helvetica,sans-Serif" font-size="14.00" fill="#000000">λ</text>
</g>
<!-- n3 -->
<g id="node4" class="node">
<title>n3</title>
<polygon fill="none" stroke="#000000" points="291,-216 188,-216 188,-178 291,-178 291,-216"/>
<text text-anchor="start" x="234.5" y="-200.8" font-family="Helvetica,sans-Serif" font-size="14.00" fill="#000000">3</text>
<text text-anchor="start" x="196" y="-185.8" font-family="Helvetica,sans-Serif" font-size="14.00" fill="#000000">S → &#160;• LP RP</text>
</g>
<!-- n0&#45;&gt;n3 -->
<g id="edge3" class="edge">
<title>n0&#45;&gt;n3</title>
<path fill="none" stroke="#000000" d="M178.9172,-444.8479C193.7226,-432.1657 211.2467,-414.1857 220.5,-394 245.7479,-338.923 245.2287,-266.2542 242.4605,-226.3592"/>
<polygon fill="#000000" stroke="#000000" points="245.9386,-225.9439 241.6605,-216.2512 238.9605,-226.4962 245.9386,-225.9439"/>
<text text-anchor="start" x="239.5" y="-326.8" font-family="Helvetica,sans-Serif" font-size="14.00" fill="#000000">λ</text>
</g>
<!-- n6 -->
<g id="node7" class="node">
<title>n6</title>
<polygon fill="none" stroke="#000000" points="202.5,-305 90.5,-305 90.5,-267 202.5,-267 202.5,-305"/>
<text text-anchor="start" x="141.5" y="-289.8" font-family="Helvetica,sans-Serif" font-size="14.00" fill="#000000">6</text>
<text text-anchor="start" x="98.5" y="-274.8" font-family="Helvetica,sans-Serif" font-size="14.00" fill="#000000">S → LP • S RP</text>
</g>
<!-- n2&#45;&gt;n6 -->
<g id="edge4" class="edge">
<title>n2&#45;&gt;n6</title>
<path fill="none" stroke="#000000" d="M151.9811,-355.6883C151.0546,-343.909 149.852,-328.6187 148.8094,-315.3628"/>
<polygon fill="#000000" stroke="#000000" points="152.2893,-314.9687 148.0159,-305.274 145.3109,-315.5177 152.2893,-314.9687"/>
<text text-anchor="middle" x="158" y="-326.8" font-family="Helvetica,sans-Serif" font-size="14.00" fill="#000000">LP</text>
</g>
<!-- n4 -->
<g id="node5" class="node">
<title>n4</title>
<polygon fill="none" stroke="#000000" points="288.5,-127 190.5,-127 190.5,-89 288.5,-89 288.5,-127"/>
<text text-anchor="start" x="234.5" y="-111.8" font-family="Helvetica,sans-Serif" font-size="14.00" fill="#000000">4</text>
<text text-anchor="start" x="198.5" y="-96.8" font-family="Helvetica,sans-Serif" font-size="14.00" fill="#000000">S → LP • RP</text>
</g>
<!-- n3&#45;&gt;n4 -->
<g id="edge5" class="edge">
<title>n3&#45;&gt;n4</title>
<path fill="none" stroke="#000000" d="M239.5,-177.6883C239.5,-165.909 239.5,-150.6187 239.5,-137.3628"/>
<polygon fill="#000000" stroke="#000000" points="243.0001,-137.274 239.5,-127.274 236.0001,-137.274 243.0001,-137.274"/>
<text text-anchor="middle" x="248" y="-148.8" font-family="Helvetica,sans-Serif" font-size="14.00" fill="#000000">LP</text>
</g>
<!-- n5 -->
<g id="node6" class="node">
<title>n5</title>
<polygon fill="none" stroke="#000000" points="291,-38 188,-38 188,0 291,0 291,-38"/>
<text text-anchor="start" x="234.5" y="-22.8" font-family="Helvetica,sans-Serif" font-size="14.00" fill="#000000">5</text>
<text text-anchor="start" x="196" y="-7.8" font-family="Helvetica,sans-Serif" font-size="14.00" fill="#000000">S → LP RP • </text>
</g>
<!-- n4&#45;&gt;n5 -->
<g id="edge6" class="edge">
<title>n4&#45;&gt;n5</title>
<path fill="none" stroke="#000000" d="M239.5,-88.6883C239.5,-76.909 239.5,-61.6187 239.5,-48.3628"/>
<polygon fill="#000000" stroke="#000000" points="243.0001,-48.274 239.5,-38.274 236.0001,-48.274 243.0001,-48.274"/>
<text text-anchor="middle" x="249" y="-59.8" font-family="Helvetica,sans-Serif" font-size="14.00" fill="#000000">RP</text>
</g>
<!-- n6&#45;&gt;n2 -->
<g id="edge8" class="edge">
<title>n6&#45;&gt;n2</title>
<path fill="none" stroke="#000000" d="M139.0359,-305.3096C136.1926,-315.1236 134.1427,-327.223 136.5,-338 137.1231,-340.8487 137.9868,-343.74 138.9974,-346.5862"/>
<polygon fill="#000000" stroke="#000000" points="135.8154,-348.051 142.8628,-355.9621 142.287,-345.3829 135.8154,-348.051"/>
<text text-anchor="start" x="136.5" y="-326.8" font-family="Helvetica,sans-Serif" font-size="14.00" fill="#000000">λ</text>
</g>
<!-- n6&#45;&gt;n3 -->
<g id="edge9" class="edge">
<title>n6&#45;&gt;n3</title>
<path fill="none" stroke="#000000" d="M166.6796,-266.6883C179.9633,-253.976 197.52,-237.1744 212.0661,-223.254"/>
<polygon fill="#000000" stroke="#000000" points="214.5549,-225.7167 219.3598,-216.274 209.7151,-220.6593 214.5549,-225.7167"/>
<text text-anchor="start" x="198.5" y="-237.8" font-family="Helvetica,sans-Serif" font-size="14.00" fill="#000000">λ</text>
</g>
<!-- n7 -->
<g id="node8" class="node">
<title>n7</title>
<polygon fill="none" stroke="#000000" points="169.5,-216 57.5,-216 57.5,-178 169.5,-178 169.5,-216"/>
<text text-anchor="start" x="108.5" y="-200.8" font-family="Helvetica,sans-Serif" font-size="14.00" fill="#000000">7</text>
<text text-anchor="start" x="65.5" y="-185.8" font-family="Helvetica,sans-Serif" font-size="14.00" fill="#000000">S → LP S • RP</text>
</g>
<!-- n6&#45;&gt;n7 -->
<g id="edge7" class="edge">
<title>n6&#45;&gt;n7</title>
<path fill="none" stroke="#000000" d="M139.3395,-266.6883C134.9286,-254.7924 129.19,-239.3156 124.2416,-225.9697"/>
<polygon fill="#000000" stroke="#000000" points="127.4048,-224.4334 120.6465,-216.274 120.8415,-226.867 127.4048,-224.4334"/>
<text text-anchor="middle" x="136.5" y="-237.8" font-family="Helvetica,sans-Serif" font-size="14.00" fill="#000000">S</text>
</g>
<!-- n8 -->
<g id="node9" class="node">
<title>n8</title>
<polygon fill="none" stroke="#000000" points="171.5,-127 55.5,-127 55.5,-89 171.5,-89 171.5,-127"/>
<text text-anchor="start" x="108.5" y="-111.8" font-family="Helvetica,sans-Serif" font-size="14.00" fill="#000000">8</text>
<text text-anchor="start" x="63.5" y="-96.8" font-family="Helvetica,sans-Serif" font-size="14.00" fill="#000000">S → LP S RP • </text>
</g>
<!-- n7&#45;&gt;n8 -->
<g id="edge10" class="edge">
<title>n7&#45;&gt;n8</title>
<path fill="none" stroke="#000000" d="M113.5,-177.6883C113.5,-165.909 113.5,-150.6187 113.5,-137.3628"/>
<polygon fill="#000000" stroke="#000000" points="117.0001,-137.274 113.5,-127.274 110.0001,-137.274 117.0001,-137.274"/>
<text text-anchor="middle" x="123" y="-148.8" font-family="Helvetica,sans-Serif" font-size="14.00" fill="#000000">RP</text>
</g>
</g>
</svg>
