<?xml version="1.0" encoding="UTF-8" standalone="no"?>
<!DOCTYPE svg PUBLIC "-//W3C//DTD SVG 1.1//EN"
 "http://www.w3.org/Graphics/SVG/1.1/DTD/svg11.dtd">
<!-- Generated by graphviz version 2.40.1 (0)
 -->
<!-- Title: d Pages: 1 -->
<svg width="224pt" height="150pt"
 viewBox="0.00 0.00 223.50 150.00" xmlns="http://www.w3.org/2000/svg" xmlns:xlink="http://www.w3.org/1999/xlink">
<g id="graph0" class="graph" transform="scale(1 1) rotate(0) translate(4 146)">
<title>d</title>
<polygon fill="#ffffff" stroke="transparent" points="-4,4 -4,-146 219.5,-146 219.5,4 -4,4"/>
<!-- n0 -->
<g id="node1" class="node">
<title>n0</title>
<polygon fill="none" stroke="#000000" points="159,-142 58,-142 58,-89 159,-89 159,-142"/>
<text text-anchor="start" x="103.5" y="-126.8" font-family="Helvetica,sans-Serif" font-size="14.00" fill="#000000">0</text>
<text text-anchor="start" x="68.5" y="-111.8" font-family="Helvetica,sans-Serif" font-size="14.00" fill="#000000">S → &#160;• x [2]</text>
<text text-anchor="start" x="66" y="-96.8" font-family="Helvetica,sans-Serif" font-size="14.00" fill="#000000">S&#39; → &#160;• S [0]</text>
</g>
<!-- n1 -->
<g id="node2" class="node">
<title>n1</title>
<polygon fill="none" stroke="#000000" points="101,-38 0,-38 0,0 101,0 101,-38"/>
<text text-anchor="start" x="45.5" y="-22.8" font-family="Helvetica,sans-Serif" font-size="14.00" fill="#000000">1</text>
<text text-anchor="start" x="8" y="-7.8" font-family="Helvetica,sans-Serif" font-size="14.00" fill="#000000">S&#39; → S • &#160;[1]</text>
</g>
<!-- n0&#45;&gt;n1 -->
<g id="edge1" class="edge">
<title>n0&#45;&gt;n1</title>
<path fill="none" stroke="#000000" d="M92.4977,-88.8755C84.6516,-75.8211 75.2049,-60.1038 67.2596,-46.8845"/>
<polygon fill="#000000" stroke="#000000" points="70.1883,-44.9631 62.037,-38.1951 64.1886,-48.5692 70.1883,-44.9631"/>
<text text-anchor="middle" x="86.5" y="-59.8" font-family="Helvetica,sans-Serif" font-size="14.00" fill="#000000">S</text>
</g>
<!-- n2 -->
<g id="node3" class="node">
<title>n2</title>
<polygon fill="none" stroke="#000000" points="215.5,-38 119.5,-38 119.5,0 215.5,0 215.5,-38"/>
<text text-anchor="start" x="162.5" y="-22.8" font-family="Helvetica,sans-Serif" font-size="14.00" fill="#000000">2</text>
<text text-anchor="start" x="127.5" y="-7.8" font-family="Helvetica,sans-Serif" font-size="14.00" fill="#000000">S → x • &#160;[3]</text>
</g>
<!-- n0&#45;&gt;n2 -->
<g id="edge2" class="edge">
<title>n0&#45;&gt;n2</title>
<path fill="none" stroke="#000000" d="M124.7782,-88.8755C132.7596,-75.8211 142.3692,-60.1038 150.4515,-46.8845"/>
<polygon fill="#000000" stroke="#000000" points="153.5339,-48.5526 155.7641,-38.1951 147.5617,-44.9011 153.5339,-48.5526"/>
<text text-anchor="middle" x="147" y="-59.8" font-family="Helvetica,sans-Serif" font-size="14.00" fill="#000000">x</text>
</g>
</g>
</svg>
