<?xml version="1.0" encoding="UTF-8" standalone="no"?>
<!DOCTYPE svg PUBLIC "-//W3C//DTD SVG 1.1//EN"
 "http://www.w3.org/Graphics/SVG/1.1/DTD/svg11.dtd">
<!-- Generated by graphviz version 2.40.1 (0)
 -->
<!-- Title: d Pages: 1 -->
<svg width="176pt" height="224pt"
 viewBox="0.00 0.00 175.50 224.00" xmlns="http://www.w3.org/2000/svg" xmlns:xlink="http://www.w3.org/1999/xlink">
<g id="graph0" class="graph" transform="scale(1 1) rotate(0) translate(4 220)">
<title>d</title>
<polygon fill="#ffffff" stroke="transparent" points="-4,4 -4,-220 171.5,-220 171.5,4 -4,4"/>
<!-- n0 -->
<g id="node1" class="node">
<title>n0</title>
<polygon fill="none" stroke="#000000" points="93,-216 16,-216 16,-178 93,-178 93,-216"/>
<text text-anchor="start" x="49.5" y="-200.8" font-family="Helvetica,sans-Serif" font-size="14.00" fill="#000000">0</text>
<text text-anchor="start" x="24" y="-185.8" font-family="Helvetica,sans-Serif" font-size="14.00" fill="#000000">S&#39; → &#160;• S</text>
</g>
<!-- n1 -->
<g id="node2" class="node">
<title>n1</title>
<polygon fill="none" stroke="#000000" points="77,-127 0,-127 0,-89 77,-89 77,-127"/>
<text text-anchor="start" x="33.5" y="-111.8" font-family="Helvetica,sans-Serif" font-size="14.00" fill="#000000">1</text>
<text text-anchor="start" x="8" y="-96.8" font-family="Helvetica,sans-Serif" font-size="14.00" fill="#000000">S&#39; → S • </text>
</g>
<!-- n0&#45;&gt;n1 -->
<g id="edge1" class="edge">
<title>n0&#45;&gt;n1</title>
<path fill="none" stroke="#000000" d="M51.0282,-177.6883C48.9106,-165.909 46.1618,-150.6187 43.7787,-137.3628"/>
<polygon fill="#000000" stroke="#000000" points="47.1792,-136.4969 41.965,-127.274 40.2897,-137.7355 47.1792,-136.4969"/>
<text text-anchor="middle" x="52.5" y="-148.8" font-family="Helvetica,sans-Serif" font-size="14.00" fill="#000000">S</text>
</g>
<!-- n2 -->
<g id="node3" class="node">
<title>n2</title>
<polygon fill="none" stroke="#000000" points="167.5,-127 95.5,-127 95.5,-89 167.5,-89 167.5,-127"/>
<text text-anchor="start" x="126.5" y="-111.8" font-family="Helvetica,sans-Serif" font-size="14.00" fill="#000000">2</text>
<text text-anchor="start" x="103.5" y="-96.8" font-family="Helvetica,sans-Serif" font-size="14.00" fill="#000000">S → &#160;• x</text>
</g>
<!-- n0&#45;&gt;n2 -->
<g id="edge2" class="edge">
<title>n0&#45;&gt;n2</title>
<path fill="none" stroke="#000000" d="M71.2079,-177.6883C82.0044,-165.2092 96.2101,-148.7896 108.1205,-135.0231"/>
<polygon fill="#000000" stroke="#000000" points="110.9288,-137.1265 114.8248,-127.274 105.635,-132.5465 110.9288,-137.1265"/>
<text text-anchor="start" x="97.5" y="-148.8" font-family="Helvetica,sans-Serif" font-size="14.00" fill="#000000">λ</text>
</g>
<!-- n3 -->
<g id="node4" class="node">
<title>n3</title>
<polygon fill="none" stroke="#000000" points="167.5,-38 95.5,-38 95.5,0 167.5,0 167.5,-38"/>
<text text-anchor="start" x="126.5" y="-22.8" font-family="Helvetica,sans-Serif" font-size="14.00" fill="#000000">3</text>
<text text-anchor="start" x="103.5" y="-7.8" font-family="Helvetica,sans-Serif" font-size="14.00" fill="#000000">S → x • </text>
</g>
<!-- n2&#45;&gt;n3 -->
<g id="edge3" class="edge">
<title>n2&#45;&gt;n3</title>
<path fill="none" stroke="#000000" d="M131.5,-88.6883C131.5,-76.909 131.5,-61.6187 131.5,-48.3628"/>
<polygon fill="#000000" stroke="#000000" points="135.0001,-48.274 131.5,-38.274 128.0001,-48.274 135.0001,-48.274"/>
<text text-anchor="middle" x="136" y="-59.8" font-family="Helvetica,sans-Serif" font-size="14.00" fill="#000000">x</text>
</g>
</g>
</svg>
