<?xml version="1.0" encoding="UTF-8" standalone="no"?>
<!DOCTYPE svg PUBLIC "-//W3C//DTD SVG 1.1//EN"
 "http://www.w3.org/Graphics/SVG/1.1/DTD/svg11.dtd">
<!-- Generated by graphviz version 2.40.1 (0)
 -->
<!-- Title: d Pages: 1 -->
<svg width="258pt" height="224pt"
 viewBox="0.00 0.00 257.50 224.00" xmlns="http://www.w3.org/2000/svg" xmlns:xlink="http://www.w3.org/1999/xlink">
<g id="graph0" class="graph" transform="scale(1 1) rotate(0) translate(4 220)">
<title>d</title>
<polygon fill="#ffffff" stroke="transparent" points="-4,4 -4,-220 253.5,-220 253.5,4 -4,4"/>
<!-- n0 -->
<g id="node1" class="node">
<title>n0</title>
<polygon fill="none" stroke="#000000" points="170,-216 93,-216 93,-178 170,-178 170,-216"/>
<text text-anchor="start" x="126.5" y="-200.8" font-family="Helvetica,sans-Serif" font-size="14.00" fill="#000000">0</text>
<text text-anchor="start" x="101" y="-185.8" font-family="Helvetica,sans-Serif" font-size="14.00" fill="#000000">S&#39; → &#160;• S</text>
</g>
<!-- n1 -->
<g id="node2" class="node">
<title>n1</title>
<polygon fill="none" stroke="#000000" points="77,-127 0,-127 0,-89 77,-89 77,-127"/>
<text text-anchor="start" x="33.5" y="-111.8" font-family="Helvetica,sans-Serif" font-size="14.00" fill="#000000">1</text>
<text text-anchor="start" x="8" y="-96.8" font-family="Helvetica,sans-Serif" font-size="14.00" fill="#000000">S&#39; → S • </text>
</g>
<!-- n0&#45;&gt;n1 -->
<g id="edge1" class="edge">
<title>n0&#45;&gt;n1</title>
<path fill="none" stroke="#000000" d="M111.3204,-177.6883C98.0367,-164.976 80.48,-148.1744 65.9339,-134.254"/>
<polygon fill="#000000" stroke="#000000" points="68.2849,-131.6593 58.6402,-127.274 63.4451,-136.7167 68.2849,-131.6593"/>
<text text-anchor="middle" x="96.5" y="-148.8" font-family="Helvetica,sans-Serif" font-size="14.00" fill="#000000">S</text>
</g>
<!-- n2 -->
<g id="node3" class="node">
<title>n2</title>
<polygon fill="none" stroke="#000000" points="167.5,-127 95.5,-127 95.5,-89 167.5,-89 167.5,-127"/>
<text text-anchor="start" x="126.5" y="-111.8" font-family="Helvetica,sans-Serif" font-size="14.00" fill="#000000">2</text>
<text text-anchor="start" x="103.5" y="-96.8" font-family="Helvetica,sans-Serif" font-size="14.00" fill="#000000">S → &#160;• x</text>
</g>
<!-- n0&#45;&gt;n2 -->
<g id="edge2" class="edge">
<title>n0&#45;&gt;n2</title>
<path fill="none" stroke="#000000" d="M131.5,-177.6883C131.5,-165.909 131.5,-150.6187 131.5,-137.3628"/>
<polygon fill="#000000" stroke="#000000" points="135.0001,-137.274 131.5,-127.274 128.0001,-137.274 135.0001,-137.274"/>
<text text-anchor="start" x="131.5" y="-148.8" font-family="Helvetica,sans-Serif" font-size="14.00" fill="#000000">λ</text>
</g>
<!-- n3 -->
<g id="node4" class="node">
<title>n3</title>
<polygon fill="none" stroke="#000000" points="249.5,-127 185.5,-127 185.5,-89 249.5,-89 249.5,-127"/>
<text text-anchor="start" x="212.5" y="-111.8" font-family="Helvetica,sans-Serif" font-size="14.00" fill="#000000">3</text>
<text text-anchor="start" x="193.5" y="-96.8" font-family="Helvetica,sans-Serif" font-size="14.00" fill="#000000">S → &#160;• </text>
</g>
<!-- n0&#45;&gt;n3 -->
<g id="edge3" class="edge">
<title>n0&#45;&gt;n3</title>
<path fill="none" stroke="#000000" d="M150.1607,-177.6883C162.3319,-165.0926 178.3822,-148.4824 191.7601,-134.6378"/>
<polygon fill="#000000" stroke="#000000" points="194.4438,-136.8973 198.8757,-127.274 189.4099,-132.0331 194.4438,-136.8973"/>
<text text-anchor="start" x="180.5" y="-148.8" font-family="Helvetica,sans-Serif" font-size="14.00" fill="#000000">λ</text>
</g>
<!-- n4 -->
<g id="node5" class="node">
<title>n4</title>
<polygon fill="none" stroke="#000000" points="167.5,-38 95.5,-38 95.5,0 167.5,0 167.5,-38"/>
<text text-anchor="start" x="126.5" y="-22.8" font-family="Helvetica,sans-Serif" font-size="14.00" fill="#000000">4</text>
<text text-anchor="start" x="103.5" y="-7.8" font-family="Helvetica,sans-Serif" font-size="14.00" fill="#000000">S → x • </text>
</g>
<!-- n2&#45;&gt;n4 -->
<g id="edge4" class="edge">
<title>n2&#45;&gt;n4</title>
<path fill="none" stroke="#000000" d="M131.5,-88.6883C131.5,-76.909 131.5,-61.6187 131.5,-48.3628"/>
<polygon fill="#000000" stroke="#000000" points="135.0001,-48.274 131.5,-38.274 128.0001,-48.274 135.0001,-48.274"/>
<text text-anchor="middle" x="136" y="-59.8" font-family="Helvetica,sans-Serif" font-size="14.00" fill="#000000">x</text>
</g>
</g>
</svg>
