<?xml version="1.0" encoding="UTF-8" standalone="no"?>
<!DOCTYPE svg PUBLIC "-//W3C//DTD SVG 1.1//EN"
 "http://www.w3.org/Graphics/SVG/1.1/DTD/svg11.dtd">
<!-- Generated by graphviz version 2.40.1 (0)
 -->
<!-- Title: d Pages: 1 -->
<svg width="224pt" height="165pt"
 viewBox="0.00 0.00 223.50 165.00" xmlns="http://www.w3.org/2000/svg" xmlns:xlink="http://www.w3.org/1999/xlink">
<g id="graph0" class="graph" transform="scale(1 1) rotate(0) translate(4 161)">
<title>d</title>
<polygon fill="#ffffff" stroke="transparent" points="-4,4 -4,-161 219.5,-161 219.5,4 -4,4"/>
<!-- n0 -->
<g id="node1" class="node">
<title>n0</title>
<polygon fill="none" stroke="#000000" points="159,-157 58,-157 58,-89 159,-89 159,-157"/>
<text text-anchor="start" x="103.5" y="-141.8" font-family="Helvetica,sans-Serif" font-size="14.00" fill="#000000">0</text>
<text text-anchor="start" x="72.5" y="-126.8" font-family="Helvetica,sans-Serif" font-size="14.00" fill="#000000">S → &#160;• &#160;[3]</text>
<text text-anchor="start" x="68.5" y="-111.8" font-family="Helvetica,sans-Serif" font-size="14.00" fill="#000000">S → &#160;• x [2]</text>
<text text-anchor="start" x="66" y="-96.8" font-family="Helvetica,sans-Serif" font-size="14.00" fill="#000000">S&#39; → &#160;• S [0]</text>
</g>
<!-- n1 -->
<g id="node2" class="node">
<title>n1</title>
<polygon fill="none" stroke="#000000" points="101,-38 0,-38 0,0 101,0 101,-38"/>
<text text-anchor="start" x="45.5" y="-22.8" font-family="Helvetica,sans-Serif" font-size="14.00" fill="#000000">1</text>
<text text-anchor="start" x="8" y="-7.8" font-family="Helvetica,sans-Serif" font-size="14.00" fill="#000000">S&#39; → S • &#160;[1]</text>
</g>
<!-- n0&#45;&gt;n1 -->
<g id="edge1" class="edge">
<title>n0&#45;&gt;n1</title>
<path fill="none" stroke="#000000" d="M89.5086,-88.9465C81.9585,-75.4084 73.3768,-60.0204 66.1885,-47.1311"/>
<polygon fill="#000000" stroke="#000000" points="69.1628,-45.2784 61.2353,-38.2495 63.0493,-48.6879 69.1628,-45.2784"/>
<text text-anchor="middle" x="84.5" y="-59.8" font-family="Helvetica,sans-Serif" font-size="14.00" fill="#000000">S</text>
</g>
<!-- n2 -->
<g id="node3" class="node">
<title>n2</title>
<polygon fill="none" stroke="#000000" points="215.5,-38 119.5,-38 119.5,0 215.5,0 215.5,-38"/>
<text text-anchor="start" x="162.5" y="-22.8" font-family="Helvetica,sans-Serif" font-size="14.00" fill="#000000">2</text>
<text text-anchor="start" x="127.5" y="-7.8" font-family="Helvetica,sans-Serif" font-size="14.00" fill="#000000">S → x • &#160;[4]</text>
</g>
<!-- n0&#45;&gt;n2 -->
<g id="edge2" class="edge">
<title>n0&#45;&gt;n2</title>
<path fill="none" stroke="#000000" d="M127.8188,-88.9465C135.4991,-75.4084 144.2288,-60.0204 151.541,-47.1311"/>
<polygon fill="#000000" stroke="#000000" points="154.6895,-48.6744 156.5796,-38.2495 148.601,-45.2203 154.6895,-48.6744"/>
<text text-anchor="middle" x="149" y="-59.8" font-family="Helvetica,sans-Serif" font-size="14.00" fill="#000000">x</text>
</g>
</g>
</svg>
