<?xml version="1.0" encoding="UTF-8" standalone="no"?>
<!DOCTYPE svg PUBLIC "-//W3C//DTD SVG 1.1//EN"
 "http://www.w3.org/Graphics/SVG/1.1/DTD/svg11.dtd">
<!-- Generated by graphviz version 2.40.1 (0)
 -->
<!-- Title: d Pages: 1 -->
<svg width="573pt" height="493pt"
 viewBox="0.00 0.00 573.00 493.00" xmlns="http://www.w3.org/2000/svg" xmlns:xlink="http://www.w3.org/1999/xlink">
<g id="graph0" class="graph" transform="scale(1 1) rotate(0) translate(4 489)">
<title>d</title>
<polygon fill="#ffffff" stroke="transparent" points="-4,4 -4,-489 569,-489 569,4 -4,4"/>
<!-- n0 -->
<g id="node1" class="node">
<title>n0</title>
<polygon fill="none" stroke="#000000" points="420.5,-485 310.5,-485 310.5,-387 420.5,-387 420.5,-485"/>
<text text-anchor="start" x="360.5" y="-469.8" font-family="Helvetica,sans-Serif" font-size="14.00" fill="#000000">0</text>
<text text-anchor="start" x="325" y="-454.8" font-family="Helvetica,sans-Serif" font-size="14.00" fill="#000000">A → &#160;• y [5]</text>
<text text-anchor="start" x="318.5" y="-439.8" font-family="Helvetica,sans-Serif" font-size="14.00" fill="#000000">A → &#160;• z S [6]</text>
<text text-anchor="start" x="324.5" y="-424.8" font-family="Helvetica,sans-Serif" font-size="14.00" fill="#000000">S → &#160;• A [3]</text>
<text text-anchor="start" x="318.5" y="-409.8" font-family="Helvetica,sans-Serif" font-size="14.00" fill="#000000">S → &#160;• x S [2]</text>
<text text-anchor="start" x="323" y="-394.8" font-family="Helvetica,sans-Serif" font-size="14.00" fill="#000000">S&#39; → &#160;• S [0]</text>
</g>
<!-- n1 -->
<g id="node2" class="node">
<title>n1</title>
<polygon fill="none" stroke="#000000" points="101,-306 0,-306 0,-268 101,-268 101,-306"/>
<text text-anchor="start" x="45.5" y="-290.8" font-family="Helvetica,sans-Serif" font-size="14.00" fill="#000000">1</text>
<text text-anchor="start" x="8" y="-275.8" font-family="Helvetica,sans-Serif" font-size="14.00" fill="#000000">S&#39; → S • &#160;[1]</text>
</g>
<!-- n0&#45;&gt;n1 -->
<g id="edge1" class="edge">
<title>n0&#45;&gt;n1</title>
<path fill="none" stroke="#000000" d="M310.4586,-426.5752C244.3388,-414.4467 138.2172,-392.1647 105.5,-369 86.6133,-355.6276 72.3511,-333.5554 63.0883,-315.6778"/>
<polygon fill="#000000" stroke="#000000" points="66.0112,-313.6898 58.459,-306.2591 59.729,-316.7776 66.0112,-313.6898"/>
<text text-anchor="middle" x="110.5" y="-357.8" font-family="Helvetica,sans-Serif" font-size="14.00" fill="#000000">S</text>
</g>
<!-- n2 -->
<g id="node3" class="node">
<title>n2</title>
<polygon fill="none" stroke="#000000" points="422.5,-336 308.5,-336 308.5,-238 422.5,-238 422.5,-336"/>
<text text-anchor="start" x="360.5" y="-320.8" font-family="Helvetica,sans-Serif" font-size="14.00" fill="#000000">2</text>
<text text-anchor="start" x="325" y="-305.8" font-family="Helvetica,sans-Serif" font-size="14.00" fill="#000000">A → &#160;• y [5]</text>
<text text-anchor="start" x="318.5" y="-290.8" font-family="Helvetica,sans-Serif" font-size="14.00" fill="#000000">A → &#160;• z S [6]</text>
<text text-anchor="start" x="324.5" y="-275.8" font-family="Helvetica,sans-Serif" font-size="14.00" fill="#000000">S → &#160;• A [3]</text>
<text text-anchor="start" x="318.5" y="-260.8" font-family="Helvetica,sans-Serif" font-size="14.00" fill="#000000">S → &#160;• x S [2]</text>
<text text-anchor="start" x="316.5" y="-245.8" font-family="Helvetica,sans-Serif" font-size="14.00" fill="#000000">S → x • S [10]</text>
</g>
<!-- n0&#45;&gt;n2 -->
<g id="edge2" class="edge">
<title>n0&#45;&gt;n2</title>
<path fill="none" stroke="#000000" d="M365.5,-386.7989C365.5,-373.8296 365.5,-359.6997 365.5,-346.2608"/>
<polygon fill="#000000" stroke="#000000" points="369.0001,-346.1494 365.5,-336.1495 362.0001,-346.1495 369.0001,-346.1494"/>
<text text-anchor="middle" x="370" y="-357.8" font-family="Helvetica,sans-Serif" font-size="14.00" fill="#000000">x</text>
</g>
<!-- n3 -->
<g id="node4" class="node">
<title>n3</title>
<polygon fill="none" stroke="#000000" points="224.5,-38 126.5,-38 126.5,0 224.5,0 224.5,-38"/>
<text text-anchor="start" x="170.5" y="-22.8" font-family="Helvetica,sans-Serif" font-size="14.00" fill="#000000">3</text>
<text text-anchor="start" x="134.5" y="-7.8" font-family="Helvetica,sans-Serif" font-size="14.00" fill="#000000">S → A • &#160;[4]</text>
</g>
<!-- n0&#45;&gt;n3 -->
<g id="edge3" class="edge">
<title>n0&#45;&gt;n3</title>
<path fill="none" stroke="#000000" d="M310.2832,-390.907C259.7119,-345.5816 188.5908,-270.5986 160.5,-187 141.953,-131.8038 150.977,-113.0775 162.5,-56 163.0373,-53.3388 163.7225,-50.6089 164.4967,-47.8963"/>
<polygon fill="#000000" stroke="#000000" points="167.8527,-48.8931 167.5842,-38.3017 161.1892,-46.7488 167.8527,-48.8931"/>
<text text-anchor="middle" x="178.5" y="-208.8" font-family="Helvetica,sans-Serif" font-size="14.00" fill="#000000">A</text>
</g>
<!-- n4 -->
<g id="node5" class="node">
<title>n4</title>
<polygon fill="none" stroke="#000000" points="565,-38 468,-38 468,0 565,0 565,-38"/>
<text text-anchor="start" x="511.5" y="-22.8" font-family="Helvetica,sans-Serif" font-size="14.00" fill="#000000">4</text>
<text text-anchor="start" x="476" y="-7.8" font-family="Helvetica,sans-Serif" font-size="14.00" fill="#000000">A → y • &#160;[9]</text>
</g>
<!-- n0&#45;&gt;n4 -->
<g id="edge4" class="edge">
<title>n0&#45;&gt;n4</title>
<path fill="none" stroke="#000000" d="M420.7747,-401.1437C433.8923,-391.5704 447.3112,-380.6026 458.5,-369 470.736,-356.3115 472.8839,-351.8969 480.5,-336 510.5019,-273.3772 516.0461,-255.4875 527.5,-187 536.0069,-136.1337 529.8333,-122.5685 530.5,-71 530.5862,-64.3339 531.6992,-62.5579 530.5,-56 530.0074,-53.306 529.3285,-50.5536 528.5335,-47.8263"/>
<polygon fill="#000000" stroke="#000000" points="531.7976,-46.5533 525.2698,-38.2083 525.1688,-48.8026 531.7976,-46.5533"/>
<text text-anchor="middle" x="528" y="-208.8" font-family="Helvetica,sans-Serif" font-size="14.00" fill="#000000">y</text>
</g>
<!-- n5 -->
<g id="node6" class="node">
<title>n5</title>
<polygon fill="none" stroke="#000000" points="451.5,-187 341.5,-187 341.5,-89 451.5,-89 451.5,-187"/>
<text text-anchor="start" x="391.5" y="-171.8" font-family="Helvetica,sans-Serif" font-size="14.00" fill="#000000">5</text>
<text text-anchor="start" x="356" y="-156.8" font-family="Helvetica,sans-Serif" font-size="14.00" fill="#000000">A → &#160;• y [5]</text>
<text text-anchor="start" x="349.5" y="-141.8" font-family="Helvetica,sans-Serif" font-size="14.00" fill="#000000">A → &#160;• z S [6]</text>
<text text-anchor="start" x="352" y="-126.8" font-family="Helvetica,sans-Serif" font-size="14.00" fill="#000000">A → z • S [7]</text>
<text text-anchor="start" x="355.5" y="-111.8" font-family="Helvetica,sans-Serif" font-size="14.00" fill="#000000">S → &#160;• A [3]</text>
<text text-anchor="start" x="349.5" y="-96.8" font-family="Helvetica,sans-Serif" font-size="14.00" fill="#000000">S → &#160;• x S [2]</text>
</g>
<!-- n0&#45;&gt;n5 -->
<g id="edge5" class="edge">
<title>n0&#45;&gt;n5</title>
<path fill="none" stroke="#000000" d="M420.5407,-391.2125C435.7976,-375.5307 450.3895,-356.6305 458.5,-336 474.4359,-295.4644 470.432,-279.8893 458.5,-238 454.3456,-223.4154 447.3867,-208.88 439.5993,-195.5919"/>
<polygon fill="#000000" stroke="#000000" points="442.5827,-193.7616 434.3834,-187.0518 436.6088,-197.4103 442.5827,-193.7616"/>
<text text-anchor="middle" x="472.5" y="-283.3" font-family="Helvetica,sans-Serif" font-size="14.00" fill="#000000">z</text>
</g>
<!-- n2&#45;&gt;n2 -->
<g id="edge7" class="edge">
<title>n2&#45;&gt;n2</title>
<path fill="none" stroke="#000000" d="M422.7256,-300.1128C433.1727,-298.453 440.5,-294.082 440.5,-287 440.5,-282.4631 437.4929,-279.0388 432.5848,-276.7271"/>
<polygon fill="#000000" stroke="#000000" points="433.3037,-273.2919 422.7256,-273.8872 431.3661,-280.0185 433.3037,-273.2919"/>
<text text-anchor="middle" x="445" y="-283.3" font-family="Helvetica,sans-Serif" font-size="14.00" fill="#000000">x</text>
</g>
<!-- n2&#45;&gt;n3 -->
<g id="edge8" class="edge">
<title>n2&#45;&gt;n3</title>
<path fill="none" stroke="#000000" d="M308.0789,-271.6313C266.1635,-257.1527 212.0465,-230.9585 184.5,-187 158.0049,-144.7193 162.8625,-84.0582 169.0275,-48.3741"/>
<polygon fill="#000000" stroke="#000000" points="172.5417,-48.6241 170.9495,-38.1496 165.6622,-47.3308 172.5417,-48.6241"/>
<text text-anchor="middle" x="189.5" y="-134.3" font-family="Helvetica,sans-Serif" font-size="14.00" fill="#000000">A</text>
</g>
<!-- n2&#45;&gt;n4 -->
<g id="edge9" class="edge">
<title>n2&#45;&gt;n4</title>
<path fill="none" stroke="#000000" d="M422.6774,-252.6949C446.0275,-235.7952 471.1113,-213.3596 486.5,-187 511.95,-143.4063 516.8124,-83.4266 517.218,-48.1803"/>
<polygon fill="#000000" stroke="#000000" points="520.7179,-48.0816 517.2187,-38.0813 513.7179,-48.0811 520.7179,-48.0816"/>
<text text-anchor="middle" x="519" y="-134.3" font-family="Helvetica,sans-Serif" font-size="14.00" fill="#000000">y</text>
</g>
<!-- n2&#45;&gt;n5 -->
<g id="edge10" class="edge">
<title>n2&#45;&gt;n5</title>
<path fill="none" stroke="#000000" d="M363.6459,-237.6337C364.085,-226.7883 365.2064,-215.4311 367.5,-205 368.1124,-202.2147 368.8412,-199.4015 369.6612,-196.5867"/>
<polygon fill="#000000" stroke="#000000" points="372.9986,-197.6413 372.7638,-187.049 366.342,-195.4758 372.9986,-197.6413"/>
<text text-anchor="middle" x="371.5" y="-208.8" font-family="Helvetica,sans-Serif" font-size="14.00" fill="#000000">z</text>
</g>
<!-- n7 -->
<g id="node8" class="node">
<title>n7</title>
<polygon fill="none" stroke="#000000" points="323,-157 204,-157 204,-119 323,-119 323,-157"/>
<text text-anchor="start" x="258.5" y="-141.8" font-family="Helvetica,sans-Serif" font-size="14.00" fill="#000000">7</text>
<text text-anchor="start" x="212" y="-126.8" font-family="Helvetica,sans-Serif" font-size="14.00" fill="#000000">S → x S • &#160;[11]</text>
</g>
<!-- n2&#45;&gt;n7 -->
<g id="edge6" class="edge">
<title>n2&#45;&gt;n7</title>
<path fill="none" stroke="#000000" d="M331.8187,-237.7989C315.3401,-213.7272 296.1242,-185.657 282.2768,-165.4288"/>
<polygon fill="#000000" stroke="#000000" points="285.0452,-163.2768 276.5082,-157.0022 279.269,-167.231 285.0452,-163.2768"/>
<text text-anchor="middle" x="323.5" y="-208.8" font-family="Helvetica,sans-Serif" font-size="14.00" fill="#000000">S</text>
</g>
<!-- n5&#45;&gt;n2 -->
<g id="edge12" class="edge">
<title>n5&#45;&gt;n2</title>
<path fill="none" stroke="#000000" d="M386.2743,-187.1495C383.5766,-200.1156 380.637,-214.245 377.8406,-227.6856"/>
<polygon fill="#000000" stroke="#000000" points="374.3468,-227.2956 375.7365,-237.7989 381.2001,-228.7215 374.3468,-227.2956"/>
<text text-anchor="middle" x="386" y="-208.8" font-family="Helvetica,sans-Serif" font-size="14.00" fill="#000000">x</text>
</g>
<!-- n5&#45;&gt;n3 -->
<g id="edge13" class="edge">
<title>n5&#45;&gt;n3</title>
<path fill="none" stroke="#000000" d="M341.1947,-94.4402C338.2948,-92.5416 335.3868,-90.7164 332.5,-89 301.3676,-70.4897 264.4674,-53.7974 234.2654,-41.3596"/>
<polygon fill="#000000" stroke="#000000" points="235.2925,-37.999 224.7107,-37.474 232.6555,-44.4833 235.2925,-37.999"/>
<text text-anchor="middle" x="304.5" y="-59.8" font-family="Helvetica,sans-Serif" font-size="14.00" fill="#000000">A</text>
</g>
<!-- n5&#45;&gt;n4 -->
<g id="edge14" class="edge">
<title>n5&#45;&gt;n4</title>
<path fill="none" stroke="#000000" d="M446.0014,-88.9111C461.1128,-73.9257 477.1412,-58.0309 490.09,-45.1899"/>
<polygon fill="#000000" stroke="#000000" points="492.6919,-47.5389 497.328,-38.0122 487.7629,-42.5684 492.6919,-47.5389"/>
<text text-anchor="middle" x="482" y="-59.8" font-family="Helvetica,sans-Serif" font-size="14.00" fill="#000000">y</text>
</g>
<!-- n5&#45;&gt;n5 -->
<g id="edge15" class="edge">
<title>n5&#45;&gt;n5</title>
<path fill="none" stroke="#000000" d="M451.5733,-151.2111C462.0741,-149.6302 469.5,-145.2266 469.5,-138 469.5,-133.3705 466.4524,-129.8995 461.5011,-127.587"/>
<polygon fill="#000000" stroke="#000000" points="462.1478,-124.1329 451.5733,-124.7889 460.2489,-130.8705 462.1478,-124.1329"/>
<text text-anchor="middle" x="473.5" y="-134.3" font-family="Helvetica,sans-Serif" font-size="14.00" fill="#000000">z</text>
</g>
<!-- n6 -->
<g id="node7" class="node">
<title>n6</title>
<polygon fill="none" stroke="#000000" points="449.5,-38 339.5,-38 339.5,0 449.5,0 449.5,-38"/>
<text text-anchor="start" x="389.5" y="-22.8" font-family="Helvetica,sans-Serif" font-size="14.00" fill="#000000">6</text>
<text text-anchor="start" x="347.5" y="-7.8" font-family="Helvetica,sans-Serif" font-size="14.00" fill="#000000">A → z S • &#160;[8]</text>
</g>
<!-- n5&#45;&gt;n6 -->
<g id="edge11" class="edge">
<title>n5&#45;&gt;n6</title>
<path fill="none" stroke="#000000" d="M395.675,-88.9111C395.442,-75.0461 395.1958,-60.4026 394.9894,-48.1197"/>
<polygon fill="#000000" stroke="#000000" points="398.4872,-47.9519 394.8195,-38.0122 391.4882,-48.0696 398.4872,-47.9519"/>
<text text-anchor="middle" x="399.5" y="-59.8" font-family="Helvetica,sans-Serif" font-size="14.00" fill="#000000">S</text>
</g>
</g>
</svg>
