<?xml version="1.0" encoding="UTF-8" standalone="no"?>
<!DOCTYPE svg PUBLIC "-//W3C//DTD SVG 1.1//EN"
 "http://www.w3.org/Graphics/SVG/1.1/DTD/svg11.dtd">
<!-- Generated by graphviz version 2.40.1 (0)
 -->
<!-- Title: d Pages: 1 -->
<svg width="622pt" height="918pt"
 viewBox="0.00 0.00 621.50 918.00" xmlns="http://www.w3.org/2000/svg" xmlns:xlink="http://www.w3.org/1999/xlink">
<g id="graph0" class="graph" transform="scale(1 1) rotate(0) translate(4 914)">
<title>d</title>
<polygon fill="#ffffff" stroke="transparent" points="-4,4 -4,-914 617.5,-914 617.5,4 -4,4"/>
<!-- n0 -->
<g id="node1" class="node">
<title>n0</title>
<polygon fill="none" stroke="#000000" points="445.5,-910 321.5,-910 321.5,-782 445.5,-782 445.5,-910"/>
<text text-anchor="start" x="378.5" y="-894.8" font-family="Helvetica,sans-Serif" font-size="14.00" fill="#000000">0</text>
<text text-anchor="start" x="342" y="-879.8" font-family="Helvetica,sans-Serif" font-size="14.00" fill="#000000">S&#39; → &#160;• s [0]</text>
<text text-anchor="start" x="336" y="-864.8" font-family="Helvetica,sans-Serif" font-size="14.00" fill="#000000">f → &#160;• ( s ) [9]</text>
<text text-anchor="start" x="341.5" y="-849.8" font-family="Helvetica,sans-Serif" font-size="14.00" fill="#000000">f → &#160;• ID [8]</text>
<text text-anchor="start" x="345" y="-834.8" font-family="Helvetica,sans-Serif" font-size="14.00" fill="#000000">p → &#160;• f [6]</text>
<text text-anchor="start" x="332" y="-819.8" font-family="Helvetica,sans-Serif" font-size="14.00" fill="#000000">p → &#160;• p * f [5]</text>
<text text-anchor="start" x="344" y="-804.8" font-family="Helvetica,sans-Serif" font-size="14.00" fill="#000000">s → &#160;• p [3]</text>
<text text-anchor="start" x="329.5" y="-789.8" font-family="Helvetica,sans-Serif" font-size="14.00" fill="#000000">s → &#160;• s + p [2]</text>
</g>
<!-- n1 -->
<g id="node2" class="node">
<title>n1</title>
<polygon fill="none" stroke="#000000" points="447.5,-731 319.5,-731 319.5,-678 447.5,-678 447.5,-731"/>
<text text-anchor="start" x="378.5" y="-715.8" font-family="Helvetica,sans-Serif" font-size="14.00" fill="#000000">1</text>
<text text-anchor="start" x="342" y="-700.8" font-family="Helvetica,sans-Serif" font-size="14.00" fill="#000000">S&#39; → s • &#160;[1]</text>
<text text-anchor="start" x="327.5" y="-685.8" font-family="Helvetica,sans-Serif" font-size="14.00" fill="#000000">s → s • + p [17]</text>
</g>
<!-- n0&#45;&gt;n1 -->
<g id="edge1" class="edge">
<title>n0&#45;&gt;n1</title>
<path fill="none" stroke="#000000" d="M383.5,-781.8742C383.5,-768.0744 383.5,-753.9356 383.5,-741.5825"/>
<polygon fill="#000000" stroke="#000000" points="387.0001,-741.2398 383.5,-731.2398 380.0001,-741.2398 387.0001,-741.2398"/>
<text text-anchor="middle" x="387.5" y="-752.8" font-family="Helvetica,sans-Serif" font-size="14.00" fill="#000000">s</text>
</g>
<!-- n2 -->
<g id="node3" class="node">
<title>n2</title>
<polygon fill="none" stroke="#000000" points="123,-261 0,-261 0,-208 123,-208 123,-261"/>
<text text-anchor="start" x="56.5" y="-245.8" font-family="Helvetica,sans-Serif" font-size="14.00" fill="#000000">2</text>
<text text-anchor="start" x="8" y="-230.8" font-family="Helvetica,sans-Serif" font-size="14.00" fill="#000000">p → p • * f [14]</text>
<text text-anchor="start" x="22" y="-215.8" font-family="Helvetica,sans-Serif" font-size="14.00" fill="#000000">s → p • &#160;[4]</text>
</g>
<!-- n0&#45;&gt;n2 -->
<g id="edge2" class="edge">
<title>n0&#45;&gt;n2</title>
<path fill="none" stroke="#000000" d="M321.4895,-834.5858C219.4932,-814.0247 27.5,-767.0182 27.5,-704.5 27.5,-704.5 27.5,-704.5 27.5,-414 27.5,-353.6782 25.8258,-337.2498 41.5,-279 42.2428,-276.2395 43.1374,-273.4335 44.1308,-270.6418"/>
<polygon fill="#000000" stroke="#000000" points="47.4047,-271.8802 47.8121,-261.2932 40.8915,-269.3153 47.4047,-271.8802"/>
<text text-anchor="middle" x="32.5" y="-574.3" font-family="Helvetica,sans-Serif" font-size="14.00" fill="#000000">p</text>
</g>
<!-- n3 -->
<g id="node4" class="node">
<title>n3</title>
<polygon fill="none" stroke="#000000" points="517,-253.5 424,-253.5 424,-215.5 517,-215.5 517,-253.5"/>
<text text-anchor="start" x="465.5" y="-238.3" font-family="Helvetica,sans-Serif" font-size="14.00" fill="#000000">3</text>
<text text-anchor="start" x="432" y="-223.3" font-family="Helvetica,sans-Serif" font-size="14.00" fill="#000000">p → f • &#160;[7]</text>
</g>
<!-- n0&#45;&gt;n3 -->
<g id="edge3" class="edge">
<title>n0&#45;&gt;n3</title>
<path fill="none" stroke="#000000" d="M445.5797,-822.9536C493.4366,-800.7075 551.5,-761.8913 551.5,-704.5 551.5,-704.5 551.5,-704.5 551.5,-414 551.5,-355.9385 515.8545,-295.9181 491.8563,-262.0887"/>
<polygon fill="#000000" stroke="#000000" points="494.4459,-259.6986 485.7355,-253.6671 488.7835,-263.814 494.4459,-259.6986"/>
<text text-anchor="middle" x="554.5" y="-574.3" font-family="Helvetica,sans-Serif" font-size="14.00" fill="#000000">f</text>
</g>
<!-- n4 -->
<g id="node5" class="node">
<title>n4</title>
<polygon fill="none" stroke="#000000" points="480,-38 371,-38 371,0 480,0 480,-38"/>
<text text-anchor="start" x="420.5" y="-22.8" font-family="Helvetica,sans-Serif" font-size="14.00" fill="#000000">4</text>
<text text-anchor="start" x="379" y="-7.8" font-family="Helvetica,sans-Serif" font-size="14.00" fill="#000000">f → ID • &#160;[13]</text>
</g>
<!-- n0&#45;&gt;n4 -->
<g id="edge4" class="edge">
<title>n0&#45;&gt;n4</title>
<path fill="none" stroke="#000000" d="M445.6851,-832.8517C508.8692,-815.4157 597.5,-777.8797 597.5,-704.5 597.5,-704.5 597.5,-704.5 597.5,-123 597.5,-70.9292 539.0612,-44.2264 490.3104,-31.0097"/>
<polygon fill="#000000" stroke="#000000" points="490.9508,-27.5607 480.3948,-28.4662 489.2115,-34.3412 490.9508,-27.5607"/>
<text text-anchor="middle" x="605.5" y="-410.3" font-family="Helvetica,sans-Serif" font-size="14.00" fill="#000000">ID</text>
</g>
<!-- n5 -->
<g id="node6" class="node">
<title>n5</title>
<polygon fill="none" stroke="#000000" points="323.5,-478 199.5,-478 199.5,-350 323.5,-350 323.5,-478"/>
<text text-anchor="start" x="256.5" y="-462.8" font-family="Helvetica,sans-Serif" font-size="14.00" fill="#000000">5</text>
<text text-anchor="start" x="214" y="-447.8" font-family="Helvetica,sans-Serif" font-size="14.00" fill="#000000">f → &#160;• ( s ) [9]</text>
<text text-anchor="start" x="219.5" y="-432.8" font-family="Helvetica,sans-Serif" font-size="14.00" fill="#000000">f → &#160;• ID [8]</text>
<text text-anchor="start" x="211.5" y="-417.8" font-family="Helvetica,sans-Serif" font-size="14.00" fill="#000000">f → ( • s ) [10]</text>
<text text-anchor="start" x="223" y="-402.8" font-family="Helvetica,sans-Serif" font-size="14.00" fill="#000000">p → &#160;• f [6]</text>
<text text-anchor="start" x="210" y="-387.8" font-family="Helvetica,sans-Serif" font-size="14.00" fill="#000000">p → &#160;• p * f [5]</text>
<text text-anchor="start" x="222" y="-372.8" font-family="Helvetica,sans-Serif" font-size="14.00" fill="#000000">s → &#160;• p [3]</text>
<text text-anchor="start" x="207.5" y="-357.8" font-family="Helvetica,sans-Serif" font-size="14.00" fill="#000000">s → &#160;• s + p [2]</text>
</g>
<!-- n0&#45;&gt;n5 -->
<g id="edge5" class="edge">
<title>n0&#45;&gt;n5</title>
<path fill="none" stroke="#000000" d="M336.4077,-781.7727C292.3901,-717.1711 230.1519,-612.8056 207.5,-511 205.7827,-503.2819 206.0025,-495.5465 207.5826,-487.9976"/>
<polygon fill="#000000" stroke="#000000" points="211.0005,-488.7758 210.395,-478.1983 204.2721,-486.8447 211.0005,-488.7758"/>
<text text-anchor="middle" x="265.5" y="-648.8" font-family="Helvetica,sans-Serif" font-size="14.00" fill="#000000">(</text>
</g>
<!-- n8 -->
<g id="node9" class="node">
<title>n8</title>
<polygon fill="none" stroke="#000000" points="447.5,-627 319.5,-627 319.5,-529 447.5,-529 447.5,-627"/>
<text text-anchor="start" x="378.5" y="-611.8" font-family="Helvetica,sans-Serif" font-size="14.00" fill="#000000">8</text>
<text text-anchor="start" x="336" y="-596.8" font-family="Helvetica,sans-Serif" font-size="14.00" fill="#000000">f → &#160;• ( s ) [9]</text>
<text text-anchor="start" x="341.5" y="-581.8" font-family="Helvetica,sans-Serif" font-size="14.00" fill="#000000">f → &#160;• ID [8]</text>
<text text-anchor="start" x="345" y="-566.8" font-family="Helvetica,sans-Serif" font-size="14.00" fill="#000000">p → &#160;• f [6]</text>
<text text-anchor="start" x="332" y="-551.8" font-family="Helvetica,sans-Serif" font-size="14.00" fill="#000000">p → &#160;• p * f [5]</text>
<text text-anchor="start" x="327.5" y="-536.8" font-family="Helvetica,sans-Serif" font-size="14.00" fill="#000000">s → s + • p [18]</text>
</g>
<!-- n1&#45;&gt;n8 -->
<g id="edge6" class="edge">
<title>n1&#45;&gt;n8</title>
<path fill="none" stroke="#000000" d="M383.5,-677.9815C383.5,-666.1468 383.5,-651.6866 383.5,-637.4808"/>
<polygon fill="#000000" stroke="#000000" points="387.0001,-637.223 383.5,-627.223 380.0001,-637.223 387.0001,-637.223"/>
<text text-anchor="middle" x="390" y="-648.8" font-family="Helvetica,sans-Serif" font-size="14.00" fill="#000000">+</text>
</g>
<!-- n10 -->
<g id="node11" class="node">
<title>n10</title>
<polygon fill="none" stroke="#000000" points="221,-157 98,-157 98,-89 221,-89 221,-157"/>
<text text-anchor="start" x="150" y="-141.8" font-family="Helvetica,sans-Serif" font-size="14.00" fill="#000000">10</text>
<text text-anchor="start" x="112" y="-126.8" font-family="Helvetica,sans-Serif" font-size="14.00" fill="#000000">f → &#160;• ( s ) [9]</text>
<text text-anchor="start" x="117.5" y="-111.8" font-family="Helvetica,sans-Serif" font-size="14.00" fill="#000000">f → &#160;• ID [8]</text>
<text text-anchor="start" x="106" y="-96.8" font-family="Helvetica,sans-Serif" font-size="14.00" fill="#000000">p → p * • f [15]</text>
</g>
<!-- n2&#45;&gt;n10 -->
<g id="edge7" class="edge">
<title>n2&#45;&gt;n10</title>
<path fill="none" stroke="#000000" d="M84.9734,-207.793C96.2491,-194.9641 110.0267,-179.2885 122.6547,-164.9209"/>
<polygon fill="#000000" stroke="#000000" points="125.556,-166.9216 129.5288,-157.0999 120.2982,-162.3004 125.556,-166.9216"/>
<text text-anchor="middle" x="117.5" y="-178.8" font-family="Helvetica,sans-Serif" font-size="14.00" fill="#000000">*</text>
</g>
<!-- n5&#45;&gt;n2 -->
<g id="edge9" class="edge">
<title>n5&#45;&gt;n2</title>
<path fill="none" stroke="#000000" d="M211.4787,-349.58C207.5947,-343.7462 203.8765,-337.836 200.5,-332 187.6407,-309.774 196.0444,-296.7613 177.5,-279 173.5302,-275.1978 154.3291,-267.3678 132.6563,-259.3205"/>
<polygon fill="#000000" stroke="#000000" points="133.8474,-256.0295 123.2538,-255.8695 131.4354,-262.6008 133.8474,-256.0295"/>
<text text-anchor="middle" x="205.5" y="-301.8" font-family="Helvetica,sans-Serif" font-size="14.00" fill="#000000">p</text>
</g>
<!-- n5&#45;&gt;n3 -->
<g id="edge10" class="edge">
<title>n5&#45;&gt;n3</title>
<path fill="none" stroke="#000000" d="M323.641,-360.6301C362.3008,-327.427 410.2711,-286.2277 440.6435,-260.1423"/>
<polygon fill="#000000" stroke="#000000" points="443.0393,-262.6984 448.3451,-253.5278 438.4785,-257.388 443.0393,-262.6984"/>
<text text-anchor="middle" x="416.5" y="-301.8" font-family="Helvetica,sans-Serif" font-size="14.00" fill="#000000">f</text>
</g>
<!-- n5&#45;&gt;n4 -->
<g id="edge11" class="edge">
<title>n5&#45;&gt;n4</title>
<path fill="none" stroke="#000000" d="M255.905,-349.6791C250.0398,-267.2777 245.0688,-130.1675 272.5,-89 292.4634,-59.0399 328.668,-41.7028 360.8481,-31.7786"/>
<polygon fill="#000000" stroke="#000000" points="362.0513,-35.0741 370.6833,-28.9309 360.1044,-28.3503 362.0513,-35.0741"/>
<text text-anchor="middle" x="260.5" y="-178.8" font-family="Helvetica,sans-Serif" font-size="14.00" fill="#000000">ID</text>
</g>
<!-- n5&#45;&gt;n5 -->
<g id="edge12" class="edge">
<title>n5&#45;&gt;n5</title>
<path fill="none" stroke="#000000" d="M323.5546,-429.4033C334.1554,-427.2985 341.5,-422.1641 341.5,-414 341.5,-408.6423 338.337,-404.5894 333.1663,-401.8413"/>
<polygon fill="#000000" stroke="#000000" points="334.1488,-398.4789 323.5546,-398.5967 331.9099,-405.1113 334.1488,-398.4789"/>
<text text-anchor="middle" x="344.5" y="-410.3" font-family="Helvetica,sans-Serif" font-size="14.00" fill="#000000">(</text>
</g>
<!-- n6 -->
<g id="node7" class="node">
<title>n6</title>
<polygon fill="none" stroke="#000000" points="405.5,-261 277.5,-261 277.5,-208 405.5,-208 405.5,-261"/>
<text text-anchor="start" x="336.5" y="-245.8" font-family="Helvetica,sans-Serif" font-size="14.00" fill="#000000">6</text>
<text text-anchor="start" x="291.5" y="-230.8" font-family="Helvetica,sans-Serif" font-size="14.00" fill="#000000">f → ( s • ) [11]</text>
<text text-anchor="start" x="285.5" y="-215.8" font-family="Helvetica,sans-Serif" font-size="14.00" fill="#000000">s → s • + p [17]</text>
</g>
<!-- n5&#45;&gt;n6 -->
<g id="edge8" class="edge">
<title>n5&#45;&gt;n6</title>
<path fill="none" stroke="#000000" d="M290.043,-349.9566C301.9792,-323.1749 315.4018,-293.0578 325.5447,-270.2998"/>
<polygon fill="#000000" stroke="#000000" points="328.8029,-271.5868 329.6769,-261.0281 322.4091,-268.7372 328.8029,-271.5868"/>
<text text-anchor="middle" x="323.5" y="-301.8" font-family="Helvetica,sans-Serif" font-size="14.00" fill="#000000">s</text>
</g>
<!-- n7 -->
<g id="node8" class="node">
<title>n7</title>
<polygon fill="none" stroke="#000000" points="401.5,-142 281.5,-142 281.5,-104 401.5,-104 401.5,-142"/>
<text text-anchor="start" x="336.5" y="-126.8" font-family="Helvetica,sans-Serif" font-size="14.00" fill="#000000">7</text>
<text text-anchor="start" x="289.5" y="-111.8" font-family="Helvetica,sans-Serif" font-size="14.00" fill="#000000">f → ( s ) • &#160;[12]</text>
</g>
<!-- n6&#45;&gt;n7 -->
<g id="edge13" class="edge">
<title>n6&#45;&gt;n7</title>
<path fill="none" stroke="#000000" d="M341.5,-207.793C341.5,-191.0401 341.5,-169.4328 341.5,-152.2231"/>
<polygon fill="#000000" stroke="#000000" points="345.0001,-152.1586 341.5,-142.1586 338.0001,-152.1587 345.0001,-152.1586"/>
<text text-anchor="middle" x="344.5" y="-178.8" font-family="Helvetica,sans-Serif" font-size="14.00" fill="#000000">)</text>
</g>
<!-- n6&#45;&gt;n8 -->
<g id="edge14" class="edge">
<title>n6&#45;&gt;n8</title>
<path fill="none" stroke="#000000" d="M361.3334,-261.1838C364.6254,-266.8144 367.5861,-272.9039 369.5,-279 394.6252,-359.029 393.6324,-457.0065 389.4687,-518.4832"/>
<polygon fill="#000000" stroke="#000000" points="385.9548,-518.5478 388.7187,-528.7757 392.9363,-519.0566 385.9548,-518.5478"/>
<text text-anchor="middle" x="398" y="-410.3" font-family="Helvetica,sans-Serif" font-size="14.00" fill="#000000">+</text>
</g>
<!-- n8&#45;&gt;n3 -->
<g id="edge16" class="edge">
<title>n8&#45;&gt;n3</title>
<path fill="none" stroke="#000000" d="M398.5389,-528.6875C400.258,-522.7409 401.9484,-516.7422 403.5,-511 427.7381,-421.3 452.5333,-314.123 463.9785,-263.5918"/>
<polygon fill="#000000" stroke="#000000" points="467.4245,-264.2208 466.2131,-253.6954 460.5964,-262.6789 467.4245,-264.2208"/>
<text text-anchor="middle" x="445.5" y="-410.3" font-family="Helvetica,sans-Serif" font-size="14.00" fill="#000000">f</text>
</g>
<!-- n8&#45;&gt;n4 -->
<g id="edge17" class="edge">
<title>n8&#45;&gt;n4</title>
<path fill="none" stroke="#000000" d="M421.4291,-528.8035C432.4102,-513.1236 443.7754,-495.3335 452.5,-478 498.3131,-386.9815 509.831,-361.5254 526.5,-261 530.3533,-237.7618 532.2225,-230.8499 526.5,-208 510.9191,-145.7854 470.5223,-81.6559 445.7971,-46.4029"/>
<polygon fill="#000000" stroke="#000000" points="448.5239,-44.1982 439.8733,-38.0812 442.8212,-48.2577 448.5239,-44.1982"/>
<text text-anchor="middle" x="537.5" y="-230.8" font-family="Helvetica,sans-Serif" font-size="14.00" fill="#000000">ID</text>
</g>
<!-- n8&#45;&gt;n5 -->
<g id="edge18" class="edge">
<title>n8&#45;&gt;n5</title>
<path fill="none" stroke="#000000" d="M346.896,-528.7946C336.9804,-515.4654 326.0351,-500.7521 315.3834,-486.4334"/>
<polygon fill="#000000" stroke="#000000" points="317.9325,-483.9961 309.1557,-478.0617 312.3161,-488.1742 317.9325,-483.9961"/>
<text text-anchor="middle" x="335.5" y="-499.8" font-family="Helvetica,sans-Serif" font-size="14.00" fill="#000000">(</text>
</g>
<!-- n9 -->
<g id="node10" class="node">
<title>n9</title>
<polygon fill="none" stroke="#000000" points="176,-332 43,-332 43,-279 176,-279 176,-332"/>
<text text-anchor="start" x="104.5" y="-316.8" font-family="Helvetica,sans-Serif" font-size="14.00" fill="#000000">9</text>
<text text-anchor="start" x="56" y="-301.8" font-family="Helvetica,sans-Serif" font-size="14.00" fill="#000000">p → p • * f [14]</text>
<text text-anchor="start" x="51" y="-286.8" font-family="Helvetica,sans-Serif" font-size="14.00" fill="#000000">s → s + p • &#160;[19]</text>
</g>
<!-- n8&#45;&gt;n9 -->
<g id="edge15" class="edge">
<title>n8&#45;&gt;n9</title>
<path fill="none" stroke="#000000" d="M319.4858,-557.0661C278.3218,-540.9031 226.0755,-514.9924 190.5,-478 153.1321,-439.1438 130.5183,-379.8687 119.0153,-341.9083"/>
<polygon fill="#000000" stroke="#000000" points="122.3631,-340.8864 116.1951,-332.2721 115.6449,-342.8527 122.3631,-340.8864"/>
<text text-anchor="middle" x="233.5" y="-499.8" font-family="Helvetica,sans-Serif" font-size="14.00" fill="#000000">p</text>
</g>
<!-- n9&#45;&gt;n10 -->
<g id="edge19" class="edge">
<title>n9&#45;&gt;n10</title>
<path fill="none" stroke="#000000" d="M124.145,-278.679C126.8722,-272.9596 129.4912,-266.871 131.5,-261 141.9559,-230.4402 149.0773,-194.6669 153.521,-167.2011"/>
<polygon fill="#000000" stroke="#000000" points="157.012,-167.5294 155.0944,-157.1096 150.0956,-166.451 157.012,-167.5294"/>
<text text-anchor="middle" x="149.5" y="-230.8" font-family="Helvetica,sans-Serif" font-size="14.00" fill="#000000">*</text>
</g>
<!-- n10&#45;&gt;n4 -->
<g id="edge21" class="edge">
<title>n10&#45;&gt;n4</title>
<path fill="none" stroke="#000000" d="M182.5566,-88.9081C192.5179,-76.6978 205.184,-63.9907 219.5,-56 243.2219,-42.7593 309.5147,-32.3629 360.5531,-26.0055"/>
<polygon fill="#000000" stroke="#000000" points="361.0372,-29.4725 370.5403,-24.7882 360.1902,-22.5239 361.0372,-29.4725"/>
<text text-anchor="middle" x="227.5" y="-59.8" font-family="Helvetica,sans-Serif" font-size="14.00" fill="#000000">ID</text>
</g>
<!-- n10&#45;&gt;n5 -->
<g id="edge22" class="edge">
<title>n10&#45;&gt;n5</title>
<path fill="none" stroke="#000000" d="M171.464,-157.1325C187.1301,-201.8271 215.0193,-281.3932 235.62,-340.1659"/>
<polygon fill="#000000" stroke="#000000" points="232.3785,-341.4993 238.9894,-349.7786 238.9845,-339.1837 232.3785,-341.4993"/>
<text text-anchor="middle" x="209.5" y="-230.8" font-family="Helvetica,sans-Serif" font-size="14.00" fill="#000000">(</text>
</g>
<!-- n11 -->
<g id="node12" class="node">
<title>n11</title>
<polygon fill="none" stroke="#000000" points="223.5,-38 95.5,-38 95.5,0 223.5,0 223.5,-38"/>
<text text-anchor="start" x="150" y="-22.8" font-family="Helvetica,sans-Serif" font-size="14.00" fill="#000000">11</text>
<text text-anchor="start" x="103.5" y="-7.8" font-family="Helvetica,sans-Serif" font-size="14.00" fill="#000000">p → p * f • &#160;[16]</text>
</g>
<!-- n10&#45;&gt;n11 -->
<g id="edge20" class="edge">
<title>n10&#45;&gt;n11</title>
<path fill="none" stroke="#000000" d="M159.5,-88.9465C159.5,-75.8027 159.5,-60.9152 159.5,-48.2636"/>
<polygon fill="#000000" stroke="#000000" points="163.0001,-48.2495 159.5,-38.2495 156.0001,-48.2495 163.0001,-48.2495"/>
<text text-anchor="middle" x="162.5" y="-59.8" font-family="Helvetica,sans-Serif" font-size="14.00" fill="#000000">f</text>
</g>
</g>
</svg>
