<?xml version="1.0" encoding="UTF-8" standalone="no"?>
<!DOCTYPE svg PUBLIC "-//W3C//DTD SVG 1.1//EN"
 "http://www.w3.org/Graphics/SVG/1.1/DTD/svg11.dtd">
<!-- Generated by graphviz version 2.40.1 (0)
 -->
<!-- Title: d Pages: 1 -->
<svg width="482pt" height="936pt"
 viewBox="0.00 0.00 482.08 936.00" xmlns="http://www.w3.org/2000/svg" xmlns:xlink="http://www.w3.org/1999/xlink">
<g id="graph0" class="graph" transform="scale(1 1) rotate(0) translate(4 932)">
<title>d</title>
<polygon fill="#ffffff" stroke="transparent" points="-4,4 -4,-932 478.0803,-932 478.0803,4 -4,4"/>
<!-- n0 -->
<g id="node1" class="node">
<title>n0</title>
<polygon fill="none" stroke="#000000" points="257.5803,-928 182.5803,-928 182.5803,-890 257.5803,-890 257.5803,-928"/>
<text text-anchor="start" x="215.0803" y="-912.8" font-family="Helvetica,sans-Serif" font-size="14.00" fill="#000000">0</text>
<text text-anchor="start" x="190.5803" y="-897.8" font-family="Helvetica,sans-Serif" font-size="14.00" fill="#000000">S&#39; → &#160;• s</text>
</g>
<!-- n1 -->
<g id="node2" class="node">
<title>n1</title>
<polygon fill="none" stroke="#000000" points="191.5803,-839 116.5803,-839 116.5803,-801 191.5803,-801 191.5803,-839"/>
<text text-anchor="start" x="149.0803" y="-823.8" font-family="Helvetica,sans-Serif" font-size="14.00" fill="#000000">1</text>
<text text-anchor="start" x="124.5803" y="-808.8" font-family="Helvetica,sans-Serif" font-size="14.00" fill="#000000">S&#39; → s • </text>
</g>
<!-- n0&#45;&gt;n1 -->
<g id="edge1" class="edge">
<title>n0&#45;&gt;n1</title>
<path fill="none" stroke="#000000" d="M205.7593,-889.6883C196.5916,-877.3258 184.5561,-861.0962 174.4066,-847.4098"/>
<polygon fill="#000000" stroke="#000000" points="177.1413,-845.2216 168.3734,-839.274 171.5187,-849.3912 177.1413,-845.2216"/>
<text text-anchor="middle" x="195.0803" y="-860.8" font-family="Helvetica,sans-Serif" font-size="14.00" fill="#000000">s</text>
</g>
<!-- n2 -->
<g id="node3" class="node">
<title>n2</title>
<polygon fill="none" stroke="#000000" points="404.0803,-839 304.0803,-839 304.0803,-801 404.0803,-801 404.0803,-839"/>
<text text-anchor="start" x="349.0803" y="-823.8" font-family="Helvetica,sans-Serif" font-size="14.00" fill="#000000">2</text>
<text text-anchor="start" x="312.0803" y="-808.8" font-family="Helvetica,sans-Serif" font-size="14.00" fill="#000000">s → &#160;• s + p</text>
</g>
<!-- n0&#45;&gt;n2 -->
<g id="edge2" class="edge">
<title>n0&#45;&gt;n2</title>
<path fill="none" stroke="#000000" d="M248.8267,-889.9073C268.6979,-876.7092 295.3205,-859.027 316.8185,-844.7485"/>
<polygon fill="#000000" stroke="#000000" points="318.9879,-847.5094 325.3815,-839.0612 315.115,-841.6783 318.9879,-847.5094"/>
<text text-anchor="start" x="295.0803" y="-860.8" font-family="Helvetica,sans-Serif" font-size="14.00" fill="#000000">λ</text>
</g>
<!-- n3 -->
<g id="node4" class="node">
<title>n3</title>
<polygon fill="none" stroke="#000000" points="358.5803,-661 287.5803,-661 287.5803,-623 358.5803,-623 358.5803,-661"/>
<text text-anchor="start" x="318.0803" y="-645.8" font-family="Helvetica,sans-Serif" font-size="14.00" fill="#000000">3</text>
<text text-anchor="start" x="295.5803" y="-630.8" font-family="Helvetica,sans-Serif" font-size="14.00" fill="#000000">s → &#160;• p</text>
</g>
<!-- n0&#45;&gt;n3 -->
<g id="edge3" class="edge">
<title>n0&#45;&gt;n3</title>
<path fill="none" stroke="#000000" d="M215.0602,-889.8353C205.1437,-847.3758 187.7866,-744.0104 234.0803,-679 244.2887,-664.6644 261.1306,-655.8629 277.4327,-650.4679"/>
<polygon fill="#000000" stroke="#000000" points="278.8385,-653.7031 287.4492,-647.5299 276.8683,-646.986 278.8385,-653.7031"/>
<text text-anchor="start" x="205.0803" y="-771.8" font-family="Helvetica,sans-Serif" font-size="14.00" fill="#000000">λ</text>
</g>
<!-- n2&#45;&gt;n2 -->
<g id="edge5" class="edge">
<title>n2&#45;&gt;n2</title>
<path fill="none" stroke="#000000" d="M404.1942,-827.96C414.5985,-827.1221 422.0803,-824.4688 422.0803,-820 422.0803,-817.1372 419.0098,-815.0195 414.0674,-813.6468"/>
<polygon fill="#000000" stroke="#000000" points="414.6266,-810.1918 404.1942,-812.04 413.5021,-817.1009 414.6266,-810.1918"/>
<text text-anchor="start" x="422.0803" y="-816.3" font-family="Helvetica,sans-Serif" font-size="14.00" fill="#000000">λ</text>
</g>
<!-- n2&#45;&gt;n3 -->
<g id="edge6" class="edge">
<title>n2&#45;&gt;n3</title>
<path fill="none" stroke="#000000" d="M356.1693,-800.6351C358.0004,-778.829 359.4798,-742.4614 353.0803,-712 350.0988,-697.8081 344.1653,-682.9279 338.3566,-670.5541"/>
<polygon fill="#000000" stroke="#000000" points="341.3292,-668.6664 333.7837,-661.229 335.0442,-671.7485 341.3292,-668.6664"/>
<text text-anchor="start" x="357.0803" y="-727.3" font-family="Helvetica,sans-Serif" font-size="14.00" fill="#000000">λ</text>
</g>
<!-- n17 -->
<g id="node18" class="node">
<title>n17</title>
<polygon fill="none" stroke="#000000" points="343.5803,-750 248.5803,-750 248.5803,-712 343.5803,-712 343.5803,-750"/>
<text text-anchor="start" x="286.5803" y="-734.8" font-family="Helvetica,sans-Serif" font-size="14.00" fill="#000000">17</text>
<text text-anchor="start" x="256.5803" y="-719.8" font-family="Helvetica,sans-Serif" font-size="14.00" fill="#000000">s → s • + p</text>
</g>
<!-- n2&#45;&gt;n17 -->
<g id="edge4" class="edge">
<title>n2&#45;&gt;n17</title>
<path fill="none" stroke="#000000" d="M341.4952,-800.6883C333.5147,-788.4425 323.0614,-772.4021 314.1957,-758.7978"/>
<polygon fill="#000000" stroke="#000000" points="317.033,-756.741 308.6409,-750.274 311.1684,-760.5629 317.033,-756.741"/>
<text text-anchor="middle" x="332.0803" y="-771.8" font-family="Helvetica,sans-Serif" font-size="14.00" fill="#000000">s</text>
</g>
<!-- n4 -->
<g id="node5" class="node">
<title>n4</title>
<polygon fill="none" stroke="#000000" points="398.5803,-572 327.5803,-572 327.5803,-534 398.5803,-534 398.5803,-572"/>
<text text-anchor="start" x="358.0803" y="-556.8" font-family="Helvetica,sans-Serif" font-size="14.00" fill="#000000">4</text>
<text text-anchor="start" x="335.5803" y="-541.8" font-family="Helvetica,sans-Serif" font-size="14.00" fill="#000000">s → p • </text>
</g>
<!-- n3&#45;&gt;n4 -->
<g id="edge7" class="edge">
<title>n3&#45;&gt;n4</title>
<path fill="none" stroke="#000000" d="M331.7597,-622.6883C337.1586,-610.6757 344.1986,-595.0117 350.2364,-581.5778"/>
<polygon fill="#000000" stroke="#000000" points="353.5108,-582.8299 354.4178,-572.274 347.126,-579.9603 353.5108,-582.8299"/>
<text text-anchor="middle" x="350.0803" y="-593.8" font-family="Helvetica,sans-Serif" font-size="14.00" fill="#000000">p</text>
</g>
<!-- n5 -->
<g id="node6" class="node">
<title>n5</title>
<polygon fill="none" stroke="#000000" points="282.5803,-572 187.5803,-572 187.5803,-534 282.5803,-534 282.5803,-572"/>
<text text-anchor="start" x="230.0803" y="-556.8" font-family="Helvetica,sans-Serif" font-size="14.00" fill="#000000">5</text>
<text text-anchor="start" x="195.5803" y="-541.8" font-family="Helvetica,sans-Serif" font-size="14.00" fill="#000000">p → &#160;• p * f</text>
</g>
<!-- n3&#45;&gt;n5 -->
<g id="edge8" class="edge">
<title>n3&#45;&gt;n5</title>
<path fill="none" stroke="#000000" d="M303.9856,-622.6883C291.5314,-610.0926 275.1078,-593.4824 261.4188,-579.6378"/>
<polygon fill="#000000" stroke="#000000" points="263.6576,-576.9241 254.1377,-572.274 258.6799,-581.8458 263.6576,-576.9241"/>
<text text-anchor="start" x="284.0803" y="-593.8" font-family="Helvetica,sans-Serif" font-size="14.00" fill="#000000">λ</text>
</g>
<!-- n6 -->
<g id="node7" class="node">
<title>n6</title>
<polygon fill="none" stroke="#000000" points="194.5803,-483 125.5803,-483 125.5803,-445 194.5803,-445 194.5803,-483"/>
<text text-anchor="start" x="155.0803" y="-467.8" font-family="Helvetica,sans-Serif" font-size="14.00" fill="#000000">6</text>
<text text-anchor="start" x="133.5803" y="-452.8" font-family="Helvetica,sans-Serif" font-size="14.00" fill="#000000">p → &#160;• f</text>
</g>
<!-- n3&#45;&gt;n6 -->
<g id="edge9" class="edge">
<title>n3&#45;&gt;n6</title>
<path fill="none" stroke="#000000" d="M287.4554,-636.4217C251.206,-628.7053 196.5625,-611.0166 169.0803,-572 153.0135,-549.1899 152.5404,-516.5677 154.9866,-493.1544"/>
<polygon fill="#000000" stroke="#000000" points="158.4738,-493.4764 156.2704,-483.1132 151.5303,-492.5886 158.4738,-493.4764"/>
<text text-anchor="start" x="169.0803" y="-549.3" font-family="Helvetica,sans-Serif" font-size="14.00" fill="#000000">λ</text>
</g>
<!-- n5&#45;&gt;n5 -->
<g id="edge11" class="edge">
<title>n5&#45;&gt;n5</title>
<path fill="none" stroke="#000000" d="M282.7705,-561.0063C293.0938,-560.2234 300.5803,-557.5547 300.5803,-553 300.5803,-550.1533 297.6559,-548.0433 292.9422,-546.67"/>
<polygon fill="#000000" stroke="#000000" points="293.2066,-543.1665 282.7705,-544.9937 292.0682,-550.0733 293.2066,-543.1665"/>
<text text-anchor="start" x="300.5803" y="-549.3" font-family="Helvetica,sans-Serif" font-size="14.00" fill="#000000">λ</text>
</g>
<!-- n5&#45;&gt;n6 -->
<g id="edge12" class="edge">
<title>n5&#45;&gt;n6</title>
<path fill="none" stroke="#000000" d="M218.8064,-533.6883C208.2903,-521.2092 194.4536,-504.7896 182.8526,-491.0231"/>
<polygon fill="#000000" stroke="#000000" points="185.4429,-488.6655 176.3224,-483.274 180.09,-493.1763 185.4429,-488.6655"/>
<text text-anchor="start" x="202.0803" y="-504.8" font-family="Helvetica,sans-Serif" font-size="14.00" fill="#000000">λ</text>
</g>
<!-- n14 -->
<g id="node15" class="node">
<title>n14</title>
<polygon fill="none" stroke="#000000" points="310.0803,-483 220.0803,-483 220.0803,-445 310.0803,-445 310.0803,-483"/>
<text text-anchor="start" x="255.5803" y="-467.8" font-family="Helvetica,sans-Serif" font-size="14.00" fill="#000000">14</text>
<text text-anchor="start" x="228.0803" y="-452.8" font-family="Helvetica,sans-Serif" font-size="14.00" fill="#000000">p → p • * f</text>
</g>
<!-- n5&#45;&gt;n14 -->
<g id="edge10" class="edge">
<title>n5&#45;&gt;n14</title>
<path fill="none" stroke="#000000" d="M241.5899,-533.6883C245.5997,-521.7924 250.8166,-506.3156 255.3152,-492.9697"/>
<polygon fill="#000000" stroke="#000000" points="258.7058,-493.8681 258.5835,-483.274 252.0725,-491.6321 258.7058,-493.8681"/>
<text text-anchor="middle" x="257.0803" y="-504.8" font-family="Helvetica,sans-Serif" font-size="14.00" fill="#000000">p</text>
</g>
<!-- n7 -->
<g id="node8" class="node">
<title>n7</title>
<polygon fill="none" stroke="#000000" points="194.5803,-394 125.5803,-394 125.5803,-356 194.5803,-356 194.5803,-394"/>
<text text-anchor="start" x="155.0803" y="-378.8" font-family="Helvetica,sans-Serif" font-size="14.00" fill="#000000">7</text>
<text text-anchor="start" x="133.5803" y="-363.8" font-family="Helvetica,sans-Serif" font-size="14.00" fill="#000000">p → f • </text>
</g>
<!-- n6&#45;&gt;n7 -->
<g id="edge13" class="edge">
<title>n6&#45;&gt;n7</title>
<path fill="none" stroke="#000000" d="M160.0803,-444.6883C160.0803,-432.909 160.0803,-417.6187 160.0803,-404.3628"/>
<polygon fill="#000000" stroke="#000000" points="163.5804,-404.274 160.0803,-394.274 156.5804,-404.274 163.5804,-404.274"/>
<text text-anchor="middle" x="163.0803" y="-415.8" font-family="Helvetica,sans-Serif" font-size="14.00" fill="#000000">f</text>
</g>
<!-- n8 -->
<g id="node9" class="node">
<title>n8</title>
<polygon fill="none" stroke="#000000" points="158.0803,-305 82.0803,-305 82.0803,-267 158.0803,-267 158.0803,-305"/>
<text text-anchor="start" x="115.0803" y="-289.8" font-family="Helvetica,sans-Serif" font-size="14.00" fill="#000000">8</text>
<text text-anchor="start" x="90.0803" y="-274.8" font-family="Helvetica,sans-Serif" font-size="14.00" fill="#000000">f → &#160;• ID</text>
</g>
<!-- n6&#45;&gt;n8 -->
<g id="edge14" class="edge">
<title>n6&#45;&gt;n8</title>
<path fill="none" stroke="#000000" d="M140.1431,-444.9424C128.0127,-431.907 113.6322,-413.5075 107.0803,-394 98.4117,-368.1902 103.6295,-337.1987 109.8425,-315.0471"/>
<polygon fill="#000000" stroke="#000000" points="113.2628,-315.8289 112.8181,-305.2434 106.5646,-313.7959 113.2628,-315.8289"/>
<text text-anchor="start" x="107.0803" y="-371.3" font-family="Helvetica,sans-Serif" font-size="14.00" fill="#000000">λ</text>
</g>
<!-- n9 -->
<g id="node10" class="node">
<title>n9</title>
<polygon fill="none" stroke="#000000" points="279.5803,-305 192.5803,-305 192.5803,-267 279.5803,-267 279.5803,-305"/>
<text text-anchor="start" x="231.0803" y="-289.8" font-family="Helvetica,sans-Serif" font-size="14.00" fill="#000000">9</text>
<text text-anchor="start" x="200.5803" y="-274.8" font-family="Helvetica,sans-Serif" font-size="14.00" fill="#000000">f → &#160;• ( s )</text>
</g>
<!-- n6&#45;&gt;n9 -->
<g id="edge15" class="edge">
<title>n6&#45;&gt;n9</title>
<path fill="none" stroke="#000000" d="M173.7081,-444.8251C182.9529,-431.1559 194.9295,-412.0719 203.0803,-394 214.7012,-368.2342 223.6991,-337.2371 229.3428,-315.0722"/>
<polygon fill="#000000" stroke="#000000" points="232.7658,-315.8097 231.769,-305.2619 225.9705,-314.1292 232.7658,-315.8097"/>
<text text-anchor="start" x="218.0803" y="-371.3" font-family="Helvetica,sans-Serif" font-size="14.00" fill="#000000">λ</text>
</g>
<!-- n13 -->
<g id="node14" class="node">
<title>n13</title>
<polygon fill="none" stroke="#000000" points="158.0803,-216 82.0803,-216 82.0803,-178 158.0803,-178 158.0803,-216"/>
<text text-anchor="start" x="110.5803" y="-200.8" font-family="Helvetica,sans-Serif" font-size="14.00" fill="#000000">13</text>
<text text-anchor="start" x="90.0803" y="-185.8" font-family="Helvetica,sans-Serif" font-size="14.00" fill="#000000">f → ID • </text>
</g>
<!-- n8&#45;&gt;n13 -->
<g id="edge16" class="edge">
<title>n8&#45;&gt;n13</title>
<path fill="none" stroke="#000000" d="M120.0803,-266.6883C120.0803,-254.909 120.0803,-239.6187 120.0803,-226.3628"/>
<polygon fill="#000000" stroke="#000000" points="123.5804,-226.274 120.0803,-216.274 116.5804,-226.274 123.5804,-226.274"/>
<text text-anchor="middle" x="128.0803" y="-237.8" font-family="Helvetica,sans-Serif" font-size="14.00" fill="#000000">ID</text>
</g>
<!-- n10 -->
<g id="node11" class="node">
<title>n10</title>
<polygon fill="none" stroke="#000000" points="468.5803,-216 385.5803,-216 385.5803,-178 468.5803,-178 468.5803,-216"/>
<text text-anchor="start" x="417.5803" y="-200.8" font-family="Helvetica,sans-Serif" font-size="14.00" fill="#000000">10</text>
<text text-anchor="start" x="393.5803" y="-185.8" font-family="Helvetica,sans-Serif" font-size="14.00" fill="#000000">f → ( • s )</text>
</g>
<!-- n9&#45;&gt;n10 -->
<g id="edge17" class="edge">
<title>n9&#45;&gt;n10</title>
<path fill="none" stroke="#000000" d="M277.0546,-266.9073C306.2597,-253.2986 345.6962,-234.9225 376.8066,-220.4259"/>
<polygon fill="#000000" stroke="#000000" points="378.5878,-223.4574 386.1738,-216.0612 375.6312,-217.1124 378.5878,-223.4574"/>
<text text-anchor="middle" x="345.0803" y="-237.8" font-family="Helvetica,sans-Serif" font-size="14.00" fill="#000000">(</text>
</g>
<!-- n10&#45;&gt;n2 -->
<g id="edge19" class="edge">
<title>n10&#45;&gt;n2</title>
<path fill="none" stroke="#000000" d="M440.5847,-216.1451C451.507,-233.5251 465.0803,-260.2947 465.0803,-286 465.0803,-731 465.0803,-731 465.0803,-731 465.0803,-761.1808 439.7933,-782.8265 413.3581,-797.209"/>
<polygon fill="#000000" stroke="#000000" points="411.6858,-794.1331 404.384,-801.81 414.8794,-800.3622 411.6858,-794.1331"/>
<text text-anchor="start" x="465.0803" y="-504.8" font-family="Helvetica,sans-Serif" font-size="14.00" fill="#000000">λ</text>
</g>
<!-- n10&#45;&gt;n3 -->
<g id="edge20" class="edge">
<title>n10&#45;&gt;n3</title>
<path fill="none" stroke="#000000" d="M427.0803,-216.0973C427.0803,-234.1195 427.0803,-261.8958 427.0803,-286 427.0803,-553 427.0803,-553 427.0803,-553 427.0803,-586.3449 395.8369,-609.8741 367.5993,-624.3302"/>
<polygon fill="#000000" stroke="#000000" points="366.0496,-621.1918 358.5803,-628.7058 369.1051,-627.4897 366.0496,-621.1918"/>
<text text-anchor="start" x="427.0803" y="-415.8" font-family="Helvetica,sans-Serif" font-size="14.00" fill="#000000">λ</text>
</g>
<!-- n11 -->
<g id="node12" class="node">
<title>n11</title>
<polygon fill="none" stroke="#000000" points="468.5803,-127 385.5803,-127 385.5803,-89 468.5803,-89 468.5803,-127"/>
<text text-anchor="start" x="417.5803" y="-111.8" font-family="Helvetica,sans-Serif" font-size="14.00" fill="#000000">11</text>
<text text-anchor="start" x="393.5803" y="-96.8" font-family="Helvetica,sans-Serif" font-size="14.00" fill="#000000">f → ( s • )</text>
</g>
<!-- n10&#45;&gt;n11 -->
<g id="edge18" class="edge">
<title>n10&#45;&gt;n11</title>
<path fill="none" stroke="#000000" d="M427.0803,-177.6883C427.0803,-165.909 427.0803,-150.6187 427.0803,-137.3628"/>
<polygon fill="#000000" stroke="#000000" points="430.5804,-137.274 427.0803,-127.274 423.5804,-137.274 430.5804,-137.274"/>
<text text-anchor="middle" x="431.0803" y="-148.8" font-family="Helvetica,sans-Serif" font-size="14.00" fill="#000000">s</text>
</g>
<!-- n12 -->
<g id="node13" class="node">
<title>n12</title>
<polygon fill="none" stroke="#000000" points="470.5803,-38 383.5803,-38 383.5803,0 470.5803,0 470.5803,-38"/>
<text text-anchor="start" x="417.5803" y="-22.8" font-family="Helvetica,sans-Serif" font-size="14.00" fill="#000000">12</text>
<text text-anchor="start" x="391.5803" y="-7.8" font-family="Helvetica,sans-Serif" font-size="14.00" fill="#000000">f → ( s ) • </text>
</g>
<!-- n11&#45;&gt;n12 -->
<g id="edge21" class="edge">
<title>n11&#45;&gt;n12</title>
<path fill="none" stroke="#000000" d="M427.0803,-88.6883C427.0803,-76.909 427.0803,-61.6187 427.0803,-48.3628"/>
<polygon fill="#000000" stroke="#000000" points="430.5804,-48.274 427.0803,-38.274 423.5804,-48.274 430.5804,-48.274"/>
<text text-anchor="middle" x="430.0803" y="-59.8" font-family="Helvetica,sans-Serif" font-size="14.00" fill="#000000">)</text>
</g>
<!-- n15 -->
<g id="node16" class="node">
<title>n15</title>
<polygon fill="none" stroke="#000000" points="348.0803,-394 258.0803,-394 258.0803,-356 348.0803,-356 348.0803,-394"/>
<text text-anchor="start" x="293.5803" y="-378.8" font-family="Helvetica,sans-Serif" font-size="14.00" fill="#000000">15</text>
<text text-anchor="start" x="266.0803" y="-363.8" font-family="Helvetica,sans-Serif" font-size="14.00" fill="#000000">p → p * • f</text>
</g>
<!-- n14&#45;&gt;n15 -->
<g id="edge22" class="edge">
<title>n14&#45;&gt;n15</title>
<path fill="none" stroke="#000000" d="M273.3257,-444.6883C278.4547,-432.6757 285.1427,-417.0117 290.8786,-403.5778"/>
<polygon fill="#000000" stroke="#000000" points="294.1431,-404.8452 294.851,-394.274 287.7053,-402.0964 294.1431,-404.8452"/>
<text text-anchor="middle" x="290.0803" y="-415.8" font-family="Helvetica,sans-Serif" font-size="14.00" fill="#000000">*</text>
</g>
<!-- n15&#45;&gt;n8 -->
<g id="edge24" class="edge">
<title>n15&#45;&gt;n8</title>
<path fill="none" stroke="#000000" d="M263.8222,-355.9073C235.5548,-342.1597 197.2836,-323.5469 167.3383,-308.9834"/>
<polygon fill="#000000" stroke="#000000" points="168.8562,-305.8297 158.3325,-304.6035 165.7946,-312.1247 168.8562,-305.8297"/>
<text text-anchor="start" x="223.0803" y="-326.8" font-family="Helvetica,sans-Serif" font-size="14.00" fill="#000000">λ</text>
</g>
<!-- n15&#45;&gt;n9 -->
<g id="edge25" class="edge">
<title>n15&#45;&gt;n9</title>
<path fill="none" stroke="#000000" d="M295.9774,-355.6782C291.6811,-345.4099 285.5812,-332.9003 278.0803,-323 275.2983,-319.3281 272.1064,-315.7474 268.7518,-312.3499"/>
<polygon fill="#000000" stroke="#000000" points="270.9119,-309.5751 261.2441,-305.2408 266.0989,-314.658 270.9119,-309.5751"/>
<text text-anchor="start" x="287.0803" y="-326.8" font-family="Helvetica,sans-Serif" font-size="14.00" fill="#000000">λ</text>
</g>
<!-- n16 -->
<g id="node17" class="node">
<title>n16</title>
<polygon fill="none" stroke="#000000" points="392.5803,-305 297.5803,-305 297.5803,-267 392.5803,-267 392.5803,-305"/>
<text text-anchor="start" x="335.5803" y="-289.8" font-family="Helvetica,sans-Serif" font-size="14.00" fill="#000000">16</text>
<text text-anchor="start" x="305.5803" y="-274.8" font-family="Helvetica,sans-Serif" font-size="14.00" fill="#000000">p → p * f • </text>
</g>
<!-- n15&#45;&gt;n16 -->
<g id="edge23" class="edge">
<title>n15&#45;&gt;n16</title>
<path fill="none" stroke="#000000" d="M312.1937,-355.6883C317.8625,-343.6757 325.2545,-328.0117 331.5942,-314.5778"/>
<polygon fill="#000000" stroke="#000000" points="334.8822,-315.8113 335.9847,-305.274 328.5516,-312.8238 334.8822,-315.8113"/>
<text text-anchor="middle" x="329.0803" y="-326.8" font-family="Helvetica,sans-Serif" font-size="14.00" fill="#000000">f</text>
</g>
<!-- n18 -->
<g id="node19" class="node">
<title>n18</title>
<polygon fill="none" stroke="#000000" points="145.5803,-661 50.5803,-661 50.5803,-623 145.5803,-623 145.5803,-661"/>
<text text-anchor="start" x="88.5803" y="-645.8" font-family="Helvetica,sans-Serif" font-size="14.00" fill="#000000">18</text>
<text text-anchor="start" x="58.5803" y="-630.8" font-family="Helvetica,sans-Serif" font-size="14.00" fill="#000000">s → s + • p</text>
</g>
<!-- n17&#45;&gt;n18 -->
<g id="edge26" class="edge">
<title>n17&#45;&gt;n18</title>
<path fill="none" stroke="#000000" d="M253.6043,-711.9073C223.1984,-698.2399 182.0945,-679.764 149.7799,-665.2387"/>
<polygon fill="#000000" stroke="#000000" points="151.0419,-661.9687 140.486,-661.0612 148.172,-668.3534 151.0419,-661.9687"/>
<text text-anchor="middle" x="215.5803" y="-682.8" font-family="Helvetica,sans-Serif" font-size="14.00" fill="#000000">+</text>
</g>
<!-- n18&#45;&gt;n5 -->
<g id="edge28" class="edge">
<title>n18&#45;&gt;n5</title>
<path fill="none" stroke="#000000" d="M127.4702,-622.9073C147.8767,-609.6505 175.2471,-591.8698 197.2771,-577.5583"/>
<polygon fill="#000000" stroke="#000000" points="199.2598,-580.444 205.739,-572.0612 195.4464,-574.5739 199.2598,-580.444"/>
<text text-anchor="start" x="175.0803" y="-593.8" font-family="Helvetica,sans-Serif" font-size="14.00" fill="#000000">λ</text>
</g>
<!-- n18&#45;&gt;n6 -->
<g id="edge29" class="edge">
<title>n18&#45;&gt;n6</title>
<path fill="none" stroke="#000000" d="M61.8717,-622.9609C27.5858,-602.3099 -15.6553,-567.7555 6.0803,-534 30.0603,-496.759 79.2366,-479.1023 115.5977,-470.8799"/>
<polygon fill="#000000" stroke="#000000" points="116.4156,-474.2846 125.4819,-468.8026 114.9758,-467.4342 116.4156,-474.2846"/>
<text text-anchor="start" x="6.0803" y="-549.3" font-family="Helvetica,sans-Serif" font-size="14.00" fill="#000000">λ</text>
</g>
<!-- n19 -->
<g id="node20" class="node">
<title>n19</title>
<polygon fill="none" stroke="#000000" points="124.0803,-572 24.0803,-572 24.0803,-534 124.0803,-534 124.0803,-572"/>
<text text-anchor="start" x="64.5803" y="-556.8" font-family="Helvetica,sans-Serif" font-size="14.00" fill="#000000">19</text>
<text text-anchor="start" x="32.0803" y="-541.8" font-family="Helvetica,sans-Serif" font-size="14.00" fill="#000000">s → s + p • </text>
</g>
<!-- n18&#45;&gt;n19 -->
<g id="edge27" class="edge">
<title>n18&#45;&gt;n19</title>
<path fill="none" stroke="#000000" d="M92.8727,-622.6883C89.6648,-610.7924 85.4912,-595.3156 81.8924,-581.9697"/>
<polygon fill="#000000" stroke="#000000" points="85.2608,-581.0178 79.2778,-572.274 78.5022,-582.8404 85.2608,-581.0178"/>
<text text-anchor="middle" x="93.0803" y="-593.8" font-family="Helvetica,sans-Serif" font-size="14.00" fill="#000000">p</text>
</g>
</g>
</svg>
