<?xml version="1.0" encoding="UTF-8" standalone="no"?>
<!DOCTYPE svg PUBLIC "-//W3C//DTD SVG 1.1//EN"
 "http://www.w3.org/Graphics/SVG/1.1/DTD/svg11.dtd">
<!-- Generated by graphviz version 2.40.1 (0)
 -->
<!-- Title: d Pages: 1 -->
<svg width="719pt" height="669pt"
 viewBox="0.00 0.00 718.50 669.00" xmlns="http://www.w3.org/2000/svg" xmlns:xlink="http://www.w3.org/1999/xlink">
<g id="graph0" class="graph" transform="scale(1 1) rotate(0) translate(4 665)">
<title>d</title>
<polygon fill="#ffffff" stroke="transparent" points="-4,4 -4,-665 714.5,-665 714.5,4 -4,4"/>
<!-- n0 -->
<g id="node1" class="node">
<title>n0</title>
<polygon fill="none" stroke="#000000" points="318.5,-661 218.5,-661 218.5,-623 318.5,-623 318.5,-661"/>
<text text-anchor="start" x="263.5" y="-645.8" font-family="Helvetica,sans-Serif" font-size="14.00" fill="#000000">0</text>
<text text-anchor="start" x="226.5" y="-630.8" font-family="Helvetica,sans-Serif" font-size="14.00" fill="#000000">S&#39; → &#160;• expr</text>
</g>
<!-- n1 -->
<g id="node2" class="node">
<title>n1</title>
<polygon fill="none" stroke="#000000" points="240.5,-572 140.5,-572 140.5,-534 240.5,-534 240.5,-572"/>
<text text-anchor="start" x="185.5" y="-556.8" font-family="Helvetica,sans-Serif" font-size="14.00" fill="#000000">1</text>
<text text-anchor="start" x="148.5" y="-541.8" font-family="Helvetica,sans-Serif" font-size="14.00" fill="#000000">S&#39; → expr • </text>
</g>
<!-- n0&#45;&gt;n1 -->
<g id="edge1" class="edge">
<title>n0&#45;&gt;n1</title>
<path fill="none" stroke="#000000" d="M240.6659,-622.8237C233.9615,-617.4933 227.1197,-611.3979 221.5,-605 215.251,-597.8857 209.5609,-589.3384 204.8103,-581.248"/>
<polygon fill="#000000" stroke="#000000" points="207.8024,-579.4275 199.8662,-572.4084 201.6931,-582.8445 207.8024,-579.4275"/>
<text text-anchor="middle" x="238" y="-593.8" font-family="Helvetica,sans-Serif" font-size="14.00" fill="#000000">expr</text>
</g>
<!-- n2 -->
<g id="node3" class="node">
<title>n2</title>
<polygon fill="none" stroke="#000000" points="502.5,-572 320.5,-572 320.5,-534 502.5,-534 502.5,-572"/>
<text text-anchor="start" x="406.5" y="-556.8" font-family="Helvetica,sans-Serif" font-size="14.00" fill="#000000">2</text>
<text text-anchor="start" x="328.5" y="-541.8" font-family="Helvetica,sans-Serif" font-size="14.00" fill="#000000">expr → &#160;• expr + factor</text>
</g>
<!-- n0&#45;&gt;n2 -->
<g id="edge2" class="edge">
<title>n0&#45;&gt;n2</title>
<path fill="none" stroke="#000000" d="M299.1771,-622.9073C320.5715,-609.5919 349.2993,-591.7123 372.3461,-577.3685"/>
<polygon fill="#000000" stroke="#000000" points="374.2331,-580.3167 380.8736,-572.0612 370.5343,-574.3737 374.2331,-580.3167"/>
<text text-anchor="start" x="348.5" y="-593.8" font-family="Helvetica,sans-Serif" font-size="14.00" fill="#000000">λ</text>
</g>
<!-- n3 -->
<g id="node4" class="node">
<title>n3</title>
<polygon fill="none" stroke="#000000" points="332,-394 203,-394 203,-356 332,-356 332,-394"/>
<text text-anchor="start" x="262.5" y="-378.8" font-family="Helvetica,sans-Serif" font-size="14.00" fill="#000000">3</text>
<text text-anchor="start" x="211" y="-363.8" font-family="Helvetica,sans-Serif" font-size="14.00" fill="#000000">expr → &#160;• factor</text>
</g>
<!-- n0&#45;&gt;n3 -->
<g id="edge3" class="edge">
<title>n0&#45;&gt;n3</title>
<path fill="none" stroke="#000000" d="M268.4281,-622.798C268.2551,-576.6135 267.8149,-459.0871 267.6091,-404.1427"/>
<polygon fill="#000000" stroke="#000000" points="271.1088,-404.0148 267.5713,-394.028 264.1088,-404.0411 271.1088,-404.0148"/>
<text text-anchor="start" x="268.5" y="-504.8" font-family="Helvetica,sans-Serif" font-size="14.00" fill="#000000">λ</text>
</g>
<!-- n2&#45;&gt;n2 -->
<g id="edge5" class="edge">
<title>n2&#45;&gt;n2</title>
<path fill="none" stroke="#000000" d="M502.5374,-560.0898C513.4036,-558.8008 520.5,-556.4375 520.5,-553 520.5,-550.7979 517.5877,-549.0366 512.6375,-547.7161"/>
<polygon fill="#000000" stroke="#000000" points="512.9973,-544.225 502.5374,-545.9102 511.7651,-551.1157 512.9973,-544.225"/>
<text text-anchor="start" x="520.5" y="-549.3" font-family="Helvetica,sans-Serif" font-size="14.00" fill="#000000">λ</text>
</g>
<!-- n2&#45;&gt;n3 -->
<g id="edge6" class="edge">
<title>n2&#45;&gt;n3</title>
<path fill="none" stroke="#000000" d="M384.6748,-533.901C367.5575,-520.8488 345.6365,-502.4458 329.5,-483 309.084,-458.3971 291.5669,-426.1815 280.4118,-403.3571"/>
<polygon fill="#000000" stroke="#000000" points="283.5037,-401.71 276.0306,-394.1998 277.1892,-404.7311 283.5037,-401.71"/>
<text text-anchor="start" x="329.5" y="-460.3" font-family="Helvetica,sans-Serif" font-size="14.00" fill="#000000">λ</text>
</g>
<!-- n11 -->
<g id="node12" class="node">
<title>n11</title>
<polygon fill="none" stroke="#000000" points="525.5,-483 347.5,-483 347.5,-445 525.5,-445 525.5,-483"/>
<text text-anchor="start" x="427" y="-467.8" font-family="Helvetica,sans-Serif" font-size="14.00" fill="#000000">11</text>
<text text-anchor="start" x="355.5" y="-452.8" font-family="Helvetica,sans-Serif" font-size="14.00" fill="#000000">expr → expr • + factor</text>
</g>
<!-- n2&#45;&gt;n11 -->
<g id="edge4" class="edge">
<title>n2&#45;&gt;n11</title>
<path fill="none" stroke="#000000" d="M416.9246,-533.6883C420.2662,-521.7924 424.6136,-506.3156 428.3624,-492.9697"/>
<polygon fill="#000000" stroke="#000000" points="431.7512,-493.8479 431.086,-483.274 425.012,-491.9548 431.7512,-493.8479"/>
<text text-anchor="middle" x="441" y="-504.8" font-family="Helvetica,sans-Serif" font-size="14.00" fill="#000000">expr</text>
</g>
<!-- n4 -->
<g id="node5" class="node">
<title>n4</title>
<polygon fill="none" stroke="#000000" points="129,-305 0,-305 0,-267 129,-267 129,-305"/>
<text text-anchor="start" x="59.5" y="-289.8" font-family="Helvetica,sans-Serif" font-size="14.00" fill="#000000">4</text>
<text text-anchor="start" x="8" y="-274.8" font-family="Helvetica,sans-Serif" font-size="14.00" fill="#000000">expr → factor • </text>
</g>
<!-- n3&#45;&gt;n4 -->
<g id="edge7" class="edge">
<title>n3&#45;&gt;n4</title>
<path fill="none" stroke="#000000" d="M223.9514,-355.9073C192.7776,-342.2399 150.6358,-323.764 117.5051,-309.2387"/>
<polygon fill="#000000" stroke="#000000" points="118.5404,-305.871 107.9766,-305.0612 115.7297,-312.282 118.5404,-305.871"/>
<text text-anchor="middle" x="200" y="-326.8" font-family="Helvetica,sans-Serif" font-size="14.00" fill="#000000">factor</text>
</g>
<!-- n5 -->
<g id="node6" class="node">
<title>n5</title>
<polygon fill="none" stroke="#000000" points="260,-305 147,-305 147,-267 260,-267 260,-305"/>
<text text-anchor="start" x="198.5" y="-289.8" font-family="Helvetica,sans-Serif" font-size="14.00" fill="#000000">5</text>
<text text-anchor="start" x="155" y="-274.8" font-family="Helvetica,sans-Serif" font-size="14.00" fill="#000000">factor → &#160;• ID</text>
</g>
<!-- n3&#45;&gt;n5 -->
<g id="edge8" class="edge">
<title>n3&#45;&gt;n5</title>
<path fill="none" stroke="#000000" d="M253.613,-355.6883C244.7231,-343.3258 233.0523,-327.0962 223.2104,-313.4098"/>
<polygon fill="#000000" stroke="#000000" points="226.0398,-311.3494 217.3599,-305.274 220.3566,-315.4362 226.0398,-311.3494"/>
<text text-anchor="start" x="239.5" y="-326.8" font-family="Helvetica,sans-Serif" font-size="14.00" fill="#000000">λ</text>
</g>
<!-- n6 -->
<g id="node7" class="node">
<title>n6</title>
<polygon fill="none" stroke="#000000" points="473,-305 324,-305 324,-267 473,-267 473,-305"/>
<text text-anchor="start" x="393.5" y="-289.8" font-family="Helvetica,sans-Serif" font-size="14.00" fill="#000000">6</text>
<text text-anchor="start" x="332" y="-274.8" font-family="Helvetica,sans-Serif" font-size="14.00" fill="#000000">factor → &#160;• ( expr )</text>
</g>
<!-- n3&#45;&gt;n6 -->
<g id="edge9" class="edge">
<title>n3&#45;&gt;n6</title>
<path fill="none" stroke="#000000" d="M290.0773,-355.8373C302.5399,-345.6155 318.4937,-333.0997 333.5,-323 340.0139,-318.6159 347.0771,-314.2386 354.0667,-310.1094"/>
<polygon fill="#000000" stroke="#000000" points="355.9358,-313.0716 362.834,-305.03 352.4266,-307.0147 355.9358,-313.0716"/>
<text text-anchor="start" x="333.5" y="-326.8" font-family="Helvetica,sans-Serif" font-size="14.00" fill="#000000">λ</text>
</g>
<!-- n10 -->
<g id="node11" class="node">
<title>n10</title>
<polygon fill="none" stroke="#000000" points="260,-216 147,-216 147,-178 260,-178 260,-216"/>
<text text-anchor="start" x="194" y="-200.8" font-family="Helvetica,sans-Serif" font-size="14.00" fill="#000000">10</text>
<text text-anchor="start" x="155" y="-185.8" font-family="Helvetica,sans-Serif" font-size="14.00" fill="#000000">factor → ID • </text>
</g>
<!-- n5&#45;&gt;n10 -->
<g id="edge10" class="edge">
<title>n5&#45;&gt;n10</title>
<path fill="none" stroke="#000000" d="M203.5,-266.6883C203.5,-254.909 203.5,-239.6187 203.5,-226.3628"/>
<polygon fill="#000000" stroke="#000000" points="207.0001,-226.274 203.5,-216.274 200.0001,-226.274 207.0001,-226.274"/>
<text text-anchor="middle" x="211.5" y="-237.8" font-family="Helvetica,sans-Serif" font-size="14.00" fill="#000000">ID</text>
</g>
<!-- n7 -->
<g id="node8" class="node">
<title>n7</title>
<polygon fill="none" stroke="#000000" points="470.5,-216 326.5,-216 326.5,-178 470.5,-178 470.5,-216"/>
<text text-anchor="start" x="393.5" y="-200.8" font-family="Helvetica,sans-Serif" font-size="14.00" fill="#000000">7</text>
<text text-anchor="start" x="334.5" y="-185.8" font-family="Helvetica,sans-Serif" font-size="14.00" fill="#000000">factor → ( • expr )</text>
</g>
<!-- n6&#45;&gt;n7 -->
<g id="edge11" class="edge">
<title>n6&#45;&gt;n7</title>
<path fill="none" stroke="#000000" d="M398.5,-266.6883C398.5,-254.909 398.5,-239.6187 398.5,-226.3628"/>
<polygon fill="#000000" stroke="#000000" points="402.0001,-226.274 398.5,-216.274 395.0001,-226.274 402.0001,-226.274"/>
<text text-anchor="middle" x="401.5" y="-237.8" font-family="Helvetica,sans-Serif" font-size="14.00" fill="#000000">(</text>
</g>
<!-- n7&#45;&gt;n2 -->
<g id="edge13" class="edge">
<title>n7&#45;&gt;n2</title>
<path fill="none" stroke="#000000" d="M470.6911,-203.7281C560.3122,-214.1208 701.5,-238.0954 701.5,-286 701.5,-464 701.5,-464 701.5,-464 701.5,-504.5494 596.5689,-528.5189 512.9438,-541.1829"/>
<polygon fill="#000000" stroke="#000000" points="512.2414,-537.7486 502.8598,-542.6716 513.2637,-544.6735 512.2414,-537.7486"/>
<text text-anchor="start" x="701.5" y="-371.3" font-family="Helvetica,sans-Serif" font-size="14.00" fill="#000000">λ</text>
</g>
<!-- n7&#45;&gt;n3 -->
<g id="edge14" class="edge">
<title>n7&#45;&gt;n3</title>
<path fill="none" stroke="#000000" d="M364.3541,-216.1831C345.0664,-228.5214 321.8253,-246.1329 306.5,-267 289.1038,-290.6868 278.8102,-322.908 273.2077,-345.9791"/>
<polygon fill="#000000" stroke="#000000" points="269.7627,-345.3444 270.9551,-355.8719 276.588,-346.8986 269.7627,-345.3444"/>
<text text-anchor="start" x="306.5" y="-282.3" font-family="Helvetica,sans-Serif" font-size="14.00" fill="#000000">λ</text>
</g>
<!-- n8 -->
<g id="node9" class="node">
<title>n8</title>
<polygon fill="none" stroke="#000000" points="470.5,-127 326.5,-127 326.5,-89 470.5,-89 470.5,-127"/>
<text text-anchor="start" x="393.5" y="-111.8" font-family="Helvetica,sans-Serif" font-size="14.00" fill="#000000">8</text>
<text text-anchor="start" x="334.5" y="-96.8" font-family="Helvetica,sans-Serif" font-size="14.00" fill="#000000">factor → ( expr • )</text>
</g>
<!-- n7&#45;&gt;n8 -->
<g id="edge12" class="edge">
<title>n7&#45;&gt;n8</title>
<path fill="none" stroke="#000000" d="M398.5,-177.6883C398.5,-165.909 398.5,-150.6187 398.5,-137.3628"/>
<polygon fill="#000000" stroke="#000000" points="402.0001,-137.274 398.5,-127.274 395.0001,-137.274 402.0001,-137.274"/>
<text text-anchor="middle" x="415" y="-148.8" font-family="Helvetica,sans-Serif" font-size="14.00" fill="#000000">expr</text>
</g>
<!-- n9 -->
<g id="node10" class="node">
<title>n9</title>
<polygon fill="none" stroke="#000000" points="473,-38 324,-38 324,0 473,0 473,-38"/>
<text text-anchor="start" x="393.5" y="-22.8" font-family="Helvetica,sans-Serif" font-size="14.00" fill="#000000">9</text>
<text text-anchor="start" x="332" y="-7.8" font-family="Helvetica,sans-Serif" font-size="14.00" fill="#000000">factor → ( expr ) • </text>
</g>
<!-- n8&#45;&gt;n9 -->
<g id="edge15" class="edge">
<title>n8&#45;&gt;n9</title>
<path fill="none" stroke="#000000" d="M398.5,-88.6883C398.5,-76.909 398.5,-61.6187 398.5,-48.3628"/>
<polygon fill="#000000" stroke="#000000" points="402.0001,-48.274 398.5,-38.274 395.0001,-48.274 402.0001,-48.274"/>
<text text-anchor="middle" x="401.5" y="-59.8" font-family="Helvetica,sans-Serif" font-size="14.00" fill="#000000">)</text>
</g>
<!-- n12 -->
<g id="node13" class="node">
<title>n12</title>
<polygon fill="none" stroke="#000000" points="528.5,-394 350.5,-394 350.5,-356 528.5,-356 528.5,-394"/>
<text text-anchor="start" x="430" y="-378.8" font-family="Helvetica,sans-Serif" font-size="14.00" fill="#000000">12</text>
<text text-anchor="start" x="358.5" y="-363.8" font-family="Helvetica,sans-Serif" font-size="14.00" fill="#000000">expr → expr + • factor</text>
</g>
<!-- n11&#45;&gt;n12 -->
<g id="edge16" class="edge">
<title>n11&#45;&gt;n12</title>
<path fill="none" stroke="#000000" d="M437.151,-444.6883C437.548,-432.909 438.0634,-417.6187 438.5102,-404.3628"/>
<polygon fill="#000000" stroke="#000000" points="442.0113,-404.3863 438.8503,-394.274 435.0153,-404.1504 442.0113,-404.3863"/>
<text text-anchor="middle" x="444" y="-415.8" font-family="Helvetica,sans-Serif" font-size="14.00" fill="#000000">+</text>
</g>
<!-- n12&#45;&gt;n5 -->
<g id="edge18" class="edge">
<title>n12&#45;&gt;n5</title>
<path fill="none" stroke="#000000" d="M408.4995,-355.9777C389.8831,-345.1714 365.4318,-332.0381 342.5,-323 313.4144,-311.5366 304.7114,-313.0409 274.5,-305 273.0357,-304.6103 271.5545,-304.2158 270.0611,-303.8179"/>
<polygon fill="#000000" stroke="#000000" points="270.6418,-300.3505 260.0776,-301.1553 268.8379,-307.1141 270.6418,-300.3505"/>
<text text-anchor="start" x="372.5" y="-326.8" font-family="Helvetica,sans-Serif" font-size="14.00" fill="#000000">λ</text>
</g>
<!-- n12&#45;&gt;n6 -->
<g id="edge19" class="edge">
<title>n12&#45;&gt;n6</title>
<path fill="none" stroke="#000000" d="M430.6036,-355.6883C425.0697,-343.6757 417.8537,-328.0117 411.665,-314.5778"/>
<polygon fill="#000000" stroke="#000000" points="414.7421,-312.8921 407.379,-305.274 408.3843,-315.821 414.7421,-312.8921"/>
<text text-anchor="start" x="420.5" y="-326.8" font-family="Helvetica,sans-Serif" font-size="14.00" fill="#000000">λ</text>
</g>
<!-- n13 -->
<g id="node14" class="node">
<title>n13</title>
<polygon fill="none" stroke="#000000" points="673.5,-305 491.5,-305 491.5,-267 673.5,-267 673.5,-305"/>
<text text-anchor="start" x="573" y="-289.8" font-family="Helvetica,sans-Serif" font-size="14.00" fill="#000000">13</text>
<text text-anchor="start" x="499.5" y="-274.8" font-family="Helvetica,sans-Serif" font-size="14.00" fill="#000000">expr → expr + factor • </text>
</g>
<!-- n12&#45;&gt;n13 -->
<g id="edge17" class="edge">
<title>n12&#45;&gt;n13</title>
<path fill="none" stroke="#000000" d="M470.1771,-355.9073C491.5715,-342.5919 520.2993,-324.7123 543.3461,-310.3685"/>
<polygon fill="#000000" stroke="#000000" points="545.2331,-313.3167 551.8736,-305.0612 541.5343,-307.3737 545.2331,-313.3167"/>
<text text-anchor="middle" x="541" y="-326.8" font-family="Helvetica,sans-Serif" font-size="14.00" fill="#000000">factor</text>
</g>
</g>
</svg>
