<?xml version="1.0" encoding="UTF-8" standalone="no"?>
<!DOCTYPE svg PUBLIC "-//W3C//DTD SVG 1.1//EN"
 "http://www.w3.org/Graphics/SVG/1.1/DTD/svg11.dtd">
<!-- Generated by graphviz version 2.40.1 (0)
 -->
<!-- Title: d Pages: 1 -->
<svg width="891pt" height="918pt"
 viewBox="0.00 0.00 890.50 918.00" xmlns="http://www.w3.org/2000/svg" xmlns:xlink="http://www.w3.org/1999/xlink">
<g id="graph0" class="graph" transform="scale(1 1) rotate(0) translate(4 914)">
<title>d</title>
<polygon fill="#ffffff" stroke="transparent" points="-4,4 -4,-914 886.5,-914 886.5,4 -4,4"/>
<!-- n0 -->
<g id="node1" class="node">
<title>n0</title>
<polygon fill="none" stroke="#000000" points="670.5,-910 464.5,-910 464.5,-782 670.5,-782 670.5,-910"/>
<text text-anchor="start" x="562.5" y="-894.8" font-family="Helvetica,sans-Serif" font-size="14.00" fill="#000000">0</text>
<text text-anchor="start" x="513.5" y="-879.8" font-family="Helvetica,sans-Serif" font-size="14.00" fill="#000000">S&#39; → &#160;• expr [0]</text>
<text text-anchor="start" x="476" y="-864.8" font-family="Helvetica,sans-Serif" font-size="14.00" fill="#000000">expr → &#160;• expr + term [2]</text>
<text text-anchor="start" x="502.5" y="-849.8" font-family="Helvetica,sans-Serif" font-size="14.00" fill="#000000">expr → &#160;• term [3]</text>
<text text-anchor="start" x="489" y="-834.8" font-family="Helvetica,sans-Serif" font-size="14.00" fill="#000000">factor → &#160;• ( expr ) [9]</text>
<text text-anchor="start" x="507" y="-819.8" font-family="Helvetica,sans-Serif" font-size="14.00" fill="#000000">factor → &#160;• ID [8]</text>
<text text-anchor="start" x="498" y="-804.8" font-family="Helvetica,sans-Serif" font-size="14.00" fill="#000000">term → &#160;• factor [6]</text>
<text text-anchor="start" x="472.5" y="-789.8" font-family="Helvetica,sans-Serif" font-size="14.00" fill="#000000">term → &#160;• term * factor [5]</text>
</g>
<!-- n1 -->
<g id="node2" class="node">
<title>n1</title>
<polygon fill="none" stroke="#000000" points="669,-731 466,-731 466,-678 669,-678 669,-731"/>
<text text-anchor="start" x="562.5" y="-715.8" font-family="Helvetica,sans-Serif" font-size="14.00" fill="#000000">1</text>
<text text-anchor="start" x="513.5" y="-700.8" font-family="Helvetica,sans-Serif" font-size="14.00" fill="#000000">S&#39; → expr • &#160;[1]</text>
<text text-anchor="start" x="474" y="-685.8" font-family="Helvetica,sans-Serif" font-size="14.00" fill="#000000">expr → expr • + term [17]</text>
</g>
<!-- n0&#45;&gt;n1 -->
<g id="edge1" class="edge">
<title>n0&#45;&gt;n1</title>
<path fill="none" stroke="#000000" d="M567.5,-781.8742C567.5,-768.0744 567.5,-753.9356 567.5,-741.5825"/>
<polygon fill="#000000" stroke="#000000" points="571.0001,-741.2398 567.5,-731.2398 564.0001,-741.2398 571.0001,-741.2398"/>
<text text-anchor="middle" x="584" y="-752.8" font-family="Helvetica,sans-Serif" font-size="14.00" fill="#000000">expr</text>
</g>
<!-- n2 -->
<g id="node3" class="node">
<title>n2</title>
<polygon fill="none" stroke="#000000" points="211,-261 0,-261 0,-208 211,-208 211,-261"/>
<text text-anchor="start" x="100.5" y="-245.8" font-family="Helvetica,sans-Serif" font-size="14.00" fill="#000000">2</text>
<text text-anchor="start" x="40.5" y="-230.8" font-family="Helvetica,sans-Serif" font-size="14.00" fill="#000000">expr → term • &#160;[4]</text>
<text text-anchor="start" x="8" y="-215.8" font-family="Helvetica,sans-Serif" font-size="14.00" fill="#000000">term → term • * factor [14]</text>
</g>
<!-- n0&#45;&gt;n2 -->
<g id="edge2" class="edge">
<title>n0&#45;&gt;n2</title>
<path fill="none" stroke="#000000" d="M464.399,-838.3925C315.1307,-824.4972 56.5,-788.3264 56.5,-704.5 56.5,-704.5 56.5,-704.5 56.5,-414 56.5,-353.6782 47.8512,-334.9084 70.5,-279 71.7548,-275.9026 73.2936,-272.8431 75.0189,-269.8659"/>
<polygon fill="#000000" stroke="#000000" points="78.123,-271.5136 80.6567,-261.2262 72.2607,-267.6882 78.123,-271.5136"/>
<text text-anchor="middle" x="74" y="-574.3" font-family="Helvetica,sans-Serif" font-size="14.00" fill="#000000">term</text>
</g>
<!-- n3 -->
<g id="node4" class="node">
<title>n3</title>
<polygon fill="none" stroke="#000000" points="786,-253.5 631,-253.5 631,-215.5 786,-215.5 786,-253.5"/>
<text text-anchor="start" x="703.5" y="-238.3" font-family="Helvetica,sans-Serif" font-size="14.00" fill="#000000">3</text>
<text text-anchor="start" x="639" y="-223.3" font-family="Helvetica,sans-Serif" font-size="14.00" fill="#000000">term → factor • &#160;[7]</text>
</g>
<!-- n0&#45;&gt;n3 -->
<g id="edge3" class="edge">
<title>n0&#45;&gt;n3</title>
<path fill="none" stroke="#000000" d="M670.8264,-823.6385C731.1523,-803.8332 795.5,-767.858 795.5,-704.5 795.5,-704.5 795.5,-704.5 795.5,-414 795.5,-355.0982 757.096,-295.2291 731.3191,-261.6788"/>
<polygon fill="#000000" stroke="#000000" points="734.0023,-259.4287 725.0688,-253.7327 728.5004,-263.7564 734.0023,-259.4287"/>
<text text-anchor="middle" x="817" y="-574.3" font-family="Helvetica,sans-Serif" font-size="14.00" fill="#000000">factor</text>
</g>
<!-- n4 -->
<g id="node5" class="node">
<title>n4</title>
<polygon fill="none" stroke="#000000" points="707.5,-38 561.5,-38 561.5,0 707.5,0 707.5,-38"/>
<text text-anchor="start" x="629.5" y="-22.8" font-family="Helvetica,sans-Serif" font-size="14.00" fill="#000000">4</text>
<text text-anchor="start" x="569.5" y="-7.8" font-family="Helvetica,sans-Serif" font-size="14.00" fill="#000000">factor → ID • &#160;[13]</text>
</g>
<!-- n0&#45;&gt;n4 -->
<g id="edge4" class="edge">
<title>n0&#45;&gt;n4</title>
<path fill="none" stroke="#000000" d="M670.8175,-817.9584C757.2422,-791.355 866.5,-748.9358 866.5,-704.5 866.5,-704.5 866.5,-704.5 866.5,-123 866.5,-89.291 783.9145,-58.7848 717.2901,-39.659"/>
<polygon fill="#000000" stroke="#000000" points="718.1626,-36.2686 707.5878,-36.9207 716.2612,-43.0054 718.1626,-36.2686"/>
<text text-anchor="middle" x="874.5" y="-410.3" font-family="Helvetica,sans-Serif" font-size="14.00" fill="#000000">ID</text>
</g>
<!-- n5 -->
<g id="node6" class="node">
<title>n5</title>
<polygon fill="none" stroke="#000000" points="507.5,-478 301.5,-478 301.5,-350 507.5,-350 507.5,-478"/>
<text text-anchor="start" x="399.5" y="-462.8" font-family="Helvetica,sans-Serif" font-size="14.00" fill="#000000">5</text>
<text text-anchor="start" x="313" y="-447.8" font-family="Helvetica,sans-Serif" font-size="14.00" fill="#000000">expr → &#160;• expr + term [2]</text>
<text text-anchor="start" x="339.5" y="-432.8" font-family="Helvetica,sans-Serif" font-size="14.00" fill="#000000">expr → &#160;• term [3]</text>
<text text-anchor="start" x="326" y="-417.8" font-family="Helvetica,sans-Serif" font-size="14.00" fill="#000000">factor → &#160;• ( expr ) [9]</text>
<text text-anchor="start" x="344" y="-402.8" font-family="Helvetica,sans-Serif" font-size="14.00" fill="#000000">factor → &#160;• ID [8]</text>
<text text-anchor="start" x="324" y="-387.8" font-family="Helvetica,sans-Serif" font-size="14.00" fill="#000000">factor → ( • expr ) [10]</text>
<text text-anchor="start" x="335" y="-372.8" font-family="Helvetica,sans-Serif" font-size="14.00" fill="#000000">term → &#160;• factor [6]</text>
<text text-anchor="start" x="309.5" y="-357.8" font-family="Helvetica,sans-Serif" font-size="14.00" fill="#000000">term → &#160;• term * factor [5]</text>
</g>
<!-- n0&#45;&gt;n5 -->
<g id="edge5" class="edge">
<title>n0&#45;&gt;n5</title>
<path fill="none" stroke="#000000" d="M496.2717,-781.8391C433.596,-719.8338 347.4907,-619.5539 315.5,-511 313.1237,-502.9366 313.2675,-495.1879 315.2562,-487.8298"/>
<polygon fill="#000000" stroke="#000000" points="318.698,-488.6345 319.0483,-478.0455 312.1711,-486.1048 318.698,-488.6345"/>
<text text-anchor="middle" x="393.5" y="-648.8" font-family="Helvetica,sans-Serif" font-size="14.00" fill="#000000">(</text>
</g>
<!-- n8 -->
<g id="node9" class="node">
<title>n8</title>
<polygon fill="none" stroke="#000000" points="670.5,-627 464.5,-627 464.5,-529 670.5,-529 670.5,-627"/>
<text text-anchor="start" x="562.5" y="-611.8" font-family="Helvetica,sans-Serif" font-size="14.00" fill="#000000">8</text>
<text text-anchor="start" x="474" y="-596.8" font-family="Helvetica,sans-Serif" font-size="14.00" fill="#000000">expr → expr + • term [18]</text>
<text text-anchor="start" x="489" y="-581.8" font-family="Helvetica,sans-Serif" font-size="14.00" fill="#000000">factor → &#160;• ( expr ) [9]</text>
<text text-anchor="start" x="507" y="-566.8" font-family="Helvetica,sans-Serif" font-size="14.00" fill="#000000">factor → &#160;• ID [8]</text>
<text text-anchor="start" x="498" y="-551.8" font-family="Helvetica,sans-Serif" font-size="14.00" fill="#000000">term → &#160;• factor [6]</text>
<text text-anchor="start" x="472.5" y="-536.8" font-family="Helvetica,sans-Serif" font-size="14.00" fill="#000000">term → &#160;• term * factor [5]</text>
</g>
<!-- n1&#45;&gt;n8 -->
<g id="edge6" class="edge">
<title>n1&#45;&gt;n8</title>
<path fill="none" stroke="#000000" d="M567.5,-677.9815C567.5,-666.1468 567.5,-651.6866 567.5,-637.4808"/>
<polygon fill="#000000" stroke="#000000" points="571.0001,-637.223 567.5,-627.223 564.0001,-637.223 571.0001,-637.223"/>
<text text-anchor="middle" x="574" y="-648.8" font-family="Helvetica,sans-Serif" font-size="14.00" fill="#000000">+</text>
</g>
<!-- n10 -->
<g id="node11" class="node">
<title>n10</title>
<polygon fill="none" stroke="#000000" points="353,-157 142,-157 142,-89 353,-89 353,-157"/>
<text text-anchor="start" x="238" y="-141.8" font-family="Helvetica,sans-Serif" font-size="14.00" fill="#000000">10</text>
<text text-anchor="start" x="169" y="-126.8" font-family="Helvetica,sans-Serif" font-size="14.00" fill="#000000">factor → &#160;• ( expr ) [9]</text>
<text text-anchor="start" x="187" y="-111.8" font-family="Helvetica,sans-Serif" font-size="14.00" fill="#000000">factor → &#160;• ID [8]</text>
<text text-anchor="start" x="150" y="-96.8" font-family="Helvetica,sans-Serif" font-size="14.00" fill="#000000">term → term * • factor [15]</text>
</g>
<!-- n2&#45;&gt;n10 -->
<g id="edge7" class="edge">
<title>n2&#45;&gt;n10</title>
<path fill="none" stroke="#000000" d="M139.5125,-207.793C156.4558,-194.4889 177.298,-178.1234 196.1379,-163.3301"/>
<polygon fill="#000000" stroke="#000000" points="198.3688,-166.0285 204.0724,-157.0999 194.0457,-160.5229 198.3688,-166.0285"/>
<text text-anchor="middle" x="185.5" y="-178.8" font-family="Helvetica,sans-Serif" font-size="14.00" fill="#000000">*</text>
</g>
<!-- n5&#45;&gt;n2 -->
<g id="edge9" class="edge">
<title>n5&#45;&gt;n2</title>
<path fill="none" stroke="#000000" d="M322.2692,-349.53C316.9684,-343.8824 311.9728,-338.0172 307.5,-332 292.1813,-311.3918 304.098,-295.5915 284.5,-279 281.4623,-276.4283 253.7791,-269.1408 221.0542,-261.1888"/>
<polygon fill="#000000" stroke="#000000" points="221.7767,-257.7628 211.2346,-258.8184 220.1341,-264.5673 221.7767,-257.7628"/>
<text text-anchor="middle" x="325" y="-301.8" font-family="Helvetica,sans-Serif" font-size="14.00" fill="#000000">term</text>
</g>
<!-- n5&#45;&gt;n3 -->
<g id="edge10" class="edge">
<title>n5&#45;&gt;n3</title>
<path fill="none" stroke="#000000" d="M478.9983,-349.7663C509.8946,-325.3252 547.0041,-298.6588 583.5,-279 599.097,-270.5986 616.6039,-263.2289 633.4657,-257.0293"/>
<polygon fill="#000000" stroke="#000000" points="635.0607,-260.1761 643.2998,-253.5153 632.7052,-253.5843 635.0607,-260.1761"/>
<text text-anchor="middle" x="605" y="-301.8" font-family="Helvetica,sans-Serif" font-size="14.00" fill="#000000">factor</text>
</g>
<!-- n5&#45;&gt;n4 -->
<g id="edge11" class="edge">
<title>n5&#45;&gt;n4</title>
<path fill="none" stroke="#000000" d="M385.0095,-349.8222C367.5132,-278.1098 352.6747,-162.457 411.5,-89 429.4459,-66.5904 495.6863,-47.5674 551.3486,-35.0339"/>
<polygon fill="#000000" stroke="#000000" points="552.238,-38.4219 561.2476,-32.8472 550.728,-31.5867 552.238,-38.4219"/>
<text text-anchor="middle" x="381.5" y="-178.8" font-family="Helvetica,sans-Serif" font-size="14.00" fill="#000000">ID</text>
</g>
<!-- n5&#45;&gt;n5 -->
<g id="edge12" class="edge">
<title>n5&#45;&gt;n5</title>
<path fill="none" stroke="#000000" d="M507.7716,-427.6711C518.5763,-425.0023 525.5,-420.4453 525.5,-414 525.5,-409.7703 522.5182,-406.3537 517.4146,-403.7504"/>
<polygon fill="#000000" stroke="#000000" points="518.3663,-400.3744 507.7716,-400.3289 516.0255,-406.9714 518.3663,-400.3744"/>
<text text-anchor="middle" x="528.5" y="-410.3" font-family="Helvetica,sans-Serif" font-size="14.00" fill="#000000">(</text>
</g>
<!-- n6 -->
<g id="node7" class="node">
<title>n6</title>
<polygon fill="none" stroke="#000000" points="613,-261 410,-261 410,-208 613,-208 613,-261"/>
<text text-anchor="start" x="506.5" y="-245.8" font-family="Helvetica,sans-Serif" font-size="14.00" fill="#000000">6</text>
<text text-anchor="start" x="418" y="-230.8" font-family="Helvetica,sans-Serif" font-size="14.00" fill="#000000">expr → expr • + term [17]</text>
<text text-anchor="start" x="431" y="-215.8" font-family="Helvetica,sans-Serif" font-size="14.00" fill="#000000">factor → ( expr • ) [11]</text>
</g>
<!-- n5&#45;&gt;n6 -->
<g id="edge8" class="edge">
<title>n5&#45;&gt;n6</title>
<path fill="none" stroke="#000000" d="M415.2095,-349.7998C421.4676,-325.9176 431.2634,-299.6343 446.5,-279 449.3941,-275.0807 452.7415,-271.3904 456.3599,-267.9413"/>
<polygon fill="#000000" stroke="#000000" points="458.8589,-270.4066 464.1096,-261.2043 454.2663,-265.1237 458.8589,-270.4066"/>
<text text-anchor="middle" x="463" y="-301.8" font-family="Helvetica,sans-Serif" font-size="14.00" fill="#000000">expr</text>
</g>
<!-- n7 -->
<g id="node8" class="node">
<title>n7</title>
<polygon fill="none" stroke="#000000" points="602.5,-142 420.5,-142 420.5,-104 602.5,-104 602.5,-142"/>
<text text-anchor="start" x="506.5" y="-126.8" font-family="Helvetica,sans-Serif" font-size="14.00" fill="#000000">7</text>
<text text-anchor="start" x="428.5" y="-111.8" font-family="Helvetica,sans-Serif" font-size="14.00" fill="#000000">factor → ( expr ) • &#160;[12]</text>
</g>
<!-- n6&#45;&gt;n7 -->
<g id="edge13" class="edge">
<title>n6&#45;&gt;n7</title>
<path fill="none" stroke="#000000" d="M511.5,-207.793C511.5,-191.0401 511.5,-169.4328 511.5,-152.2231"/>
<polygon fill="#000000" stroke="#000000" points="515.0001,-152.1586 511.5,-142.1586 508.0001,-152.1587 515.0001,-152.1586"/>
<text text-anchor="middle" x="514.5" y="-178.8" font-family="Helvetica,sans-Serif" font-size="14.00" fill="#000000">)</text>
</g>
<!-- n6&#45;&gt;n8 -->
<g id="edge14" class="edge">
<title>n6&#45;&gt;n8</title>
<path fill="none" stroke="#000000" d="M542.4522,-261.4868C546.8881,-266.832 550.8421,-272.7421 553.5,-279 586.5519,-356.8177 583.248,-456.4876 576.4487,-518.8053"/>
<polygon fill="#000000" stroke="#000000" points="572.9585,-518.5196 575.2863,-528.8555 579.9121,-519.3239 572.9585,-518.5196"/>
<text text-anchor="middle" x="587" y="-410.3" font-family="Helvetica,sans-Serif" font-size="14.00" fill="#000000">+</text>
</g>
<!-- n8&#45;&gt;n3 -->
<g id="edge16" class="edge">
<title>n8&#45;&gt;n3</title>
<path fill="none" stroke="#000000" d="M587.7019,-528.7848C617.647,-455.8333 672.8544,-321.3387 696.8525,-262.8754"/>
<polygon fill="#000000" stroke="#000000" points="700.1336,-264.099 700.6931,-253.5189 693.6579,-261.4408 700.1336,-264.099"/>
<text text-anchor="middle" x="680" y="-410.3" font-family="Helvetica,sans-Serif" font-size="14.00" fill="#000000">factor</text>
</g>
<!-- n8&#45;&gt;n4 -->
<g id="edge17" class="edge">
<title>n8&#45;&gt;n4</title>
<path fill="none" stroke="#000000" d="M650.8953,-528.8597C670.6623,-514.3514 690.3719,-497.1564 705.5,-478 770.2096,-396.0598 775.1073,-363.3995 795.5,-261 800.1007,-237.8981 803.6387,-230.1049 795.5,-208 769.9863,-138.7046 706.5202,-77.5149 667.3227,-44.6144"/>
<polygon fill="#000000" stroke="#000000" points="669.2886,-41.6988 659.3491,-38.0305 664.8316,-47.0965 669.2886,-41.6988"/>
<text text-anchor="middle" x="807.5" y="-230.8" font-family="Helvetica,sans-Serif" font-size="14.00" fill="#000000">ID</text>
</g>
<!-- n8&#45;&gt;n5 -->
<g id="edge18" class="edge">
<title>n8&#45;&gt;n5</title>
<path fill="none" stroke="#000000" d="M518.5946,-528.7946C504.9753,-515.0917 489.9021,-499.926 475.2956,-485.2299"/>
<polygon fill="#000000" stroke="#000000" points="477.703,-482.6871 468.1711,-478.0617 472.7381,-487.6217 477.703,-482.6871"/>
<text text-anchor="middle" x="503.5" y="-499.8" font-family="Helvetica,sans-Serif" font-size="14.00" fill="#000000">(</text>
</g>
<!-- n9 -->
<g id="node10" class="node">
<title>n9</title>
<polygon fill="none" stroke="#000000" points="283,-332 72,-332 72,-279 283,-279 283,-332"/>
<text text-anchor="start" x="172.5" y="-316.8" font-family="Helvetica,sans-Serif" font-size="14.00" fill="#000000">9</text>
<text text-anchor="start" x="81.5" y="-301.8" font-family="Helvetica,sans-Serif" font-size="14.00" fill="#000000">expr → expr + term • &#160;[19]</text>
<text text-anchor="start" x="80" y="-286.8" font-family="Helvetica,sans-Serif" font-size="14.00" fill="#000000">term → term • * factor [14]</text>
</g>
<!-- n8&#45;&gt;n9 -->
<g id="edge15" class="edge">
<title>n8&#45;&gt;n9</title>
<path fill="none" stroke="#000000" d="M464.3983,-557.0553C409.1757,-541.9848 342.4402,-517.2236 292.5,-478 245.7906,-441.3139 211.5158,-380.2493 193.0529,-341.4777"/>
<polygon fill="#000000" stroke="#000000" points="196.0946,-339.7183 188.7016,-332.1292 189.7484,-342.6722 196.0946,-339.7183"/>
<text text-anchor="middle" x="357" y="-499.8" font-family="Helvetica,sans-Serif" font-size="14.00" fill="#000000">term</text>
</g>
<!-- n9&#45;&gt;n10 -->
<g id="edge19" class="edge">
<title>n9&#45;&gt;n10</title>
<path fill="none" stroke="#000000" d="M207.2312,-278.6343C211.9177,-273.1972 216.2726,-267.2244 219.5,-261 234.6334,-231.8134 241.594,-195.2079 244.7922,-167.033"/>
<polygon fill="#000000" stroke="#000000" points="248.2762,-167.3669 245.8084,-157.0635 241.3123,-166.657 248.2762,-167.3669"/>
<text text-anchor="middle" x="242.5" y="-230.8" font-family="Helvetica,sans-Serif" font-size="14.00" fill="#000000">*</text>
</g>
<!-- n10&#45;&gt;n4 -->
<g id="edge21" class="edge">
<title>n10&#45;&gt;n4</title>
<path fill="none" stroke="#000000" d="M291.0092,-88.8396C308.8207,-76.5434 330.2235,-63.7944 351.5,-56 387.0872,-42.963 481.1977,-32.2948 551.181,-25.8197"/>
<polygon fill="#000000" stroke="#000000" points="551.6807,-29.2887 561.3215,-24.895 551.045,-22.3177 551.6807,-29.2887"/>
<text text-anchor="middle" x="359.5" y="-59.8" font-family="Helvetica,sans-Serif" font-size="14.00" fill="#000000">ID</text>
</g>
<!-- n10&#45;&gt;n5 -->
<g id="edge22" class="edge">
<title>n10&#45;&gt;n5</title>
<path fill="none" stroke="#000000" d="M269.8064,-157.027C289.8502,-188.1892 319.5712,-235.8841 342.5,-279 352.9489,-298.6483 363.3976,-320.3881 372.6591,-340.5774"/>
<polygon fill="#000000" stroke="#000000" points="369.4977,-342.0804 376.8267,-349.7314 375.8685,-339.1799 369.4977,-342.0804"/>
<text text-anchor="middle" x="334.5" y="-230.8" font-family="Helvetica,sans-Serif" font-size="14.00" fill="#000000">(</text>
</g>
<!-- n11 -->
<g id="node12" class="node">
<title>n11</title>
<polygon fill="none" stroke="#000000" points="355,-38 140,-38 140,0 355,0 355,-38"/>
<text text-anchor="start" x="238" y="-22.8" font-family="Helvetica,sans-Serif" font-size="14.00" fill="#000000">11</text>
<text text-anchor="start" x="148" y="-7.8" font-family="Helvetica,sans-Serif" font-size="14.00" fill="#000000">term → term * factor • &#160;[16]</text>
</g>
<!-- n10&#45;&gt;n11 -->
<g id="edge20" class="edge">
<title>n10&#45;&gt;n11</title>
<path fill="none" stroke="#000000" d="M247.5,-88.9465C247.5,-75.8027 247.5,-60.9152 247.5,-48.2636"/>
<polygon fill="#000000" stroke="#000000" points="251.0001,-48.2495 247.5,-38.2495 244.0001,-48.2495 251.0001,-48.2495"/>
<text text-anchor="middle" x="269" y="-59.8" font-family="Helvetica,sans-Serif" font-size="14.00" fill="#000000">factor</text>
</g>
</g>
</svg>
