<?xml version="1.0" encoding="UTF-8" standalone="no"?>
<!DOCTYPE svg PUBLIC "-//W3C//DTD SVG 1.1//EN"
 "http://www.w3.org/Graphics/SVG/1.1/DTD/svg11.dtd">
<!-- Generated by graphviz version 2.40.1 (0)
 -->
<!-- Title: d Pages: 1 -->
<svg width="724pt" height="936pt"
 viewBox="0.00 0.00 724.22 936.00" xmlns="http://www.w3.org/2000/svg" xmlns:xlink="http://www.w3.org/1999/xlink">
<g id="graph0" class="graph" transform="scale(1 1) rotate(0) translate(4 932)">
<title>d</title>
<polygon fill="#ffffff" stroke="transparent" points="-4,4 -4,-932 720.2235,-932 720.2235,4 -4,4"/>
<!-- n0 -->
<g id="node1" class="node">
<title>n0</title>
<polygon fill="none" stroke="#000000" points="413.7235,-928 313.7235,-928 313.7235,-890 413.7235,-890 413.7235,-928"/>
<text text-anchor="start" x="358.7235" y="-912.8" font-family="Helvetica,sans-Serif" font-size="14.00" fill="#000000">0</text>
<text text-anchor="start" x="321.7235" y="-897.8" font-family="Helvetica,sans-Serif" font-size="14.00" fill="#000000">S&#39; → &#160;• expr</text>
</g>
<!-- n1 -->
<g id="node2" class="node">
<title>n1</title>
<polygon fill="none" stroke="#000000" points="335.7235,-839 235.7235,-839 235.7235,-801 335.7235,-801 335.7235,-839"/>
<text text-anchor="start" x="280.7235" y="-823.8" font-family="Helvetica,sans-Serif" font-size="14.00" fill="#000000">1</text>
<text text-anchor="start" x="243.7235" y="-808.8" font-family="Helvetica,sans-Serif" font-size="14.00" fill="#000000">S&#39; → expr • </text>
</g>
<!-- n0&#45;&gt;n1 -->
<g id="edge1" class="edge">
<title>n0&#45;&gt;n1</title>
<path fill="none" stroke="#000000" d="M335.8894,-889.8237C329.185,-884.4933 322.3432,-878.3979 316.7235,-872 310.4745,-864.8857 304.7844,-856.3384 300.0338,-848.248"/>
<polygon fill="#000000" stroke="#000000" points="303.0259,-846.4275 295.0898,-839.4084 296.9166,-849.8445 303.0259,-846.4275"/>
<text text-anchor="middle" x="333.2235" y="-860.8" font-family="Helvetica,sans-Serif" font-size="14.00" fill="#000000">expr</text>
</g>
<!-- n2 -->
<g id="node3" class="node">
<title>n2</title>
<polygon fill="none" stroke="#000000" points="643.2235,-839 468.2235,-839 468.2235,-801 643.2235,-801 643.2235,-839"/>
<text text-anchor="start" x="550.7235" y="-823.8" font-family="Helvetica,sans-Serif" font-size="14.00" fill="#000000">2</text>
<text text-anchor="start" x="476.2235" y="-808.8" font-family="Helvetica,sans-Serif" font-size="14.00" fill="#000000">expr → &#160;• expr + term</text>
</g>
<!-- n0&#45;&gt;n2 -->
<g id="edge2" class="edge">
<title>n0&#45;&gt;n2</title>
<path fill="none" stroke="#000000" d="M404.9123,-889.9073C434.2704,-876.2986 473.9133,-857.9225 505.1866,-843.4259"/>
<polygon fill="#000000" stroke="#000000" points="507.0021,-846.4422 514.6028,-839.0612 504.0582,-840.0913 507.0021,-846.4422"/>
<text text-anchor="start" x="470.7235" y="-860.8" font-family="Helvetica,sans-Serif" font-size="14.00" fill="#000000">λ</text>
</g>
<!-- n3 -->
<g id="node4" class="node">
<title>n3</title>
<polygon fill="none" stroke="#000000" points="556.7235,-661 434.7235,-661 434.7235,-623 556.7235,-623 556.7235,-661"/>
<text text-anchor="start" x="490.7235" y="-645.8" font-family="Helvetica,sans-Serif" font-size="14.00" fill="#000000">3</text>
<text text-anchor="start" x="442.7235" y="-630.8" font-family="Helvetica,sans-Serif" font-size="14.00" fill="#000000">expr → &#160;• term</text>
</g>
<!-- n0&#45;&gt;n3 -->
<g id="edge3" class="edge">
<title>n0&#45;&gt;n3</title>
<path fill="none" stroke="#000000" d="M358.3631,-889.8437C347.6102,-846.9504 328.4244,-742.0161 377.7235,-679 384.3199,-670.5683 403.684,-663.0909 424.8672,-657.1039"/>
<polygon fill="#000000" stroke="#000000" points="425.9424,-660.4391 434.6888,-654.4599 424.1227,-653.6798 425.9424,-660.4391"/>
<text text-anchor="start" x="346.7235" y="-771.8" font-family="Helvetica,sans-Serif" font-size="14.00" fill="#000000">λ</text>
</g>
<!-- n2&#45;&gt;n2 -->
<g id="edge5" class="edge">
<title>n2&#45;&gt;n2</title>
<path fill="none" stroke="#000000" d="M643.4415,-827.1377C654.1822,-825.8597 661.2235,-823.4805 661.2235,-820 661.2235,-817.7703 658.3338,-815.9926 653.4329,-814.6668"/>
<polygon fill="#000000" stroke="#000000" points="653.9044,-811.1954 643.4415,-812.8623 652.6602,-818.084 653.9044,-811.1954"/>
<text text-anchor="start" x="661.2235" y="-816.3" font-family="Helvetica,sans-Serif" font-size="14.00" fill="#000000">λ</text>
</g>
<!-- n2&#45;&gt;n3 -->
<g id="edge6" class="edge">
<title>n2&#45;&gt;n3</title>
<path fill="none" stroke="#000000" d="M564.3154,-800.8282C572.9775,-778.5643 583.3983,-741.1675 570.7235,-712 562.9972,-694.22 548.2831,-678.9052 533.9199,-667.1734"/>
<polygon fill="#000000" stroke="#000000" points="536.0655,-664.4081 526.0231,-661.0314 531.7679,-669.9336 536.0655,-664.4081"/>
<text text-anchor="start" x="575.7235" y="-727.3" font-family="Helvetica,sans-Serif" font-size="14.00" fill="#000000">λ</text>
</g>
<!-- n17 -->
<g id="node18" class="node">
<title>n17</title>
<polygon fill="none" stroke="#000000" points="561.7235,-750 391.7235,-750 391.7235,-712 561.7235,-712 561.7235,-750"/>
<text text-anchor="start" x="467.2235" y="-734.8" font-family="Helvetica,sans-Serif" font-size="14.00" fill="#000000">17</text>
<text text-anchor="start" x="399.7235" y="-719.8" font-family="Helvetica,sans-Serif" font-size="14.00" fill="#000000">expr → expr • + term</text>
</g>
<!-- n2&#45;&gt;n17 -->
<g id="edge4" class="edge">
<title>n2&#45;&gt;n17</title>
<path fill="none" stroke="#000000" d="M538.5817,-800.6883C527.5047,-788.2092 512.93,-771.7896 500.7103,-758.0231"/>
<polygon fill="#000000" stroke="#000000" points="503.0879,-755.4293 493.8319,-750.274 497.8528,-760.0762 503.0879,-755.4293"/>
<text text-anchor="middle" x="537.2235" y="-771.8" font-family="Helvetica,sans-Serif" font-size="14.00" fill="#000000">expr</text>
</g>
<!-- n4 -->
<g id="node5" class="node">
<title>n4</title>
<polygon fill="none" stroke="#000000" points="613.7235,-572 491.7235,-572 491.7235,-534 613.7235,-534 613.7235,-572"/>
<text text-anchor="start" x="547.7235" y="-556.8" font-family="Helvetica,sans-Serif" font-size="14.00" fill="#000000">4</text>
<text text-anchor="start" x="499.7235" y="-541.8" font-family="Helvetica,sans-Serif" font-size="14.00" fill="#000000">expr → term • </text>
</g>
<!-- n3&#45;&gt;n4 -->
<g id="edge7" class="edge">
<title>n3&#45;&gt;n4</title>
<path fill="none" stroke="#000000" d="M508.0917,-622.6883C515.9345,-610.4425 526.2076,-594.4021 534.9204,-580.7978"/>
<polygon fill="#000000" stroke="#000000" points="537.9336,-582.5826 540.3795,-572.274 532.0389,-578.8074 537.9336,-582.5826"/>
<text text-anchor="middle" x="544.2235" y="-593.8" font-family="Helvetica,sans-Serif" font-size="14.00" fill="#000000">term</text>
</g>
<!-- n5 -->
<g id="node6" class="node">
<title>n5</title>
<polygon fill="none" stroke="#000000" points="446.7235,-572 264.7235,-572 264.7235,-534 446.7235,-534 446.7235,-572"/>
<text text-anchor="start" x="350.7235" y="-556.8" font-family="Helvetica,sans-Serif" font-size="14.00" fill="#000000">5</text>
<text text-anchor="start" x="272.7235" y="-541.8" font-family="Helvetica,sans-Serif" font-size="14.00" fill="#000000">term → &#160;• term * factor</text>
</g>
<!-- n3&#45;&gt;n5 -->
<g id="edge8" class="edge">
<title>n3&#45;&gt;n5</title>
<path fill="none" stroke="#000000" d="M465.69,-622.9073C444.8367,-609.6505 416.8669,-591.8698 394.3546,-577.5583"/>
<polygon fill="#000000" stroke="#000000" points="396.0242,-574.4724 385.7073,-572.0612 392.2687,-580.3797 396.0242,-574.4724"/>
<text text-anchor="start" x="433.7235" y="-593.8" font-family="Helvetica,sans-Serif" font-size="14.00" fill="#000000">λ</text>
</g>
<!-- n6 -->
<g id="node7" class="node">
<title>n6</title>
<polygon fill="none" stroke="#000000" points="302.2235,-483 171.2235,-483 171.2235,-445 302.2235,-445 302.2235,-483"/>
<text text-anchor="start" x="231.7235" y="-467.8" font-family="Helvetica,sans-Serif" font-size="14.00" fill="#000000">6</text>
<text text-anchor="start" x="179.2235" y="-452.8" font-family="Helvetica,sans-Serif" font-size="14.00" fill="#000000">term → &#160;• factor</text>
</g>
<!-- n3&#45;&gt;n6 -->
<g id="edge9" class="edge">
<title>n3&#45;&gt;n6</title>
<path fill="none" stroke="#000000" d="M434.4738,-632.8471C368.7823,-621.6946 270.65,-600.7235 246.7235,-572 228.6664,-550.3226 228.3203,-517.0254 231.1392,-493.135"/>
<polygon fill="#000000" stroke="#000000" points="234.607,-493.6086 232.5514,-483.2151 227.6769,-492.6219 234.607,-493.6086"/>
<text text-anchor="start" x="246.7235" y="-549.3" font-family="Helvetica,sans-Serif" font-size="14.00" fill="#000000">λ</text>
</g>
<!-- n5&#45;&gt;n5 -->
<g id="edge11" class="edge">
<title>n5&#45;&gt;n5</title>
<path fill="none" stroke="#000000" d="M446.7609,-560.0898C457.6272,-558.8008 464.7235,-556.4375 464.7235,-553 464.7235,-550.7979 461.8112,-549.0366 456.861,-547.7161"/>
<polygon fill="#000000" stroke="#000000" points="457.2208,-544.225 446.7609,-545.9102 455.9887,-551.1157 457.2208,-544.225"/>
<text text-anchor="start" x="464.7235" y="-549.3" font-family="Helvetica,sans-Serif" font-size="14.00" fill="#000000">λ</text>
</g>
<!-- n5&#45;&gt;n6 -->
<g id="edge12" class="edge">
<title>n5&#45;&gt;n6</title>
<path fill="none" stroke="#000000" d="M330.195,-533.9073C312.705,-520.8265 289.3255,-503.341 270.3244,-489.1301"/>
<polygon fill="#000000" stroke="#000000" points="272.3141,-486.2476 262.2098,-483.0612 268.1216,-491.8533 272.3141,-486.2476"/>
<text text-anchor="start" x="303.7235" y="-504.8" font-family="Helvetica,sans-Serif" font-size="14.00" fill="#000000">λ</text>
</g>
<!-- n14 -->
<g id="node15" class="node">
<title>n14</title>
<polygon fill="none" stroke="#000000" points="510.7235,-483 332.7235,-483 332.7235,-445 510.7235,-445 510.7235,-483"/>
<text text-anchor="start" x="412.2235" y="-467.8" font-family="Helvetica,sans-Serif" font-size="14.00" fill="#000000">14</text>
<text text-anchor="start" x="340.7235" y="-452.8" font-family="Helvetica,sans-Serif" font-size="14.00" fill="#000000">term → term • * factor</text>
</g>
<!-- n5&#45;&gt;n14 -->
<g id="edge10" class="edge">
<title>n5&#45;&gt;n14</title>
<path fill="none" stroke="#000000" d="M370.0445,-533.6883C379.2122,-521.3258 391.2477,-505.0962 401.3972,-491.4098"/>
<polygon fill="#000000" stroke="#000000" points="404.2851,-493.3912 407.4304,-483.274 398.6625,-489.2216 404.2851,-493.3912"/>
<text text-anchor="middle" x="410.2235" y="-504.8" font-family="Helvetica,sans-Serif" font-size="14.00" fill="#000000">term</text>
</g>
<!-- n7 -->
<g id="node8" class="node">
<title>n7</title>
<polygon fill="none" stroke="#000000" points="302.2235,-394 171.2235,-394 171.2235,-356 302.2235,-356 302.2235,-394"/>
<text text-anchor="start" x="231.7235" y="-378.8" font-family="Helvetica,sans-Serif" font-size="14.00" fill="#000000">7</text>
<text text-anchor="start" x="179.2235" y="-363.8" font-family="Helvetica,sans-Serif" font-size="14.00" fill="#000000">term → factor • </text>
</g>
<!-- n6&#45;&gt;n7 -->
<g id="edge13" class="edge">
<title>n6&#45;&gt;n7</title>
<path fill="none" stroke="#000000" d="M236.7235,-444.6883C236.7235,-432.909 236.7235,-417.6187 236.7235,-404.3628"/>
<polygon fill="#000000" stroke="#000000" points="240.2236,-404.274 236.7235,-394.274 233.2236,-404.274 240.2236,-404.274"/>
<text text-anchor="middle" x="258.2235" y="-415.8" font-family="Helvetica,sans-Serif" font-size="14.00" fill="#000000">factor</text>
</g>
<!-- n8 -->
<g id="node9" class="node">
<title>n8</title>
<polygon fill="none" stroke="#000000" points="223.2235,-305 110.2235,-305 110.2235,-267 223.2235,-267 223.2235,-305"/>
<text text-anchor="start" x="161.7235" y="-289.8" font-family="Helvetica,sans-Serif" font-size="14.00" fill="#000000">8</text>
<text text-anchor="start" x="118.2235" y="-274.8" font-family="Helvetica,sans-Serif" font-size="14.00" fill="#000000">factor → &#160;• ID</text>
</g>
<!-- n6&#45;&gt;n8 -->
<g id="edge14" class="edge">
<title>n6&#45;&gt;n8</title>
<path fill="none" stroke="#000000" d="M201.5878,-444.9369C183.3762,-432.9565 162.8688,-415.6607 152.7235,-394 141.0402,-369.0556 147.1887,-337.525 154.657,-314.9832"/>
<polygon fill="#000000" stroke="#000000" points="158.0431,-315.9091 158.122,-305.3146 151.4535,-313.5476 158.0431,-315.9091"/>
<text text-anchor="start" x="152.7235" y="-371.3" font-family="Helvetica,sans-Serif" font-size="14.00" fill="#000000">λ</text>
</g>
<!-- n9 -->
<g id="node10" class="node">
<title>n9</title>
<polygon fill="none" stroke="#000000" points="413.2235,-305 264.2235,-305 264.2235,-267 413.2235,-267 413.2235,-305"/>
<text text-anchor="start" x="333.7235" y="-289.8" font-family="Helvetica,sans-Serif" font-size="14.00" fill="#000000">9</text>
<text text-anchor="start" x="272.2235" y="-274.8" font-family="Helvetica,sans-Serif" font-size="14.00" fill="#000000">factor → &#160;• ( expr )</text>
</g>
<!-- n6&#45;&gt;n9 -->
<g id="edge15" class="edge">
<title>n6&#45;&gt;n9</title>
<path fill="none" stroke="#000000" d="M265.2941,-444.7186C281.3978,-432.2309 300.3178,-414.5001 310.7235,-394 323.4387,-368.9499 330.7336,-337.6199 334.6687,-315.1655"/>
<polygon fill="#000000" stroke="#000000" points="338.1344,-315.6588 336.2937,-305.2251 331.2261,-314.5294 338.1344,-315.6588"/>
<text text-anchor="start" x="325.7235" y="-371.3" font-family="Helvetica,sans-Serif" font-size="14.00" fill="#000000">λ</text>
</g>
<!-- n13 -->
<g id="node14" class="node">
<title>n13</title>
<polygon fill="none" stroke="#000000" points="223.2235,-216 110.2235,-216 110.2235,-178 223.2235,-178 223.2235,-216"/>
<text text-anchor="start" x="157.2235" y="-200.8" font-family="Helvetica,sans-Serif" font-size="14.00" fill="#000000">13</text>
<text text-anchor="start" x="118.2235" y="-185.8" font-family="Helvetica,sans-Serif" font-size="14.00" fill="#000000">factor → ID • </text>
</g>
<!-- n8&#45;&gt;n13 -->
<g id="edge16" class="edge">
<title>n8&#45;&gt;n13</title>
<path fill="none" stroke="#000000" d="M166.7235,-266.6883C166.7235,-254.909 166.7235,-239.6187 166.7235,-226.3628"/>
<polygon fill="#000000" stroke="#000000" points="170.2236,-226.274 166.7235,-216.274 163.2236,-226.274 170.2236,-226.274"/>
<text text-anchor="middle" x="174.7235" y="-237.8" font-family="Helvetica,sans-Serif" font-size="14.00" fill="#000000">ID</text>
</g>
<!-- n10 -->
<g id="node11" class="node">
<title>n10</title>
<polygon fill="none" stroke="#000000" points="713.7235,-216 569.7235,-216 569.7235,-178 713.7235,-178 713.7235,-216"/>
<text text-anchor="start" x="632.2235" y="-200.8" font-family="Helvetica,sans-Serif" font-size="14.00" fill="#000000">10</text>
<text text-anchor="start" x="577.7235" y="-185.8" font-family="Helvetica,sans-Serif" font-size="14.00" fill="#000000">factor → ( • expr )</text>
</g>
<!-- n9&#45;&gt;n10 -->
<g id="edge17" class="edge">
<title>n9&#45;&gt;n10</title>
<path fill="none" stroke="#000000" d="M403.7246,-266.9073C451.6529,-252.8293 516.9506,-233.6495 567.0272,-218.9405"/>
<polygon fill="#000000" stroke="#000000" points="568.2216,-222.2376 576.8299,-216.0612 566.2488,-215.5213 568.2216,-222.2376"/>
<text text-anchor="middle" x="510.7235" y="-237.8" font-family="Helvetica,sans-Serif" font-size="14.00" fill="#000000">(</text>
</g>
<!-- n10&#45;&gt;n2 -->
<g id="edge19" class="edge">
<title>n10&#45;&gt;n2</title>
<path fill="none" stroke="#000000" d="M655.2279,-216.1451C666.1502,-233.5251 679.7235,-260.2947 679.7235,-286 679.7235,-731 679.7235,-731 679.7235,-731 679.7235,-761.6062 654.4826,-782.7116 626.7767,-796.6591"/>
<polygon fill="#000000" stroke="#000000" points="625.2683,-793.5007 617.7235,-800.9389 628.2601,-799.8292 625.2683,-793.5007"/>
<text text-anchor="start" x="679.7235" y="-504.8" font-family="Helvetica,sans-Serif" font-size="14.00" fill="#000000">λ</text>
</g>
<!-- n10&#45;&gt;n3 -->
<g id="edge20" class="edge">
<title>n10&#45;&gt;n3</title>
<path fill="none" stroke="#000000" d="M641.7235,-216.0973C641.7235,-234.1195 641.7235,-261.8958 641.7235,-286 641.7235,-553 641.7235,-553 641.7235,-553 641.7235,-591.6955 603.8701,-614.0596 566.712,-626.6912"/>
<polygon fill="#000000" stroke="#000000" points="565.2613,-623.4799 556.7947,-629.8491 567.3853,-630.1499 565.2613,-623.4799"/>
<text text-anchor="start" x="641.7235" y="-415.8" font-family="Helvetica,sans-Serif" font-size="14.00" fill="#000000">λ</text>
</g>
<!-- n11 -->
<g id="node12" class="node">
<title>n11</title>
<polygon fill="none" stroke="#000000" points="713.7235,-127 569.7235,-127 569.7235,-89 713.7235,-89 713.7235,-127"/>
<text text-anchor="start" x="632.2235" y="-111.8" font-family="Helvetica,sans-Serif" font-size="14.00" fill="#000000">11</text>
<text text-anchor="start" x="577.7235" y="-96.8" font-family="Helvetica,sans-Serif" font-size="14.00" fill="#000000">factor → ( expr • )</text>
</g>
<!-- n10&#45;&gt;n11 -->
<g id="edge18" class="edge">
<title>n10&#45;&gt;n11</title>
<path fill="none" stroke="#000000" d="M641.7235,-177.6883C641.7235,-165.909 641.7235,-150.6187 641.7235,-137.3628"/>
<polygon fill="#000000" stroke="#000000" points="645.2236,-137.274 641.7235,-127.274 638.2236,-137.274 645.2236,-137.274"/>
<text text-anchor="middle" x="658.2235" y="-148.8" font-family="Helvetica,sans-Serif" font-size="14.00" fill="#000000">expr</text>
</g>
<!-- n12 -->
<g id="node13" class="node">
<title>n12</title>
<polygon fill="none" stroke="#000000" points="716.2235,-38 567.2235,-38 567.2235,0 716.2235,0 716.2235,-38"/>
<text text-anchor="start" x="632.2235" y="-22.8" font-family="Helvetica,sans-Serif" font-size="14.00" fill="#000000">12</text>
<text text-anchor="start" x="575.2235" y="-7.8" font-family="Helvetica,sans-Serif" font-size="14.00" fill="#000000">factor → ( expr ) • </text>
</g>
<!-- n11&#45;&gt;n12 -->
<g id="edge21" class="edge">
<title>n11&#45;&gt;n12</title>
<path fill="none" stroke="#000000" d="M641.7235,-88.6883C641.7235,-76.909 641.7235,-61.6187 641.7235,-48.3628"/>
<polygon fill="#000000" stroke="#000000" points="645.2236,-48.274 641.7235,-38.274 638.2236,-48.274 645.2236,-48.274"/>
<text text-anchor="middle" x="644.7235" y="-59.8" font-family="Helvetica,sans-Serif" font-size="14.00" fill="#000000">)</text>
</g>
<!-- n15 -->
<g id="node16" class="node">
<title>n15</title>
<polygon fill="none" stroke="#000000" points="543.7235,-394 365.7235,-394 365.7235,-356 543.7235,-356 543.7235,-394"/>
<text text-anchor="start" x="445.2235" y="-378.8" font-family="Helvetica,sans-Serif" font-size="14.00" fill="#000000">15</text>
<text text-anchor="start" x="373.7235" y="-363.8" font-family="Helvetica,sans-Serif" font-size="14.00" fill="#000000">term → term * • factor</text>
</g>
<!-- n14&#45;&gt;n15 -->
<g id="edge22" class="edge">
<title>n14&#45;&gt;n15</title>
<path fill="none" stroke="#000000" d="M428.884,-444.6883C433.2949,-432.7924 439.0335,-417.3156 443.9819,-403.9697"/>
<polygon fill="#000000" stroke="#000000" points="447.382,-404.867 447.577,-394.274 440.8187,-402.4334 447.382,-404.867"/>
<text text-anchor="middle" x="443.7235" y="-415.8" font-family="Helvetica,sans-Serif" font-size="14.00" fill="#000000">*</text>
</g>
<!-- n15&#45;&gt;n8 -->
<g id="edge24" class="edge">
<title>n15&#45;&gt;n8</title>
<path fill="none" stroke="#000000" d="M392.9403,-355.9073C345.9333,-341.3808 281.3481,-321.4222 233.2178,-306.5486"/>
<polygon fill="#000000" stroke="#000000" points="234.1032,-303.1589 223.5156,-303.5503 232.0364,-309.8469 234.1032,-303.1589"/>
<text text-anchor="start" x="328.7235" y="-326.8" font-family="Helvetica,sans-Serif" font-size="14.00" fill="#000000">λ</text>
</g>
<!-- n15&#45;&gt;n9 -->
<g id="edge25" class="edge">
<title>n15&#45;&gt;n9</title>
<path fill="none" stroke="#000000" d="M435.436,-355.7976C424.7345,-345.5642 410.948,-333.05 397.7235,-323 392.226,-318.8221 386.2451,-314.667 380.27,-310.7322"/>
<polygon fill="#000000" stroke="#000000" points="381.8824,-307.6081 371.5771,-305.1482 378.0991,-313.4977 381.8824,-307.6081"/>
<text text-anchor="start" x="415.7235" y="-326.8" font-family="Helvetica,sans-Serif" font-size="14.00" fill="#000000">λ</text>
</g>
<!-- n16 -->
<g id="node17" class="node">
<title>n16</title>
<polygon fill="none" stroke="#000000" points="613.7235,-305 431.7235,-305 431.7235,-267 613.7235,-267 613.7235,-305"/>
<text text-anchor="start" x="513.2235" y="-289.8" font-family="Helvetica,sans-Serif" font-size="14.00" fill="#000000">16</text>
<text text-anchor="start" x="439.7235" y="-274.8" font-family="Helvetica,sans-Serif" font-size="14.00" fill="#000000">term → term * factor • </text>
</g>
<!-- n15&#45;&gt;n16 -->
<g id="edge23" class="edge">
<title>n15&#45;&gt;n16</title>
<path fill="none" stroke="#000000" d="M469.4785,-355.6883C478.924,-343.3258 491.3242,-327.0962 501.7812,-313.4098"/>
<polygon fill="#000000" stroke="#000000" points="504.7072,-315.345 507.9973,-305.274 499.1449,-311.0952 504.7072,-315.345"/>
<text text-anchor="middle" x="514.2235" y="-326.8" font-family="Helvetica,sans-Serif" font-size="14.00" fill="#000000">factor</text>
</g>
<!-- n18 -->
<g id="node19" class="node">
<title>n18</title>
<polygon fill="none" stroke="#000000" points="227.7235,-661 57.7235,-661 57.7235,-623 227.7235,-623 227.7235,-661"/>
<text text-anchor="start" x="133.2235" y="-645.8" font-family="Helvetica,sans-Serif" font-size="14.00" fill="#000000">18</text>
<text text-anchor="start" x="65.7235" y="-630.8" font-family="Helvetica,sans-Serif" font-size="14.00" fill="#000000">expr → expr + • term</text>
</g>
<!-- n17&#45;&gt;n18 -->
<g id="edge26" class="edge">
<title>n17&#45;&gt;n18</title>
<path fill="none" stroke="#000000" d="M405.0721,-711.9073C351.9101,-697.7413 279.3615,-678.4095 224.029,-663.6652"/>
<polygon fill="#000000" stroke="#000000" points="224.8204,-660.2541 214.2564,-661.0612 223.018,-667.018 224.8204,-660.2541"/>
<text text-anchor="middle" x="336.2235" y="-682.8" font-family="Helvetica,sans-Serif" font-size="14.00" fill="#000000">+</text>
</g>
<!-- n18&#45;&gt;n5 -->
<g id="edge28" class="edge">
<title>n18&#45;&gt;n5</title>
<path fill="none" stroke="#000000" d="M188.4174,-622.9073C221.2672,-609.1813 265.7244,-590.6053 300.5543,-576.0519"/>
<polygon fill="#000000" stroke="#000000" points="302.2277,-579.146 310.1052,-572.0612 299.5289,-572.6872 302.2277,-579.146"/>
<text text-anchor="start" x="262.7235" y="-593.8" font-family="Helvetica,sans-Serif" font-size="14.00" fill="#000000">λ</text>
</g>
<!-- n18&#45;&gt;n6 -->
<g id="edge29" class="edge">
<title>n18&#45;&gt;n6</title>
<path fill="none" stroke="#000000" d="M84.7319,-622.8493C36.4558,-603.7136 -20.218,-571.7588 7.7235,-534 26.2789,-508.925 101.7724,-489.1937 161.0729,-477.1577"/>
<polygon fill="#000000" stroke="#000000" points="162.0626,-480.5295 171.188,-475.1465 160.6974,-473.6639 162.0626,-480.5295"/>
<text text-anchor="start" x="7.7235" y="-549.3" font-family="Helvetica,sans-Serif" font-size="14.00" fill="#000000">λ</text>
</g>
<!-- n19 -->
<g id="node20" class="node">
<title>n19</title>
<polygon fill="none" stroke="#000000" points="201.2235,-572 26.2235,-572 26.2235,-534 201.2235,-534 201.2235,-572"/>
<text text-anchor="start" x="104.2235" y="-556.8" font-family="Helvetica,sans-Serif" font-size="14.00" fill="#000000">19</text>
<text text-anchor="start" x="34.2235" y="-541.8" font-family="Helvetica,sans-Serif" font-size="14.00" fill="#000000">expr → expr + term • </text>
</g>
<!-- n18&#45;&gt;n19 -->
<g id="edge27" class="edge">
<title>n18&#45;&gt;n19</title>
<path fill="none" stroke="#000000" d="M136.4309,-622.6883C132.5547,-610.7924 127.5117,-595.3156 123.1631,-581.9697"/>
<polygon fill="#000000" stroke="#000000" points="126.4298,-580.6976 120.0038,-572.274 119.7742,-582.8663 126.4298,-580.6976"/>
<text text-anchor="middle" x="148.2235" y="-593.8" font-family="Helvetica,sans-Serif" font-size="14.00" fill="#000000">term</text>
</g>
</g>
</svg>
