<?xml version="1.0" encoding="UTF-8" standalone="no"?>
<!DOCTYPE svg PUBLIC "-//W3C//DTD SVG 1.1//EN"
 "http://www.w3.org/Graphics/SVG/1.1/DTD/svg11.dtd">
<!-- Generated by graphviz version 2.40.1 (0)
 -->
<!-- Title: d Pages: 1 -->
<svg width="396pt" height="403pt"
 viewBox="0.00 0.00 395.50 403.00" xmlns="http://www.w3.org/2000/svg" xmlns:xlink="http://www.w3.org/1999/xlink">
<g id="graph0" class="graph" transform="scale(1 1) rotate(0) translate(4 399)">
<title>d</title>
<polygon fill="#ffffff" stroke="transparent" points="-4,4 -4,-399 391.5,-399 391.5,4 -4,4"/>
<!-- n0 -->
<g id="node1" class="node">
<title>n0</title>
<polygon fill="none" stroke="#000000" points="290,-395 117,-395 117,-312 290,-312 290,-395"/>
<text text-anchor="start" x="198.5" y="-379.8" font-family="Helvetica,sans-Serif" font-size="14.00" fill="#000000">0</text>
<text text-anchor="start" x="167.5" y="-364.8" font-family="Helvetica,sans-Serif" font-size="14.00" fill="#000000">S → &#160;• &#160;[3]</text>
<text text-anchor="start" x="125" y="-349.8" font-family="Helvetica,sans-Serif" font-size="14.00" fill="#000000">S → &#160;• stmt SEMI S [2]</text>
<text text-anchor="start" x="161" y="-334.8" font-family="Helvetica,sans-Serif" font-size="14.00" fill="#000000">S&#39; → &#160;• S [0]</text>
<text text-anchor="start" x="139.5" y="-319.8" font-family="Helvetica,sans-Serif" font-size="14.00" fill="#000000">stmt → &#160;• NUM [5]</text>
</g>
<!-- n1 -->
<g id="node2" class="node">
<title>n1</title>
<polygon fill="none" stroke="#000000" points="101,-261 0,-261 0,-223 101,-223 101,-261"/>
<text text-anchor="start" x="45.5" y="-245.8" font-family="Helvetica,sans-Serif" font-size="14.00" fill="#000000">1</text>
<text text-anchor="start" x="8" y="-230.8" font-family="Helvetica,sans-Serif" font-size="14.00" fill="#000000">S&#39; → S • &#160;[1]</text>
</g>
<!-- n0&#45;&gt;n1 -->
<g id="edge1" class="edge">
<title>n0&#45;&gt;n1</title>
<path fill="none" stroke="#000000" d="M146.5284,-311.9815C125.9387,-296.9765 103.3262,-280.4975 85.2187,-267.3016"/>
<polygon fill="#000000" stroke="#000000" points="86.8631,-264.1691 76.7201,-261.1081 82.7404,-269.8263 86.8631,-264.1691"/>
<text text-anchor="middle" x="123.5" y="-282.8" font-family="Helvetica,sans-Serif" font-size="14.00" fill="#000000">S</text>
</g>
<!-- n2 -->
<g id="node3" class="node">
<title>n2</title>
<polygon fill="none" stroke="#000000" points="287.5,-261 119.5,-261 119.5,-223 287.5,-223 287.5,-261"/>
<text text-anchor="start" x="198.5" y="-245.8" font-family="Helvetica,sans-Serif" font-size="14.00" fill="#000000">2</text>
<text text-anchor="start" x="127.5" y="-230.8" font-family="Helvetica,sans-Serif" font-size="14.00" fill="#000000">S → stmt • SEMI S [4]</text>
</g>
<!-- n0&#45;&gt;n2 -->
<g id="edge2" class="edge">
<title>n0&#45;&gt;n2</title>
<path fill="none" stroke="#000000" d="M203.5,-311.9815C203.5,-298.477 203.5,-283.7786 203.5,-271.3541"/>
<polygon fill="#000000" stroke="#000000" points="207.0001,-271.1081 203.5,-261.1081 200.0001,-271.1081 207.0001,-271.1081"/>
<text text-anchor="middle" x="220" y="-282.8" font-family="Helvetica,sans-Serif" font-size="14.00" fill="#000000">stmt</text>
</g>
<!-- n3 -->
<g id="node4" class="node">
<title>n3</title>
<polygon fill="none" stroke="#000000" points="387.5,-38 243.5,-38 243.5,0 387.5,0 387.5,-38"/>
<text text-anchor="start" x="310.5" y="-22.8" font-family="Helvetica,sans-Serif" font-size="14.00" fill="#000000">3</text>
<text text-anchor="start" x="251.5" y="-7.8" font-family="Helvetica,sans-Serif" font-size="14.00" fill="#000000">stmt → NUM • &#160;[6]</text>
</g>
<!-- n0&#45;&gt;n3 -->
<g id="edge3" class="edge">
<title>n0&#45;&gt;n3</title>
<path fill="none" stroke="#000000" d="M258.2715,-311.6642C273.2204,-297.3095 287.705,-280.0151 296.5,-261 329.2442,-190.2059 324.5729,-95.2837 319.472,-48.1259"/>
<polygon fill="#000000" stroke="#000000" points="322.9269,-47.5353 318.2897,-38.0092 315.9742,-48.3479 322.9269,-47.5353"/>
<text text-anchor="middle" x="333.5" y="-193.8" font-family="Helvetica,sans-Serif" font-size="14.00" fill="#000000">NUM</text>
</g>
<!-- n4 -->
<g id="node5" class="node">
<title>n4</title>
<polygon fill="none" stroke="#000000" points="273,-172 100,-172 100,-89 273,-89 273,-172"/>
<text text-anchor="start" x="181.5" y="-156.8" font-family="Helvetica,sans-Serif" font-size="14.00" fill="#000000">4</text>
<text text-anchor="start" x="150.5" y="-141.8" font-family="Helvetica,sans-Serif" font-size="14.00" fill="#000000">S → &#160;• &#160;[3]</text>
<text text-anchor="start" x="108" y="-126.8" font-family="Helvetica,sans-Serif" font-size="14.00" fill="#000000">S → &#160;• stmt SEMI S [2]</text>
<text text-anchor="start" x="110.5" y="-111.8" font-family="Helvetica,sans-Serif" font-size="14.00" fill="#000000">S → stmt SEMI • S [7]</text>
<text text-anchor="start" x="122.5" y="-96.8" font-family="Helvetica,sans-Serif" font-size="14.00" fill="#000000">stmt → &#160;• NUM [5]</text>
</g>
<!-- n2&#45;&gt;n4 -->
<g id="edge4" class="edge">
<title>n2&#45;&gt;n4</title>
<path fill="none" stroke="#000000" d="M200.5776,-222.8325C198.8498,-211.5003 196.5716,-196.5576 194.3525,-182.0033"/>
<polygon fill="#000000" stroke="#000000" points="197.8005,-181.3965 192.8332,-172.0383 190.8805,-182.4516 197.8005,-181.3965"/>
<text text-anchor="middle" x="215" y="-193.8" font-family="Helvetica,sans-Serif" font-size="14.00" fill="#000000">SEMI</text>
</g>
<!-- n4&#45;&gt;n2 -->
<g id="edge6" class="edge">
<title>n4&#45;&gt;n2</title>
<path fill="none" stroke="#000000" d="M158.7101,-172.3775C154.8225,-183.1536 153.6014,-194.6304 158.5,-205 160.2483,-208.7009 162.5684,-212.1564 165.2358,-215.3515"/>
<polygon fill="#000000" stroke="#000000" points="162.9651,-218.0359 172.4539,-222.7489 167.9752,-213.1473 162.9651,-218.0359"/>
<text text-anchor="middle" x="175" y="-193.8" font-family="Helvetica,sans-Serif" font-size="14.00" fill="#000000">stmt</text>
</g>
<!-- n4&#45;&gt;n3 -->
<g id="edge7" class="edge">
<title>n4&#45;&gt;n3</title>
<path fill="none" stroke="#000000" d="M230.4391,-88.8039C242.2867,-77.917 255.2266,-66.3411 267.5,-56 272.0361,-52.178 276.9022,-48.245 281.7328,-44.4353"/>
<polygon fill="#000000" stroke="#000000" points="284.0246,-47.0868 289.7646,-38.1815 279.724,-41.5636 284.0246,-47.0868"/>
<text text-anchor="middle" x="284.5" y="-59.8" font-family="Helvetica,sans-Serif" font-size="14.00" fill="#000000">NUM</text>
</g>
<!-- n5 -->
<g id="node6" class="node">
<title>n5</title>
<polygon fill="none" stroke="#000000" points="225,-38 52,-38 52,0 225,0 225,-38"/>
<text text-anchor="start" x="133.5" y="-22.8" font-family="Helvetica,sans-Serif" font-size="14.00" fill="#000000">5</text>
<text text-anchor="start" x="60" y="-7.8" font-family="Helvetica,sans-Serif" font-size="14.00" fill="#000000">S → stmt SEMI S • &#160;[8]</text>
</g>
<!-- n4&#45;&gt;n5 -->
<g id="edge5" class="edge">
<title>n4&#45;&gt;n5</title>
<path fill="none" stroke="#000000" d="M168.6266,-88.9815C162.6955,-75.2042 156.2295,-60.1842 150.8138,-47.6039"/>
<polygon fill="#000000" stroke="#000000" points="153.8948,-45.9092 146.7259,-38.1081 147.4653,-48.6771 153.8948,-45.9092"/>
<text text-anchor="middle" x="164.5" y="-59.8" font-family="Helvetica,sans-Serif" font-size="14.00" fill="#000000">S</text>
</g>
</g>
</svg>
